<svg width="116" height="86" viewBox="0 0 116 86" xmlns="http://www.w3.org/2000/svg"><defs><linearGradient x1="50%" y1="0%" x2="50%" y2="100%" id="a"><stop stop-color="#FFF" offset="0%"/><stop stop-color="#D6E9FF" offset="100%"/></linearGradient></defs><g fill="none" fill-rule="evenodd"><path d="M56.95 41.783c-9.227 0-17.93 4.077-23.89 11.2-1.845 2.194-1.554 5.488.643 7.342a5.056 5.056 0 0 0 3.336 1.226c1.49 0 2.96-.63 3.996-1.852 3.96-4.76 9.768-7.48 15.914-7.48 6.146 0 11.948 2.72 15.91 7.48a5.22 5.22 0 0 0 3.995 1.853c1.188 0 2.37-.39 3.338-1.225 2.2-1.854 2.488-5.148.64-7.342-5.958-7.123-14.657-11.2-23.883-11.2m0-20.89c-15.355 0-29.866 6.795-39.803 18.66-1.846 2.212-1.574 5.507.628 7.36a5.215 5.215 0 0 0 3.35 1.223 5.195 5.195 0 0 0 3.98-1.85c7.956-9.503 19.554-14.96 31.845-14.96 12.29 0 23.884 5.457 31.84 14.96a5.2 5.2 0 0 0 3.98 1.85 5.13 5.13 0 0 0 3.354-1.223 5.22 5.22 0 0 0 .624-7.36C86.81 27.69 72.305 20.894 56.95 20.894m55.73 5.25C98.764 9.534 78.45 0 56.95 0S15.132 9.534 1.216 26.144a5.237 5.237 0 0 0 .645 7.358 5.136 5.136 0 0 0 3.334 1.223 5.143 5.143 0 0 0 3.98-1.85c11.934-14.264 29.34-22.44 47.776-22.44 18.42 0 35.837 8.176 47.773 22.423 1.014 1.24 2.487 1.867 3.978 1.867a5.155 5.155 0 0 0 3.338-1.223 5.24 5.24 0 0 0 .642-7.358m-55.73 36.51c-5.743 0-10.397 4.693-10.397 10.455 0 5.76 4.654 10.434 10.397 10.434 5.737 0 10.392-4.674 10.392-10.435 0-5.763-4.655-10.457-10.392-10.457" fill="url(#a)" transform="translate(1 1)"/><path d="M57.95 42.783c-9.227 0-17.93 4.077-23.89 11.2-1.845 2.194-1.554 5.488.643 7.342a5.056 5.056 0 0 0 3.336 1.226c1.49 0 2.96-.63 3.996-1.852 3.96-4.76 9.768-7.48 15.914-7.48m6.46 1.034c2.04.67 3.966 1.66 5.71 2.934 1.37 1 2.628 2.175 3.74 3.512a5.22 5.22 0 0 0 3.995 1.853c1.188 0 2.37-.39 3.338-1.225 2.2-1.854 2.488-5.148.64-7.342-5.958-7.123-14.657-11.2-23.883-11.2m0-20.89c-15.355 0-29.866 6.795-39.803 18.66-1.846 2.212-1.574 5.507.628 7.36a5.215 5.215 0 0 0 3.35 1.223 5.195 5.195 0 0 0 3.98-1.85 42.004 42.004 0 0 1 11.362-9.518m8.49-3.662a41.222 41.222 0 0 1 11.993-1.78c12.29 0 23.884 5.457 31.84 14.96a5.2 5.2 0 0 0 3.98 1.85 5.13 5.13 0 0 0 3.354-1.223 5.22 5.22 0 0 0 .624-7.36C87.81 28.69 73.305 21.894 57.95 21.894m55.73 5.25a73.8 73.8 0 0 0-10.447-10.22M90.058 8.517A72.23 72.23 0 0 0 57.95 1c-21.5 0-41.818 9.534-55.734 26.144a5.237 5.237 0 0 0 .645 7.358 5.136 5.136 0 0 0 3.334 1.223 5.143 5.143 0 0 0 3.98-1.85c11.934-14.264 29.34-22.44 47.776-22.44 18.42 0 35.837 8.176 47.773 22.423 1.014 1.24 2.487 1.867 3.978 1.867a5.155 5.155 0 0 0 3.338-1.223 5.24 5.24 0 0 0 .642-7.358m-55.73 36.51c-5.743 0-10.397 4.693-10.397 10.455 0 5.76 4.654 10.434 10.397 10.434 5.737 0 10.392-4.674 10.392-10.435 0-5.763-4.655-10.457-10.392-10.457z" stroke="#2A86E1" stroke-width="2" stroke-linecap="round" stroke-linejoin="round"/><path d="M92.938 82.517c-9.192 0-16.67-7.508-16.67-16.737s7.478-16.738 16.67-16.738c9.19 0 16.67 7.51 16.67 16.738s-7.48 16.737-16.67 16.737" fill="#2A86E1"/><path d="M92.938 47.658c-9.953 0-18.05 8.13-18.05 18.122 0 9.993 8.097 18.122 18.05 18.122 9.952 0 18.048-8.13 18.048-18.122 0-9.993-8.096-18.122-18.048-18.122m0 2.77c8.445 0 15.29 6.873 15.29 15.352s-6.845 15.353-15.29 15.353c-8.446 0-15.29-6.874-15.29-15.353s6.844-15.353 15.29-15.353" fill="#FFF"/><path d="M99.612 69.61l-3.814-3.83 3.814-3.83c.79-.793.79-2.078 0-2.87a2.017 2.017 0 0 0-2.86 0l-3.815 3.828-3.813-3.83a2.017 2.017 0 0 0-2.86 0 2.036 2.036 0 0 0 0 2.872l3.813 3.83-3.813 3.83a2.036 2.036 0 0 0 0 2.87c.79.794 2.07.795 2.86 0l3.813-3.828 3.815 3.83c.79.793 2.07.792 2.86 0s.79-2.08 0-2.873" fill="#FFF"/></g></svg>