<svg width="116" height="86" viewBox="0 0 116 86" xmlns="http://www.w3.org/2000/svg"><title>89EF8C58-F016-4B95-AF88-F25215054463</title><defs><linearGradient x1="50%" y1="0%" x2="50%" y2="100%" id="a"><stop stop-color="#FFF" offset="0%"/><stop stop-color="#D6E9FF" offset="100%"/></linearGradient></defs><g fill="none" fill-rule="evenodd"><path d="M56.95 41.783c-9.227 0-17.93 4.077-23.889 11.2-1.846 2.194-1.555 5.488.642 7.342a5.056 5.056 0 0 0 3.336 1.226c1.491 0 2.96-.63 3.997-1.853 3.96-4.76 9.768-7.48 15.914-7.48 6.146 0 11.948 2.72 15.91 7.48a5.219 5.219 0 0 0 3.995 1.853c1.188 0 2.37-.391 3.338-1.226 2.2-1.854 2.488-5.148.64-7.342-5.958-7.123-14.657-11.2-23.883-11.2m0-20.891c-15.355 0-29.866 6.796-39.803 18.662-1.846 2.211-1.574 5.506.628 7.36a5.215 5.215 0 0 0 3.35 1.222 5.195 5.195 0 0 0 3.98-1.85c7.956-9.503 19.554-14.96 31.845-14.96 12.29 0 23.884 5.457 31.841 14.96a5.199 5.199 0 0 0 3.979 1.85 5.13 5.13 0 0 0 3.354-1.223 5.22 5.22 0 0 0 .624-7.359C86.81 27.688 72.305 20.892 56.95 20.892m55.73 5.252C98.764 9.534 78.45 0 56.95 0 35.449 0 15.132 9.534 1.216 26.144a5.237 5.237 0 0 0 .645 7.358 5.136 5.136 0 0 0 3.333 1.223 5.143 5.143 0 0 0 3.979-1.85c11.935-14.264 29.34-22.44 47.777-22.44 18.419 0 35.837 8.176 47.773 22.423 1.014 1.24 2.487 1.867 3.978 1.867a5.155 5.155 0 0 0 3.337-1.223 5.24 5.24 0 0 0 .642-7.358M56.95 62.653c-5.743 0-10.397 4.694-10.397 10.456 0 5.761 4.654 10.435 10.397 10.435 5.737 0 10.392-4.674 10.392-10.435 0-5.762-4.655-10.456-10.392-10.456" fill="url(#a)" transform="translate(1 1)"/><path d="M57.95 42.783c-9.227 0-17.93 4.077-23.889 11.2-1.846 2.194-1.555 5.488.642 7.342a5.056 5.056 0 0 0 3.336 1.226c1.491 0 2.96-.63 3.997-1.853 3.96-4.76 9.768-7.48 15.914-7.48m6.46 1.034c2.04.671 3.966 1.66 5.71 2.934 1.37 1 2.628 2.175 3.74 3.512a5.219 5.219 0 0 0 3.995 1.853c1.188 0 2.37-.391 3.338-1.226 2.2-1.854 2.488-5.148.64-7.342-5.958-7.123-14.657-11.2-23.883-11.2m0-20.891c-15.355 0-29.866 6.796-39.803 18.662-1.846 2.211-1.574 5.506.628 7.36a5.215 5.215 0 0 0 3.35 1.222 5.195 5.195 0 0 0 3.98-1.85 42.004 42.004 0 0 1 11.362-9.518m8.49-3.662a41.222 41.222 0 0 1 11.993-1.78c12.29 0 23.884 5.457 31.841 14.96a5.199 5.199 0 0 0 3.979 1.85 5.13 5.13 0 0 0 3.354-1.223 5.22 5.22 0 0 0 .624-7.359C87.81 28.688 73.305 21.892 57.95 21.892m55.73 5.252a73.8 73.8 0 0 0-10.447-10.222M90.058 8.518A72.23 72.23 0 0 0 57.95 1C36.449 1 16.132 10.534 2.216 27.144a5.237 5.237 0 0 0 .645 7.358 5.136 5.136 0 0 0 3.333 1.223 5.143 5.143 0 0 0 3.979-1.85c11.935-14.264 29.34-22.44 47.777-22.44 18.419 0 35.837 8.176 47.773 22.423 1.014 1.24 2.487 1.867 3.978 1.867a5.155 5.155 0 0 0 3.337-1.223 5.24 5.24 0 0 0 .642-7.358M57.95 63.653c-5.743 0-10.397 4.694-10.397 10.456 0 5.761 4.654 10.435 10.397 10.435 5.737 0 10.392-4.674 10.392-10.435 0-5.762-4.655-10.456-10.392-10.456z" stroke="#2A86E1" stroke-width="2" stroke-linecap="round" stroke-linejoin="round"/><path d="M92.938 82.517c-9.192 0-16.67-7.508-16.67-16.737s7.478-16.738 16.67-16.738c9.191 0 16.67 7.509 16.67 16.738s-7.479 16.737-16.67 16.737" fill="#2A86E1"/><path d="M92.938 47.658c-9.953 0-18.05 8.13-18.05 18.122 0 9.993 8.097 18.122 18.05 18.122 9.952 0 18.048-8.13 18.048-18.122 0-9.993-8.096-18.122-18.048-18.122m0 2.769c8.445 0 15.29 6.874 15.29 15.353s-6.845 15.353-15.29 15.353c-8.446 0-15.291-6.874-15.291-15.353s6.845-15.353 15.29-15.353" fill="#FFF"/><path d="M99.612 69.61l-3.814-3.83 3.814-3.83c.79-.793.79-2.078 0-2.871a2.017 2.017 0 0 0-2.86 0l-3.815 3.829-3.813-3.83a2.017 2.017 0 0 0-2.86 0 2.036 2.036 0 0 0 0 2.872l3.813 3.83-3.813 3.83a2.036 2.036 0 0 0 0 2.87c.79.794 2.07.795 2.86 0l3.813-3.828 3.815 3.829c.79.794 2.07.793 2.86 0s.79-2.079 0-2.872" fill="#FFF"/></g></svg>