<svg width="89" height="102" viewBox="0 0 89 102" xmlns="http://www.w3.org/2000/svg"><title>B94253C7-6406-4A06-B4AD-EA908548DB3D</title><defs><linearGradient x1="50%" y1="0%" x2="50%" y2="100%" id="a"><stop stop-color="#FFF" offset="0%"/><stop stop-color="#D6E9FF" offset="100%"/></linearGradient></defs><g fill="none" fill-rule="evenodd"><path d="M54.817 92.31H36.554c0 5.02 4.087 9.092 9.13 9.092 5.043 0 9.133-4.07 9.133-9.093" fill="#2A86E1"/><path d="M43.152.743c-1.485 0-2.692 1.202-2.692 2.68 0 .185.017.37.05.542-1.483.55-3.412 1.294-5.897 2.284C18.08 12.817 10.69 21.107 10.98 48.93c.16 15.475-4.508 25.314-8.682 30.997-1.965 2.677-.125 6.425 3.205 6.425h78.371c3.394 0 5.203-3.87 3.12-6.538-4.458-5.7-9.4-15.512-9.23-30.885.312-27.82-7.622-36.11-25.37-42.68-2.81-1.042-4.96-1.813-6.584-2.377.028-.144.04-.294.04-.45 0-1.478-1.208-2.68-2.698-2.68" fill="url(#a)" transform="translate(1 1)"/><path d="M10.073 57.582C8.853 68.33 5.17 75.606 1.807 80.185-.16 82.86 1.682 86.61 5.01 86.61H83.382c3.395 0 5.205-3.872 3.12-6.54-4.456-5.7-9.4-15.51-9.23-30.883.19-16.794-2.627-26.47-8.792-32.95m-5.358-4.384c-3.175-2.054-6.907-3.75-11.217-5.347-2.812-1.04-4.96-1.812-6.585-2.376.03-.144.04-.294.04-.45 0-1.478-1.207-2.68-2.697-2.68-1.484 0-2.692 1.202-2.692 2.68 0 .185.017.37.052.542-1.485.55-3.414 1.294-5.898 2.284-16.534 6.57-23.923 14.86-23.634 42.68" stroke="#2A86E1" stroke-width="2" stroke-linecap="round" stroke-linejoin="round"/><path d="M34.716 39.686c0 2.394-1.2 4.333-2.678 4.333s-2.678-1.94-2.678-4.334c0-2.393 1.2-4.333 2.678-4.333 1.48 0 2.678 1.94 2.678 4.333M61.83 39.686c0 2.394-1.198 4.333-2.677 4.333-1.48 0-2.678-1.94-2.678-4.334 0-2.393 1.2-4.333 2.678-4.333 1.48 0 2.678 1.94 2.678 4.333" fill="#2A86E1"/><path d="M58.09 60.83c-3.432-1.658-7.61-2.634-12.122-2.634s-8.69.976-12.124 2.633" stroke="#2A86E1"/></g></svg>