<?xml version="1.0" encoding="UTF-8"?>
<svg width="89px" height="102px" viewBox="0 0 89 102" version="1.1" xmlns="http://www.w3.org/2000/svg" xmlns:xlink="http://www.w3.org/1999/xlink">
    <!-- Generator: sketchtool 42 (36781) - http://www.bohemiancoding.com/sketch -->
    <title>B94253C7-6406-4A06-B4AD-EA908548DB3D</title>
    <desc>Created with sketchtool.</desc>
    <defs>
        <linearGradient x1="50%" y1="0%" x2="50%" y2="100%" id="linearGradient-1">
            <stop stop-color="#FFFFFF" offset="0%"></stop>
            <stop stop-color="#D6E9FF" offset="100%"></stop>
        </linearGradient>
    </defs>
    <g id="Orders" stroke="none" stroke-width="1" fill="none" fill-rule="evenodd">
        <g id="Recommended_empty" transform="translate(-143.000000, -132.000000)">
            <g id="Empty_state_ill" transform="translate(144.000000, 133.000000)">
                <g id="Group-2">
                    <path d="M53.8173695,91.3087529 L35.5536407,91.3087529 C35.5536407,96.3305324 39.6411661,100.401724 44.6847593,100.401724 C49.726861,100.401724 53.8173695,96.3305324 53.8173695,91.3087529" id="Fill-1" fill="#2A86E1"></path>
                    <path d="M43.1520678,0.742721324 C41.6672542,0.742721324 40.4598644,1.94506691 40.4598644,3.42367721 C40.4598644,3.60785368 40.4770169,3.79203015 40.511322,3.96506691 C39.0265085,4.51611103 37.0979661,5.25875809 34.6130847,6.24870662 C18.0795254,12.8181625 10.6905085,21.1083316 10.9791186,48.9293757 C11.1402034,64.4053978 6.47247458,74.243986 2.29844068,79.927464 C0.332610169,82.603964 2.17315254,86.3521037 5.50298305,86.3521037 L43.1349153,86.3521037 L43.2505085,86.3521037 L83.8729492,86.3521037 C87.2669153,86.3521037 89.0761356,82.4806846 86.9917288,79.813839 C82.5350508,74.1125375 77.5928814,64.3021699 77.7629153,48.9293757 C78.0746441,21.1090743 70.1412203,12.8189051 52.3943051,6.24870662 C49.5820339,5.20751544 47.4334915,4.43664779 45.8092203,3.87297868 C45.8383051,3.72890515 45.8502373,3.57889044 45.8502373,3.42367721 C45.8502373,1.94506691 44.6421017,0.742721324 43.1520678,0.742721324" id="Fill-5" fill="url(#linearGradient-1)"></path>
                    <path d="M9.07346092,56.5816056 C7.85309138,67.3298426 4.1697767,74.6058534 0.806915254,79.1848169 C-1.15891525,81.8613169 0.681627119,85.6094566 4.01145763,85.6094566 L41.6433898,85.6094566 L82.3814237,85.6094566 C85.7753898,85.6094566 87.5846102,81.7380375 85.5002034,79.0711919 C81.0435254,73.3698904 76.1013559,63.5595228 76.2713898,48.1867287 C76.4595603,31.3934125 73.6433986,21.7163997 67.4779486,15.2383458 M62.1203089,10.8533609 C58.9451339,8.79929677 55.2134492,7.10194 50.9027797,5.50605956 C48.0905085,4.46486838 45.9419661,3.69400074 44.3176949,3.13033162 C44.3467797,2.98625809 44.3587119,2.83624338 44.3587119,2.68103015 C44.3587119,1.20241985 43.1505763,7.42647057e-05 41.6605424,7.42647057e-05 C40.1757288,7.42647057e-05 38.968339,1.20241985 38.968339,2.68103015 C38.968339,2.86520662 38.9854915,3.04938309 39.0197966,3.22241985 C37.5349831,3.77346397 35.6064407,4.51611103 33.1215593,5.50605956 C16.588,12.0755154 9.19898305,20.3656846 9.48759322,48.1867287" id="Stroke-7" stroke="#2A86E1" stroke-width="2" stroke-linecap="round" stroke-linejoin="round"></path>
                    <path d="M33.7164542,38.6861191 C33.7164542,41.0796706 32.5172678,43.0194647 31.0384203,43.0194647 C29.5595729,43.0194647 28.3603864,41.0796706 28.3603864,38.6861191 C28.3603864,36.2925676 29.5595729,34.3527735 31.0384203,34.3527735 C32.5172678,34.3527735 33.7164542,36.2925676 33.7164542,38.6861191" id="Fill-9" fill="#2A86E1"></path>
                    <path d="M60.8313424,38.6861191 C60.8313424,41.0796706 59.6321559,43.0194647 58.1533085,43.0194647 C56.674461,43.0194647 55.4752746,41.0796706 55.4752746,38.6861191 C55.4752746,36.2925676 56.674461,34.3527735 58.1533085,34.3527735 C59.6321559,34.3527735 60.8313424,36.2925676 60.8313424,38.6861191" id="Fill-11" fill="#2A86E1"></path>
                    <path d="M57.0913424,59.8292809 C53.6578508,58.1716926 49.4793424,57.1958544 44.9682237,57.1958544 C40.4563593,57.1958544 36.2785966,58.1716926 32.8443593,59.8292809" id="Stroke-13" stroke="#2A86E1"></path>
                </g>
            </g>
        </g>
    </g>
</svg>