<svg width="103" height="103" viewBox="0 0 103 103" xmlns="http://www.w3.org/2000/svg"><defs><linearGradient x1="50%" y1="0%" x2="50%" y2="100%" id="a"><stop stop-color="#FFF" offset="0%"/><stop stop-color="#D6E9FF" offset="100%"/></linearGradient></defs><g fill="none" fill-rule="evenodd"><path d="M96.793 48.397c0 26.73-21.668 48.397-48.397 48.397C21.668 96.794 0 75.126 0 48.397S21.668 0 48.396 0c26.73 0 48.397 21.668 48.397 48.397" fill="url(#a)" transform="translate(1 1)"/><path d="M80.686 12.474C91.152 21.352 97.793 34.6 97.793 49.397c0 26.73-21.668 48.397-48.397 48.397-19.24 0-35.856-11.226-43.657-27.486m-3.396-9.54A48.523 48.523 0 0 1 1 49.398C1 22.668 22.668 1 49.396 1c7.22 0 14.073 1.58 20.227 4.417" stroke="#2A86E1" stroke-width="2" stroke-linecap="round" stroke-linejoin="round"/><path d="M35.633 38.678c0 3.04-1.517 5.505-3.388 5.505-1.87 0-3.388-2.464-3.388-5.505 0-3.04 1.517-5.505 3.388-5.505s3.388 2.465 3.388 5.505m34.303 0c0 3.04-1.516 5.505-3.387 5.505-1.873 0-3.39-2.464-3.39-5.505 0-3.04 1.517-5.505 3.39-5.505 1.87 0 3.386 2.465 3.386 5.505" fill="#2A86E1"/><path d="M65.205 65.54c-4.344-2.107-9.63-3.347-15.337-3.347-5.708 0-10.994 1.24-15.338 3.346" stroke="#2A86E1"/><path d="M85.273 101.614c-8.773 0-16.052-7.14-16.225-15.915-.175-8.95 6.963-16.374 15.912-16.55l.325-.004c8.774 0 16.052 7.14 16.226 15.916.175 8.95-6.963 16.373-15.912 16.55l-.325.002z" fill="#2A86E1"/><path d="M85.285 67.804c-.117 0-.233 0-.35.003a17.463 17.463 0 0 0-12.326 5.39 17.464 17.464 0 0 0-4.904 12.53c.186 9.5 8.067 17.23 17.568 17.23l.35-.003c9.69-.19 17.42-8.23 17.23-17.92-.188-9.5-8.07-17.23-17.57-17.23m0 2.685c8.09 0 14.724 6.475 14.883 14.6.16 8.22-6.374 15.017-14.596 15.178-.1.003-.198.003-.296.003-8.088 0-14.723-6.474-14.883-14.597-.16-8.223 6.375-15.02 14.597-15.18.1-.003.2-.004.298-.004" fill="#FFF"/><path d="M91.85 88.966l-3.786-3.64 3.64-3.786a1.97 1.97 0 0 0-2.84-2.73l-3.64 3.785-3.786-3.64a1.97 1.97 0 1 0-2.73 2.84l3.787 3.64-3.642 3.786a1.97 1.97 0 0 0 2.84 2.732l3.64-3.786 3.787 3.64a1.97 1.97 0 0 0 2.73-2.84" fill="#FFF"/></g></svg>