<svg width="103" height="103" viewBox="0 0 103 103" xmlns="http://www.w3.org/2000/svg"><title>2E1F0CB3-AB10-487D-959F-FA2A9AED74FD</title><defs><linearGradient x1="50%" y1="0%" x2="50%" y2="100%" id="a"><stop stop-color="#FFF" offset="0%"/><stop stop-color="#D6E9FF" offset="100%"/></linearGradient></defs><g fill="none" fill-rule="evenodd"><path d="M96.793 48.397c0 26.73-21.668 48.397-48.397 48.397C21.668 96.794 0 75.126 0 48.397S21.668 0 48.396 0c26.73 0 48.397 21.668 48.397 48.397" fill="url(#a)" transform="translate(1 1)"/><path d="M80.686 12.474C91.152 21.352 97.793 34.6 97.793 49.397c0 26.73-21.668 48.397-48.397 48.397-19.239 0-35.856-11.226-43.657-27.486m-3.395-9.54A48.523 48.523 0 0 1 1 49.398C1 22.667 22.668 1 49.396 1c7.221 0 14.073 1.581 20.227 4.417" stroke="#2A86E1" stroke-width="2" stroke-linecap="round" stroke-linejoin="round"/><path d="M35.633 38.678c0 3.04-1.517 5.505-3.388 5.505-1.87 0-3.388-2.464-3.388-5.505 0-3.04 1.517-5.505 3.388-5.505s3.388 2.465 3.388 5.505M69.936 38.678c0 3.04-1.516 5.505-3.387 5.505-1.872 0-3.388-2.464-3.388-5.505 0-3.04 1.516-5.505 3.388-5.505 1.87 0 3.387 2.465 3.387 5.505" fill="#2A86E1"/><path d="M65.205 65.539c-4.344-2.106-9.63-3.346-15.337-3.346-5.708 0-10.994 1.24-15.338 3.346" stroke="#2A86E1"/><path d="M85.273 101.614c-8.773 0-16.052-7.14-16.225-15.915-.175-8.95 6.963-16.373 15.912-16.549l.325-.004c8.774 0 16.052 7.14 16.226 15.916.174 8.95-6.964 16.373-15.913 16.549l-.325.003z" fill="#2A86E1"/><path d="M85.285 67.804c-.117 0-.233 0-.35.003a17.463 17.463 0 0 0-12.326 5.39 17.464 17.464 0 0 0-4.903 12.529c.186 9.5 8.067 17.231 17.568 17.231l.35-.003c9.69-.19 17.419-8.229 17.229-17.919-.187-9.501-8.068-17.231-17.568-17.231m0 2.685c8.088 0 14.723 6.476 14.882 14.6.161 8.222-6.374 15.018-14.596 15.179-.1.003-.199.003-.297.003-8.088 0-14.723-6.475-14.883-14.598-.161-8.223 6.374-15.02 14.596-15.18.1-.003.199-.004.298-.004" fill="#FFF"/><path d="M91.85 88.966l-3.786-3.64 3.64-3.786a1.97 1.97 0 0 0-2.84-2.731l-3.64 3.786-3.786-3.64a1.969 1.969 0 1 0-2.73 2.84l3.787 3.64-3.642 3.786a1.97 1.97 0 0 0 2.84 2.731l3.64-3.786 3.787 3.64a1.97 1.97 0 0 0 2.73-2.84" fill="#FFF"/></g></svg>