<svg width="74" height="95" viewBox="0 0 74 95" xmlns="http://www.w3.org/2000/svg"><defs><linearGradient x1="50%" y1="0%" x2="50%" y2="100%" id="a"><stop stop-color="#FFF" offset="0%"/><stop stop-color="#D6E9FF" offset="100%"/></linearGradient></defs><g fill="none" fill-rule="evenodd"><path fill="#D6E9FF" opacity=".3" d="M4.413 93.605h68.05V5.925H4.413"/><path stroke="#2A86E1" stroke-width="2" opacity=".3" d="M4.413 93.605h68.05V5.925H4.413z"/><path fill="url(#a)" d="M0 .132V87.41h67.505V19.554L47.76.132" transform="translate(1 1)"/><path d="M11 1.132H1V88.41h43m11 0h13.505V20.554L48.76 1.132H20" stroke="#2A86E1" stroke-width="2" stroke-linecap="round" stroke-linejoin="round"/><path fill="#FFF" d="M49.373 19.952V2.012l18.238 17.94"/><path stroke="#2A86E1" stroke-width="2" stroke-linecap="round" stroke-linejoin="round" d="M49.373 19.952V2.012l18.238 17.94z"/><path d="M24.11 38.162c0 2.306-1.17 4.174-2.61 4.174-1.443 0-2.613-1.868-2.613-4.174s1.17-4.174 2.612-4.174c1.44 0 2.61 1.868 2.61 4.174M50.553 38.162c0 2.306-1.17 4.174-2.612 4.174-1.44 0-2.61-1.868-2.61-4.174s1.17-4.174 2.61-4.174c1.444 0 2.613 1.868 2.613 4.174" fill="#2A86E1"/><path d="M46.906 58.53c-3.35-1.598-7.423-2.538-11.823-2.538s-8.474.94-11.823 2.537" stroke="#2A86E1"/></g></svg>