<?xml version="1.0" encoding="UTF-8"?>
<svg width="96px" height="80px" viewBox="0 0 96 80" version="1.1" xmlns="http://www.w3.org/2000/svg" xmlns:xlink="http://www.w3.org/1999/xlink">
    <!-- Generator: sketchtool 42 (36781) - http://www.bohemiancoding.com/sketch -->
    <title>FE4A3749-090D-4BF8-84A9-3C1025F46284</title>
    <desc>Created with sketchtool.</desc>
    <defs>
        <linearGradient x1="50%" y1="0%" x2="50%" y2="100%" id="linearGradient-1">
            <stop stop-color="#FFFFFF" offset="0%"></stop>
            <stop stop-color="#D6E9FF" offset="100%"></stop>
        </linearGradient>
    </defs>
    <g id="My-orders" stroke="none" stroke-width="1" fill="none" fill-rule="evenodd">
        <g id="Messeges_empty" transform="translate(-136.000000, -237.000000)">
            <g id="No_messages_ill" transform="translate(137.000000, 238.000000)">
                <path d="M94.4720462,39.6826093 C94.4720462,18.8711763 73.7712,2.00023814 48.2359436,2.00023814 C22.7006872,2.00023814 1.99984103,18.8711763 1.99984103,39.6826093 C1.99984103,60.4940423 22.7006872,77.3649804 48.2359436,77.3649804 C55.1560974,77.3649804 61.6963026,76.0917021 67.5902769,73.8706093 L77.8520718,78.8454443 C78.7955846,79.3034753 79.8479949,78.4596505 79.6047641,77.4403928 L77.5452513,68.8219495 C87.8769949,61.911001 94.4720462,51.4263 94.4720462,39.6826093" id="Fill-1" fill="url(#linearGradient-1)"></path>
                <path d="M5.9941978,19.1134832 C2.17854098,24.5941359 -0.000158974359,30.9310102 -0.000158974359,37.6826093 C-0.000158974359,58.4940423 20.7006872,75.3649804 46.2359436,75.3649804 C53.1560974,75.3649804 59.6963026,74.0917021 65.5902769,71.8706093 L75.8520718,76.8454443 C76.7955846,77.3034753 77.8479949,76.4596505 77.6047641,75.4403928 L75.5452513,66.8219495 C82.7008647,62.0355284 88.0640826,55.5348699 90.6853142,48.0889738 M92.4720462,37.6826093 C92.4720462,16.8711763 71.7712,0.00023814433 46.2359436,0.00023814433 C33.4564713,0.00023814433 21.887845,4.2258016 13.5188937,11.0561208" id="Stroke-3" stroke="#2A86E1" stroke-width="2" stroke-linecap="round" stroke-linejoin="round"></path>
                <path d="M34.5835436,27.7828546 C34.5835436,30.6326485 33.1599282,32.9426485 31.4040564,32.9426485 C29.6481846,32.9426485 28.2245692,30.6326485 28.2245692,27.7828546 C28.2245692,24.9330608 29.6481846,22.6230608 31.4040564,22.6230608 C33.1599282,22.6230608 34.5835436,24.9330608 34.5835436,27.7828546" id="Fill-5" fill="#2A86E1"></path>
                <path d="M66.7758513,27.7828546 C66.7758513,30.6326485 65.3522359,32.9426485 63.5963641,32.9426485 C61.8404923,32.9426485 60.4168769,30.6326485 60.4168769,27.7828546 C60.4168769,24.9330608 61.8404923,22.6230608 63.5963641,22.6230608 C65.3522359,22.6230608 66.7758513,24.9330608 66.7758513,27.7828546" id="Fill-7" fill="#2A86E1"></path>
                <path d="M62.3355385,52.9570918 C58.258641,50.9836691 53.2978462,49.8215247 47.942,49.8215247 C42.5861538,49.8215247 37.625359,50.9836691 33.5484615,52.9570918" id="Stroke-9" stroke="#2A86E1"></path>
            </g>
        </g>
    </g>
</svg>