<svg width="96" height="80" viewBox="0 0 96 80" xmlns="http://www.w3.org/2000/svg"><title>FE4A3749-090D-4BF8-84A9-3C1025F46284</title><defs><linearGradient x1="50%" y1="0%" x2="50%" y2="100%" id="a"><stop stop-color="#FFF" offset="0%"/><stop stop-color="#D6E9FF" offset="100%"/></linearGradient></defs><g fill="none" fill-rule="evenodd"><path d="M94.472 39.683C94.472 18.87 73.772 2 48.236 2 22.7 2 2 18.87 2 39.683c0 20.81 20.7 37.682 46.236 37.682 6.92 0 13.46-1.273 19.354-3.494l10.262 4.975c.944.458 1.996-.385 1.753-1.405l-2.06-8.618c10.332-6.91 16.927-17.396 16.927-29.14" fill="url(#a)" transform="translate(1 1)"/><path d="M6.994 20.113C3.18 25.593 1 31.93 1 38.683c0 20.81 20.7 37.682 46.236 37.682 6.92 0 13.46-1.273 19.354-3.494l10.262 4.975c.944.458 1.996-.385 1.753-1.405l-2.06-8.618c7.156-4.786 12.52-11.287 15.14-18.733m1.787-10.407C93.472 17.87 72.772 1 47.236 1 34.456 1 22.888 5.226 14.52 12.056" stroke="#2A86E1" stroke-width="2" stroke-linecap="round" stroke-linejoin="round"/><path d="M35.584 28.783c0 2.85-1.424 5.16-3.18 5.16-1.756 0-3.18-2.31-3.18-5.16s1.424-5.16 3.18-5.16c1.756 0 3.18 2.31 3.18 5.16M67.776 28.783c0 2.85-1.424 5.16-3.18 5.16-1.756 0-3.18-2.31-3.18-5.16s1.424-5.16 3.18-5.16c1.756 0 3.18 2.31 3.18 5.16" fill="#2A86E1"/><path d="M63.336 53.957c-4.077-1.973-9.038-3.135-14.394-3.135s-10.317 1.162-14.394 3.135" stroke="#2A86E1"/></g></svg>