<svg width="199" height="172" viewBox="0 0 199 172" xmlns="http://www.w3.org/2000/svg"><g fill="none" fill-rule="evenodd"><path d="M181.256 48.633l-4.045 7.245" fill="#FFF"/><g stroke="#2A86E1" stroke-linecap="round" stroke-linejoin="round"><path d="M180.256 51.633l-4.045 7.245M162.21 47.077l.12 8.296M198.684 82.51l-8.297.12M193.606 64.602l-7.125 4.253"/></g><path d="M163.33 52.374l-.12-8.298.12 8.298zM195.127 97.556l-7.245-4.044M191.387 79.63l8.296-.12-8.296.12zM194.606 61.602l-7.125 4.253M158.276 92.08c0 24.62-11.533 46.54-29.478 60.668-1.998 1.577-4.08 3.05-6.234 4.426-11.964 7.633-26.177 12.048-41.43 12.048-16.065 0-30.993-4.92-43.346-13.33-2.155-1.46-4.236-3.038-6.223-4.71C14.713 137.032 4 115.806 4 92.08 4 68.35 14.713 47.125 31.565 32.975" fill="#FFF"/><path d="M24.38 39.84c1.022-1.11 2.076-2.19 3.16-3.24m107.186-.015c14.517 14.032 23.55 33.713 23.55 55.494 0 9.402-1.682 18.41-4.76 26.74m-9.846 18.44c-4.217 5.83-9.227 11.044-14.872 15.488-1.998 1.577-4.08 3.05-6.234 4.426-11.964 7.633-26.177 12.048-41.43 12.048-16.065 0-30.993-4.92-43.346-13.33-2.155-1.46-4.236-3.038-6.223-4.71C14.713 137.032 4 115.806 4 92.08c0-14.086 3.775-27.29 10.368-38.654" stroke="#2A86E1" stroke-width="2" stroke-linecap="round" stroke-linejoin="round"/><path d="M127.798 23.746v129.002c-13.12 10.324-29.667 16.474-47.665 16.474-18.87 0-36.165-6.78-49.568-18.04V23.746c0-9.22 7.474-16.695 16.673-16.695h63.876c9.22 0 16.684 7.476 16.684 16.696" fill="#D6E9FF"/><path d="M29.378 106.5V23.746c0-9.22 7.72-16.695 17.22-16.695h53.975m11.994 0c9.522 0 17.23 7.476 17.23 16.696v129.002m-100.42-1.566V116.5" stroke="#2A86E1" stroke-width="2" stroke-linecap="round" stroke-linejoin="round"/><path d="M122.564 24.44v132.734c-11.964 7.633-26.177 12.048-41.43 12.048-16.065 0-30.993-4.92-43.346-13.33V24.44h84.776z" fill="#FFF"/><path d="M122.564 24.44v132.734c-11.964 7.633-26.177 12.048-41.43 12.048-16.065 0-30.993-4.92-43.346-13.33V24.44h84.776z" stroke="#2A86E1"/><path d="M92.22 17.502H68.134c-1.408 0-2.55-1.142-2.55-2.55 0-1.41 1.142-2.55 2.55-2.55H92.22c1.408 0 2.55 1.14 2.55 2.55 0 1.408-1.142 2.55-2.55 2.55" fill="#4391FF"/><g opacity=".3"><path d="M67.315 36.913h-19.74c-.985 0-1.783-.798-1.783-1.782 0-.983.798-1.78 1.782-1.78h19.74c.985 0 1.782.797 1.782 1.78 0 .985-.797 1.783-1.78 1.783" fill="#4391FF"/><path d="M99.914 44.09H47.738c-1.074 0-1.946-.872-1.946-1.947v-.416c0-1.076.872-1.947 1.946-1.947h52.176c1.076 0 1.947.87 1.947 1.947v.416c0 1.075-.87 1.947-1.946 1.947M116.953 50.568H47.947c-1.19 0-2.156-.965-2.156-2.155s.966-2.156 2.157-2.156h69.006c1.19 0 2.155.965 2.155 2.156 0 1.19-.965 2.155-2.155 2.155M82.112 57.046H47.947c-1.19 0-2.156-.966-2.156-2.156 0-1.19.966-2.155 2.157-2.155h34.165c1.19 0 2.155.965 2.155 2.155s-.965 2.156-2.155 2.156" fill="#8DBDFF"/></g><path d="M129.775 108.23H48.67c-2.028 0-3.67-1.628-3.67-3.636V74.636C45 72.628 46.642 71 48.67 71h81.105v37.23z" fill="#95C0FF" opacity=".34"/><g opacity=".3"><path d="M67.315 124.676h-19.74c-.985 0-1.783-.798-1.783-1.782s.798-1.782 1.782-1.782h19.74c.985 0 1.782.798 1.782 1.782s-.797 1.782-1.78 1.782" fill="#4391FF"/><path d="M110.945 131.853H47.74c-1.077 0-1.948-.872-1.948-1.947v-.417c0-1.076.87-1.948 1.947-1.948h63.205c1.075 0 1.947.872 1.947 1.947v.416c0 1.075-.872 1.947-1.947 1.947M98.046 138.33h-50.1c-1.19 0-2.154-.965-2.154-2.155s.965-2.155 2.155-2.155h50.1c1.19 0 2.154.965 2.154 2.155s-.964 2.155-2.154 2.155M107.15 144.808H47.948c-1.19 0-2.155-.965-2.155-2.155s.965-2.155 2.155-2.155h59.204c1.19 0 2.156.965 2.156 2.155s-.965 2.155-2.155 2.155" fill="#8DBDFF"/></g><path d="M174.284 71.636v29.958c0 2.008-1.63 3.635-3.637 3.635H48.635c-2.008 0-3.635-1.628-3.635-3.636V71.636C45 69.628 46.627 68 48.635 68h122.012c2.008 0 3.637 1.628 3.637 3.636" fill="#FCFCFC"/><path d="M174.714 71.545v29.957c0 2.008-1.628 3.635-3.636 3.635H49.066c-2.008 0-3.635-1.627-3.635-3.635V71.545c0-2.008 1.628-3.637 3.636-3.637h122.012c2.008 0 3.636 1.63 3.636 3.637z" stroke="#2A86E1"/><path d="M75.276 76.906H52.158c-1.152 0-2.087-.935-2.087-2.087 0-1.155.936-2.088 2.088-2.088h23.118c1.152 0 2.086.933 2.086 2.087 0 1.15-.934 2.086-2.086 2.086M66.088 101.057H51.75c-.926 0-1.68-.753-1.68-1.68v-.814c0-.928.754-1.68 1.68-1.68H66.09c.928 0 1.68.752 1.68 1.68v.813c0 .928-.752 1.68-1.68 1.68M134.384 101.057h-11.11c-.83 0-1.502-.672-1.502-1.5v-1.174c0-.828.673-1.5 1.5-1.5h11.112c.83 0 1.5.672 1.5 1.5v1.173c0 .83-.67 1.5-1.5 1.5" fill="#4391FF"/><path d="M128.015 85.31h-75.42c-1.394 0-2.524-1.13-2.524-2.523 0-1.394 1.13-2.524 2.525-2.524h75.42c1.394 0 2.523 1.13 2.523 2.524 0 1.393-1.13 2.523-2.523 2.523M102.973 92.485H52.595c-1.394 0-2.523-1.13-2.523-2.523 0-1.394 1.13-2.525 2.523-2.525h50.378c1.394 0 2.523 1.13 2.523 2.525 0 1.393-1.13 2.523-2.523 2.523" fill="#8DBDFF"/><path d="M174.714 71.545v29.957c0 2.008-1.628 3.635-3.636 3.635H140.89v-37.23h30.188c2.008 0 3.636 1.63 3.636 3.638" fill="#D6E9FF"/><path d="M174.714 71.545v29.957c0 2.008-1.628 3.635-3.636 3.635H140.89v-37.23h30.188c2.008 0 3.636 1.63 3.636 3.638z" stroke="#2A86E1"/><path d="M168.147 87.312c0 5.723-4.64 10.364-10.363 10.364s-10.364-4.64-10.364-10.364c0-5.723 4.64-10.363 10.364-10.363 5.724 0 10.363 4.64 10.363 10.362" fill="#2A86E1"/><path stroke="#FCFCFC" d="M153.646 87.095l3.36 3.36 5.845-5.843"/><g fill="#4391FF" opacity=".4"><path d="M16.76 18.826h-1.71c-2.692 0-4.876-2.183-4.876-4.877v-1.733c0-.567-.384-1.088-.94-1.195-.752-.144-1.408.428-1.408 1.152v1.775c0 2.693-2.183 4.876-4.877 4.876H1.24c-.636 0-1.205.476-1.238 1.11-.035.678.503 1.238 1.172 1.238H2.95c2.693 0 4.876 2.183 4.876 4.877v1.71c0 .635.476 1.205 1.11 1.238.678.036 1.238-.502 1.238-1.172V26.05c0-2.693 2.184-4.876 4.877-4.876h1.776c.67 0 1.208-.56 1.172-1.237-.033-.635-.602-1.11-1.238-1.11"/></g><g fill="#4391FF" opacity=".4"><path d="M160.242 165.783h-1.044c-1.646 0-2.98-1.335-2.98-2.98v-1.06c0-.346-.235-.664-.576-.73-.458-.087-.86.262-.86.704v1.085c0 1.646-1.334 2.98-2.98 2.98h-1.044c-.39 0-.737.292-.757.68-.02.413.31.755.717.755h1.085c1.646 0 2.98 1.335 2.98 2.98v1.045c0 .39.292.737.68.757.413.02.755-.308.755-.717v-1.085c0-1.646 1.335-2.98 2.98-2.98h1.086c.408 0 .738-.343.716-.756-.02-.388-.37-.68-.758-.68"/></g><g fill="#4391FF" opacity=".4"><path d="M149.242 4.783h-1.044c-1.646 0-2.98-1.335-2.98-2.98V.742c0-.346-.235-.664-.576-.73-.458-.087-.86.262-.86.704v1.085c0 1.646-1.334 2.98-2.98 2.98h-1.044c-.39 0-.737.292-.757.68-.02.413.31.755.717.755h1.085c1.646 0 2.98 1.335 2.98 2.98v1.045c0 .39.292.737.68.757.413.02.755-.308.755-.717V9.198c0-1.646 1.335-2.98 2.98-2.98h1.086c.408 0 .738-.343.716-.756-.02-.388-.37-.68-.758-.68"/></g></g></svg>