<?xml version="1.0" encoding="UTF-8"?>
<svg width="204px" height="189px" viewBox="0 0 204 189" version="1.1" xmlns="http://www.w3.org/2000/svg" xmlns:xlink="http://www.w3.org/1999/xlink">
    <!-- Generator: sketchtool 42 (36781) - http://www.bohemiancoding.com/sketch -->
    <title>129CE16E-9471-4DD7-843F-DE9F65466DF0</title>
    <desc>Created with sketchtool.</desc>
    <defs></defs>
    <g id="-" stroke="none" stroke-width="1" fill="none" fill-rule="evenodd">
        <g id="Onboarding_3" transform="translate(-107.000000, -102.000000)">
            <g id="Onboarding_ill_3" transform="translate(108.000000, 102.000000)">
                <g id="Page-1" transform="translate(0.000000, 22.000000)">
                    <path d="M155.201571,87.5762581 C155.201571,112.356129 143.599791,134.416774 125.546702,148.637161 C123.537277,150.224258 121.443246,151.705548 119.275183,153.091613 C107.239791,160.773161 92.9411518,165.217032 77.5954974,165.217032 C61.4354974,165.217032 46.4176963,160.26529 33.9909948,151.800774 C31.8229319,150.330065 29.7289005,148.742968 27.7300524,147.060645 C10.7768586,132.819097 0,111.456774 0,87.5762581 C0,63.6957419 10.7768586,42.3334194 27.7300524,28.091871 C29.7289005,26.4095484 31.8229319,24.8224516 33.9909948,23.3517419 C36.0109948,21.9762581 38.1050262,20.6854194 40.2625131,19.5003871 C51.3354974,13.4059355 64.0583246,9.93548387 77.5954974,9.93548387 C91.1432461,9.93548387 103.876649,13.4059355 114.960209,19.5003871 C116.430262,20.3045161 117.868586,21.1615484 119.275183,22.0609032 C121.443246,23.4469677 123.537277,24.9282581 125.546702,26.5153548 C143.599791,40.7357419 155.201571,62.8069677 155.201571,87.5762581" id="Fill-1" fill="#FFFFFF"></path>
                    <path d="M128.732487,29.1648574 C144.953193,43.4000277 155.201571,64.2964816 155.201571,87.5762581 C155.201571,112.356129 143.599791,134.416774 125.546702,148.637161 C123.537277,150.224258 121.443246,151.705548 119.275183,153.091613 C107.239791,160.773161 92.9411518,165.217032 77.5954974,165.217032 C61.4354974,165.217032 46.4176963,160.26529 33.9909948,151.800774 C31.8229319,150.330065 29.7289005,148.742968 27.7300524,147.060645 C10.7768586,132.819097 0,111.456774 0,87.5762581 C0,66.1427095 8.68146319,46.7377302 22.7181129,32.6890842" id="Stroke-3" stroke="#2A86E1" stroke-width="2" stroke-linecap="round" stroke-linejoin="round"></path>
                    <path d="M125.546702,18.8020645 L125.546702,148.637161 C112.347958,159.027355 95.701466,165.217032 77.5954974,165.217032 C58.6117277,165.217032 41.2143455,158.392516 27.7300524,147.060645 L27.7300524,18.8020645 C27.7300524,9.52283871 35.2495288,2 44.5034555,2 L108.762723,2 C118.037801,2 125.546702,9.52283871 125.546702,18.8020645" id="Fill-5" fill="#D6E9FF"></path>
                    <path d="M26.2624942,65 L26.2624942,16.8020645 C26.2624942,7.52283871 34.0485329,0 43.6305073,0 L110.167738,0 C119.771614,0 127.546702,7.52283871 127.546702,16.8020645 L127.546702,146.637161 M26.2624942,145.060645 L26.2624942,78" id="Stroke-7" stroke="#2A86E1" stroke-width="2" stroke-linecap="round" stroke-linejoin="round"></path>
                    <path d="M119.275183,19.5003871 L119.275183,153.091613 C107.239791,160.773161 92.9411518,165.217032 77.5954974,165.217032 C61.4354974,165.217032 46.4176963,160.26529 33.9909948,151.800774 L33.9909948,19.5003871 L119.275183,19.5003871 Z" id="Fill-9" fill="#FFFFFF"></path>
                    <path d="M119.275183,19.5003871 L119.275183,153.091613 C107.239791,160.773161 92.9411518,165.217032 77.5954974,165.217032 C61.4354974,165.217032 46.4176963,160.26529 33.9909948,151.800774 L33.9909948,19.5003871 L119.275183,19.5003871 Z" id="Stroke-11" stroke="#2A86E1"></path>
                    <path d="M88.7486471,12.5177961 L64.5202806,12.5177961 C63.1031079,12.5177961 61.9545634,11.3687381 61.9545634,9.95093161 L61.9545634,9.95093161 C61.9545634,8.53312516 63.1031079,7.3840671 64.5202806,7.3840671 L88.7486471,7.3840671 C90.1658199,7.3840671 91.3143644,8.53312516 91.3143644,9.95093161 L91.3143644,9.95093161 C91.3143644,11.3687381 90.1658199,12.5177961 88.7486471,12.5177961" id="Fill-13" fill="#4391FF"></path>
                    <path d="M57.4504921,39.0732052 C57.4504921,43.5022632 53.8620838,47.0922761 49.4350052,47.0922761 C45.0079267,47.0922761 41.4184607,43.5022632 41.4184607,39.0732052 C41.4184607,34.6441471 45.0079267,31.0541342 49.4350052,31.0541342 C53.8620838,31.0541342 57.4504921,34.6441471 57.4504921,39.0732052" id="Fill-15" fill="#8DBDFF"></path>
                    <path d="M109.649302,36.1861703 L65.7433853,36.1861703 C64.5282126,36.1861703 63.5425372,35.2000542 63.5425372,33.9843381 L63.5425372,33.8975768 C63.5425372,32.6808026 64.5282126,31.6957445 65.7433853,31.6957445 L109.649302,31.6957445 C110.864474,31.6957445 111.85015,32.6808026 111.85015,33.8975768 L111.85015,33.9843381 C111.85015,35.2000542 110.864474,36.1861703 109.649302,36.1861703" id="Fill-17" fill="#8DBDFF"></path>
                    <path d="M86.9414346,46.1233006 L65.7874869,46.1233006 C64.5479895,46.1233006 63.5422199,45.1181394 63.5422199,43.8780877 L63.5422199,43.8780877 C63.5422199,42.6380361 64.5479895,41.6328748 65.7874869,41.6328748 L86.9414346,41.6328748 C88.1809319,41.6328748 89.185644,42.6380361 89.185644,43.8780877 L89.185644,43.8780877 C89.185644,45.1181394 88.1809319,46.1233006 86.9414346,46.1233006" id="Fill-19" fill="#8DBDFF"></path>
                    <path d="M57.4504921,71.3650168 C57.4504921,75.7940748 53.8620838,79.3840877 49.4350052,79.3840877 C45.0079267,79.3840877 41.4184607,75.7940748 41.4184607,71.3650168 C41.4184607,66.9359587 45.0079267,63.3459458 49.4350052,63.3459458 C53.8620838,63.3459458 57.4504921,66.9359587 57.4504921,71.3650168" id="Fill-21" fill="#8DBDFF"></path>
                    <path d="M109.649302,68.4779819 L65.7433853,68.4779819 C64.5282126,68.4779819 63.5425372,67.4918658 63.5425372,66.2761497 L63.5425372,66.1893884 C63.5425372,64.9726142 64.5282126,63.9875561 65.7433853,63.9875561 L109.649302,63.9875561 C110.864474,63.9875561 111.85015,64.9726142 111.85015,66.1893884 L111.85015,66.2761497 C111.85015,67.4918658 110.864474,68.4779819 109.649302,68.4779819" id="Fill-23" fill="#8DBDFF"></path>
                    <path d="M86.9414346,78.4152181 L65.7874869,78.4152181 C64.5479895,78.4152181 63.5422199,77.4100568 63.5422199,76.1700052 C63.5422199,74.9299535 64.5479895,73.9247923 65.7874869,73.9247923 L86.9414346,73.9247923 C88.1809319,73.9247923 89.185644,74.9299535 89.185644,76.1700052 C89.185644,77.4100568 88.1809319,78.4152181 86.9414346,78.4152181" id="Fill-25" fill="#8DBDFF"></path>
                    <path d="M57.4504921,103.656934 C57.4504921,108.085992 53.8620838,111.676005 49.4350052,111.676005 C45.0079267,111.676005 41.4184607,108.085992 41.4184607,103.656934 C41.4184607,99.2278761 45.0079267,95.6378632 49.4350052,95.6378632 C53.8620838,95.6378632 57.4504921,99.2278761 57.4504921,103.656934" id="Fill-27" fill="#8DBDFF"></path>
                    <path d="M109.649302,100.769899 L65.7433853,100.769899 C64.5282126,100.769899 63.5425372,99.7837832 63.5425372,98.5680671 L63.5425372,98.4813058 C63.5425372,97.2645316 64.5282126,96.2794735 65.7433853,96.2794735 L109.649302,96.2794735 C110.864474,96.2794735 111.85015,97.2645316 111.85015,98.4813058 L111.85015,98.5680671 C111.85015,99.7837832 110.864474,100.769899 109.649302,100.769899" id="Fill-29" fill="#8DBDFF"></path>
                    <path d="M86.9414346,110.70703 L65.7874869,110.70703 C64.5479895,110.70703 63.5422199,109.701868 63.5422199,108.461817 L63.5422199,108.461817 C63.5422199,107.221765 64.5479895,106.216604 65.7874869,106.216604 L86.9414346,106.216604 C88.1809319,106.216604 89.185644,107.221765 89.185644,108.461817 L89.185644,108.461817 C89.185644,109.701868 88.1809319,110.70703 86.9414346,110.70703" id="Fill-31" fill="#8DBDFF"></path>
                    <path d="M57.4504921,135.948746 C57.4504921,140.377804 53.8620838,143.967817 49.4350052,143.967817 C45.0079267,143.967817 41.4184607,140.377804 41.4184607,135.948746 C41.4184607,131.519688 45.0079267,127.929675 49.4350052,127.929675 C53.8620838,127.929675 57.4504921,131.519688 57.4504921,135.948746" id="Fill-33" fill="#8DBDFF"></path>
                    <path d="M109.649302,133.061817 L65.7433853,133.061817 C64.5282126,133.061817 63.5425372,132.075701 63.5425372,130.859985 L63.5425372,130.773223 C63.5425372,129.556449 64.5282126,128.571391 65.7433853,128.571391 L109.649302,128.571391 C110.864474,128.571391 111.85015,129.556449 111.85015,130.773223 L111.85015,130.859985 C111.85015,132.075701 110.864474,133.061817 109.649302,133.061817" id="Fill-35" fill="#8DBDFF"></path>
                    <path d="M86.9414346,142.998947 L65.7874869,142.998947 C64.5479895,142.998947 63.5422199,141.993786 63.5422199,140.753734 L63.5422199,140.753734 C63.5422199,139.513683 64.5479895,138.508521 65.7874869,138.508521 L86.9414346,138.508521 C88.1809319,138.508521 89.185644,139.513683 89.185644,140.753734 L89.185644,140.753734 C89.185644,141.993786 88.1809319,142.998947 86.9414346,142.998947" id="Fill-37" fill="#8DBDFF"></path>
                    <path d="M125.546702,49.5176774 L125.546702,111.425032 L120.882723,111.425032 L109.59822,122.725161 C108.551204,123.762065 106.77445,123.021419 106.77445,121.55071 L106.77445,111.425032 L91.5028272,111.425032 C87.367644,111.425032 84.0045026,108.070968 84.0045026,103.923355 L84.0045026,57.0193548 C84.0045026,52.8717419 87.367644,49.5176774 91.5028272,49.5176774 L125.546702,49.5176774 Z" id="Fill-39" fill="#0063FF" opacity="0.300000012"></path>
                    <path d="M172.059581,43.7757729 L91.506,43.7757729 C87.3644712,43.7757729 84.0076754,47.1340697 84.0076754,51.2774503 L84.0076754,98.1846245 C84.0076754,102.328005 87.3644712,105.686302 91.506,105.686302 L106.773393,105.686302 L106.773393,115.810921 C106.773393,117.283747 108.552262,118.02016 109.592932,116.979025 L120.880607,105.686302 L172.059581,105.686302 C176.20111,105.686302 179.557906,102.328005 179.557906,98.1846245 L179.557906,51.2774503 C179.557906,47.1340697 176.20111,43.7757729 172.059581,43.7757729" id="Fill-41" fill="#FFFFFF"></path>
                    <path d="M158.5,43.7757729 L149.5,43.7757729 L91.506,43.7757729 C87.3644712,43.7757729 84.0076754,47.1340697 84.0076754,51.2774503 L84.0076754,98.1846245 C84.0076754,102.328005 87.3644712,105.686302 91.506,105.686302 L106.773393,105.686302 L106.773393,115.810921 C106.773393,117.283747 108.552262,118.02016 109.592932,116.979025 L120.880607,105.686302 L138.5,105.686302 M145,105.686302 L172.059581,105.686302 C176.20111,105.686302 179.557906,102.328005 179.557906,98.1846245 L179.557906,51.2774503 C179.557906,47.1340697 176.20111,43.7757729 172.059581,43.7757729 L165,43.7757729" id="Stroke-43" stroke="#2A86E1" stroke-linecap="round" stroke-linejoin="round"></path>
                    <g id="Group-48" transform="translate(164.984293, 21.320258)">
                        <path d="M0.419229319,0.149716129 L0.419229319,8.50101935" id="Fill-45" fill="#FFFFFF"></path>
                        <path d="M0,0.149716129 L0,8.50101935" id="Stroke-47" stroke="#2A86E1" stroke-linecap="round" stroke-linejoin="round"></path>
                    </g>
                    <g id="Group-52" transform="translate(147.005236, 25.552516)">
                        <path d="M0.311566492,0.765932903 L4.48588063,7.99886194" id="Fill-49" fill="#FFFFFF"></path>
                        <path d="M0.311566492,0.765932903 L4.48588063,7.99886194" id="Stroke-51" stroke="#2A86E1" stroke-linecap="round" stroke-linejoin="round"></path>
                    </g>
                    <g id="Group-56" transform="translate(192.481675, 57.294452)">
                        <path d="M9.0951822,0.365138065 L0.747611518,0.365138065" id="Fill-53" fill="#FFFFFF"></path>
                        <path d="M9.0951822,0 L0.747611518,0" id="Stroke-55" stroke="#2A86E1" stroke-linecap="round" stroke-linejoin="round"></path>
                    </g>
                    <g id="Group-60" transform="translate(189.308901, 39.307355)">
                        <path d="M7.42164921,0.257427097 L0.19195288,4.43360774" id="Fill-57" fill="#FFFFFF"></path>
                        <path d="M7.42164921,0.257427097 L0.19195288,4.43360774" id="Stroke-59" stroke="#2A86E1" stroke-linecap="round" stroke-linejoin="round"></path>
                    </g>
                    <g id="Group-64" transform="translate(178.732984, 25.552516)">
                        <path d="M4.75715288,0.765932903 L0.582838743,7.99886194" id="Fill-61" fill="#FFFFFF"></path>
                        <path d="M4.75715288,0.765932903 L0.582838743,7.99886194" id="Stroke-63" stroke="#2A86E1" stroke-linecap="round" stroke-linejoin="round"></path>
                    </g>
                    <path d="M132.208048,57.5295535 C131.735305,57.5295535 131.350341,57.914689 131.350341,58.3876439 C131.350341,58.4458374 131.355629,58.505089 131.367263,58.5601084 C130.894519,58.7368052 130.280059,58.9748697 129.487923,59.291231 C124.222174,61.3936052 121.869032,64.0461729 121.961043,72.9487277 C122.011807,77.9004697 120.525891,81.0482116 119.195441,82.8670245 C118.569347,83.7240568 119.15631,84.9228439 120.217074,84.9228439 L132.20276,84.9228439 L132.239776,84.9228439 L145.178352,84.9228439 C146.25921,84.9228439 146.835598,83.6838503 146.17143,82.8310503 C144.752142,81.0069471 143.177388,77.8676697 143.231326,72.9487277 C143.330739,64.0461729 140.804153,61.3936052 135.151326,59.291231 C134.256603,58.9579406 133.571284,58.7114116 133.054121,58.5315406 C133.06364,58.4849858 133.066813,58.4373729 133.066813,58.3876439 C133.066813,57.914689 132.682907,57.5295535 132.208048,57.5295535" id="Fill-65" fill="#D6E9FF"></path>
                    <path d="M132.208048,57.5295535 C131.735305,57.5295535 131.350341,57.914689 131.350341,58.3876439 C131.350341,58.4458374 131.355629,58.505089 131.367263,58.5601084 C130.894519,58.7368052 130.280059,58.9748697 129.487923,59.291231 C124.222174,61.3936052 121.869032,64.0461729 121.961043,72.9487277 C122.011807,77.9004697 120.525891,81.0482116 119.195441,82.8670245 C118.569347,83.7240568 119.15631,84.9228439 120.217074,84.9228439 L132.20276,84.9228439 L132.239776,84.9228439 L145.178352,84.9228439 C146.25921,84.9228439 146.835598,83.6838503 146.17143,82.8310503 C144.752142,81.0069471 143.177388,77.8676697 143.231326,72.9487277 C143.330739,64.0461729 140.804153,61.3936052 135.151326,59.291231 C134.256603,58.9579406 133.571284,58.7114116 133.054121,58.5315406 C133.06364,58.4849858 133.066813,58.4373729 133.066813,58.3876439 C133.066813,57.914689 132.682907,57.5295535 132.208048,57.5295535 Z" id="Stroke-67" stroke="#2A86E1"></path>
                    <path d="M135.605032,86.5093058 L129.788279,86.5093058 C129.788279,88.1165058 131.090174,89.4189832 132.696655,89.4189832 C134.30208,89.4189832 135.605032,88.1165058 135.605032,86.5093058" id="Fill-69" fill="#D6E9FF"></path>
                    <path d="M135.605032,86.5093058 L129.788279,86.5093058 C129.788279,88.1165058 131.090174,89.4189832 132.696655,89.4189832 C134.30208,89.4189832 135.605032,88.1165058 135.605032,86.5093058 Z" id="Stroke-71" stroke="#2A86E1"></path>
                </g>
                <g id="Page-1" transform="translate(0.000000, 30.000000)" fill="#4391FF" opacity="0.400000006">
                    <path d="M16.7598872,7.82606095 L15.0510612,7.82606095 C12.3577136,7.82606095 10.1738441,5.64258282 10.1738441,2.94884385 L10.1738441,1.21732221 C10.1738441,0.649539633 9.7899746,0.129104881 9.23275724,0.0222788005 C8.48223554,-0.121721191 7.82601819,0.449583123 7.82601819,1.17388743 L7.82601819,2.94884385 C7.82601819,5.64258282 5.64254006,7.82606095 2.94919239,7.82606095 L1.2403664,7.82606095 C0.604496877,7.82606095 0.0347577798,8.30227831 0.00188821649,8.93736523 C-0.0333291727,9.61432171 0.505105578,10.1738869 1.17384467,10.1738869 L2.94919239,10.1738869 C5.64254006,10.1738869 7.82601819,12.357365 7.82601819,15.051104 L7.82601819,16.7595387 C7.82601819,17.3954082 8.30223555,17.9651473 8.93693117,17.9984082 C9.61388765,18.0340169 10.1738441,17.4955821 10.1738441,16.8260604 L10.1738441,15.051104 C10.1738441,12.357365 12.3577136,10.1738869 15.0510612,10.1738869 L16.8260177,10.1738869 C17.4951481,10.1738869 18.0335828,9.61432171 17.9983654,8.93736523 C17.9654959,8.30227831 17.3957568,7.82606095 16.7598872,7.82606095" id="Fill-1"></path>
                </g>
                <g id="Page-1-Copy" transform="translate(12.000000, 0.000000)" fill="#4391FF" opacity="0.400000006">
                    <path d="M44.0352706,6.08699342 L42.7061837,6.08699342 C40.6113577,6.08699342 38.9127926,4.38873265 38.9127926,2.29360234 L38.9127926,0.946863286 C38.9127926,0.505254616 38.6142274,0.100472031 38.1808361,0.0173850796 C37.597097,-0.0946149138 37.0867058,0.349732886 37.0867058,0.913080679 L37.0867058,2.29360234 C37.0867058,4.38873265 35.388445,6.08699342 33.293619,6.08699342 L31.9645322,6.08699342 C31.469967,6.08699342 31.0268366,6.4573847 31.0012714,6.95134119 C30.97388,7.4778629 31.3926626,7.91308027 31.912793,7.91308027 L33.293619,7.91308027 C35.388445,7.91308027 37.0867058,9.61134104 37.0867058,11.7064713 L37.0867058,13.0352539 C37.0867058,13.5298191 37.4570971,13.9729495 37.9507492,13.998819 C38.4772709,14.0265147 38.9127926,13.6077321 38.9127926,13.086993 L38.9127926,11.7064713 C38.9127926,9.61134104 40.6113577,7.91308027 42.7061837,7.91308027 L44.0867054,7.91308027 C44.6071401,7.91308027 45.0259227,7.4778629 44.9985314,6.95134119 C44.9729662,6.4573847 44.5298358,6.08699342 44.0352706,6.08699342" id="Fill-1"></path>
                    <path d="M8.37985604,3.91308552 L7.52543905,3.91308552 C6.17875891,3.91308552 5.08681908,2.82134134 5.08681908,1.47446555 L5.08681908,0.608700677 C5.08681908,0.32480806 4.89488341,0.0645894654 4.61627342,0.0111761749 C4.24101082,-0.060824158 3.91290061,0.224829337 3.91290061,0.586983185 L3.91290061,1.47446555 C3.91290061,2.82134134 2.82115643,3.91308552 1.47447629,3.91308552 L0.620059294,3.91308552 C0.302123042,3.91308552 0.0172521593,4.15119532 0.000817300726,4.46874026 C-0.0167914763,4.80722009 0.25242716,5.08700399 0.586798271,5.08700399 L1.47447629,5.08700399 C2.82115643,5.08700399 3.91290061,6.17874817 3.91290061,7.52562396 L3.91290061,8.37984531 C3.91290061,8.69778156 4.1510104,8.98265244 4.4683597,8.99928295 C4.80683952,9.01708738 5.08681908,8.74786875 5.08681908,8.41310633 L5.08681908,7.52562396 C5.08681908,6.17874817 6.17875891,5.08700399 7.52543905,5.08700399 L8.41292141,5.08700399 C8.74748818,5.08700399 9.01670682,4.80722009 8.99909804,4.46874026 C8.98266318,4.15119532 8.6977923,3.91308552 8.37985604,3.91308552" id="Fill-1-Copy"></path>
                </g>
            </g>
        </g>
    </g>
</svg>