<svg width="194" height="181" viewBox="0 0 194 181" xmlns="http://www.w3.org/2000/svg"><g fill="none" fill-rule="evenodd"><path d="M157.083 40.387v-8.293 8.293z" fill="#FFF"/><path d="M157.083 32.094v8.293" stroke="#2A86E1" stroke-linecap="round" stroke-linejoin="round"/><path d="M184.726 68.03h8.293-8.294z" fill="#FFF"/><path d="M193.02 68.03h-8.294" stroke="#2A86E1" stroke-linecap="round" stroke-linejoin="round"/><path d="M188.204 50.062l-7.182 4.147" fill="#FFF"/><path d="M188.204 50.062l-7.182 4.147" stroke="#2A86E1" stroke-linecap="round" stroke-linejoin="round"/><path d="M175.05 36.91l-4.146 7.18" fill="#FFF"/><path d="M175.05 36.91l-4.146 7.18" stroke="#2A86E1" stroke-linecap="round" stroke-linejoin="round"/><g><path d="M14.96 127.633c-6.927-11.565-10.91-25.097-10.91-39.56 0-23.712 10.707-44.925 27.548-59.066 1.986-1.67 4.066-3.247 6.22-4.707 2.007-1.366 4.087-2.647 6.23-3.824 11-6.052 23.64-9.498 37.088-9.498 13.458 0 26.108 3.446 37.118 9.498 1.46.798 2.89 1.65 4.287 2.542 2.155 1.377 4.235 2.848 6.23 4.423 17.936 14.122 29.46 36.038 29.46 60.634 0 24.605-11.524 46.51-29.46 60.632-1.995 1.575-4.075 3.046-6.23 4.423-11.955 7.626-26.16 12.04-41.404 12.04-16.054 0-30.973-4.918-43.318-13.323-2.154-1.46-4.234-3.036-6.22-4.707-4.46-3.744-8.488-7.984-12.002-12.635" stroke="#2A86E1" stroke-width="2" stroke-linecap="round" stroke-linejoin="round"/><path d="M128.775 19.785v128.923c-13.11 10.318-29.648 16.464-47.635 16.464-18.86 0-36.142-6.777-49.538-18.03V19.786c0-9.214 7.47-16.684 16.663-16.684h63.837c9.214 0 16.673 7.47 16.673 16.685" fill="#D6E9FF"/><path d="M31.602 36.5V19.785c0-9.214 7.47-16.684 16.663-16.684h63.837c9.214 0 16.673 7.47 16.673 16.685V120.5m0 7v21.208c-13.11 10.318-29.648 16.464-47.635 16.464-18.86 0-36.142-6.777-49.538-18.03V43.5" stroke="#2A86E1" stroke-width="2" stroke-linecap="round" stroke-linejoin="round"/><path d="M122.54 20.476V153.13c-11.955 7.626-26.16 12.04-41.404 12.04-16.054 0-30.973-4.918-43.318-13.323V20.477h84.723z" fill="#FFF"/><path d="M122.54 20.476V153.13c-11.955 7.626-26.16 12.04-41.404 12.04-16.054 0-30.973-4.918-43.318-13.323V20.477h84.723z" stroke="#2A86E1"/><path d="M92.215 13.542h-24.07c-1.406 0-2.547-1.14-2.547-2.55 0-1.406 1.14-2.547 2.548-2.547h24.07c1.407 0 2.548 1.14 2.548 2.548 0 1.408-1.14 2.55-2.55 2.55" fill="#4391FF"/><path d="M114.223 32.534H47.03c-1.175 0-2.127-.95-2.127-2.126v-.054c0-1.174.952-2.127 2.126-2.127h67.193c1.174 0 2.126.953 2.126 2.127v.054c0 1.175-.953 2.126-2.127 2.126M114.223 41.047H47.03c-1.175 0-2.127-.952-2.127-2.127v-.053c0-1.175.952-2.128 2.126-2.128h67.193c1.174 0 2.126.952 2.126 2.127v.053c0 1.175-.953 2.127-2.127 2.127M114.223 123.788H47.03c-1.175 0-2.127-.952-2.127-2.127v-.052c0-1.175.952-2.128 2.126-2.128h67.193c1.174 0 2.126.953 2.126 2.128v.053c0 1.176-.953 2.128-2.127 2.128M114.223 133.82H47.03c-1.175 0-2.127-.952-2.127-2.126v-.054c0-1.174.952-2.127 2.126-2.127h67.193c1.174 0 2.126.953 2.126 2.127v.054c0 1.174-.953 2.126-2.127 2.126M101.816 143.853H47.03c-1.175 0-2.127-.952-2.127-2.126v-.054c0-1.175.952-2.128 2.127-2.128h54.786c1.174 0 2.126.953 2.126 2.128v.054c0 1.174-.952 2.126-2.126 2.126M105.666 49.56h-58.77c-1.1 0-1.993-.892-1.993-1.994v-.32c0-1.1.892-1.994 1.993-1.994h58.77c1.1 0 1.993.893 1.993 1.993v.32c0 1.103-.893 1.995-1.994 1.995" fill="#8DBDFF"/><path d="M128.775 59.71v53.498H68.333c-2.942 0-5.317-2.375-5.317-5.306V65.026c0-2.932 2.375-5.317 5.317-5.317h60.442z" fill="#2A85E0" opacity=".3"/><path d="M166.602 109.123h-98.27c-2.937 0-5.315-2.38-5.315-5.314V60.937c0-2.935 2.378-5.314 5.314-5.314h98.272c2.935 0 5.314 2.38 5.314 5.314v42.87c0 2.936-2.38 5.315-5.314 5.315" fill="#FCFCFC"/><path d="M166.602 109.123h-98.27c-2.937 0-5.315-2.38-5.315-5.314V60.937c0-2.935 2.378-5.314 5.314-5.314h98.272c2.935 0 5.314 2.38 5.314 5.314v42.87c0 2.936-2.38 5.315-5.314 5.315z" stroke="#2A86E1"/><path d="M91.707 78.08H77.744c-4.218 0-7.638-3.42-7.638-7.638 0-4.22 3.42-7.64 7.638-7.64h13.963c4.218 0 7.638 3.42 7.638 7.64 0 4.218-3.42 7.638-7.638 7.638" fill="#FCFCFC"/><path d="M91.707 78.08H77.744c-4.218 0-7.638-3.42-7.638-7.638 0-4.22 3.42-7.64 7.638-7.64h13.963c4.218 0 7.638 3.42 7.638 7.64 0 4.218-3.42 7.638-7.638 7.638z" stroke="#2A86E1"/><path d="M97.454 70.472c0 3.27-2.65 5.92-5.92 5.92s-5.92-2.65-5.92-5.92 2.65-5.92 5.92-5.92 5.92 2.65 5.92 5.92" fill="#2A86E1"/><g fill="#2A86E1"><path d="M112.457 71.564h3.253l-1.626-3.783-1.627 3.784zm4.69 3.34l-.895-2.08h-4.324l-.896 2.08h-1.64l4.023-8.887h1.324l4.02 8.888h-1.613zM123.552 68.752h1.55l-2.698 6.153h-1.373l-2.672-6.153h1.664l1.74 4.35M129.08 73.45c.264-.283.397-.646.397-1.09v-.266h-.227c-.563 0-1 .024-1.31.075-.312.05-.535.138-.67.264-.134.125-.2.298-.2.516 0 .27.09.49.277.662.184.172.42.258.705.258.42 0 .763-.14 1.028-.42m1.267-4.23c.42.42.63 1.067.63 1.94v3.745h-1.5v-.946c-.143.328-.368.584-.675.77-.307.184-.662.275-1.064.275-.413 0-.786-.084-1.123-.25-.336-.17-.6-.4-.795-.694-.193-.294-.29-.62-.29-.983 0-.454.116-.81.347-1.07.23-.262.607-.45 1.13-.57.52-.116 1.238-.175 2.154-.175h.317v-.29c0-.42-.09-.723-.27-.91-.182-.183-.483-.275-.902-.275-.33 0-.67.055-1.028.17-.358.113-.708.27-1.053.473l-.44-1.085c.343-.218.76-.4 1.248-.542.487-.144.95-.214 1.386-.214.865 0 1.51.21 1.93.63M132.58 74.905h1.575V68.74h-1.576v6.165zm-.09-7.476h1.74v-1.55h-1.74v1.55zM135.78 74.905h1.577v-8.89h-1.576M142.292 73.45c.265-.283.398-.646.398-1.09v-.266h-.227c-.563 0-1 .024-1.31.075-.312.05-.535.138-.67.264-.134.125-.2.298-.2.516 0 .27.09.49.277.662.184.172.42.258.705.258.42 0 .763-.14 1.027-.42m1.268-4.23c.42.42.63 1.067.63 1.94v3.745h-1.5v-.946c-.143.328-.368.584-.675.77-.307.184-.662.275-1.064.275-.412 0-.785-.084-1.122-.25-.336-.17-.6-.4-.795-.694-.193-.294-.29-.62-.29-.983 0-.454.116-.81.347-1.07.23-.262.607-.45 1.13-.57.52-.116 1.238-.175 2.154-.175h.316v-.29c0-.42-.09-.723-.27-.91-.182-.183-.483-.275-.902-.275-.33 0-.67.055-1.028.17-.358.113-.71.27-1.053.473l-.44-1.085c.343-.218.76-.4 1.248-.542.487-.144.95-.214 1.386-.214.866 0 1.51.21 1.93.63M150.078 73.253c.277-.353.416-.85.416-1.488 0-.63-.137-1.113-.41-1.45-.274-.335-.662-.503-1.166-.503-.504 0-.893.17-1.166.51-.275.34-.41.83-.41 1.47 0 .638.135 1.13.41 1.475.273.344.662.516 1.166.516.495 0 .88-.177 1.16-.53m.68-4.273c.41.26.734.63.964 1.11.23.478.348 1.038.348 1.675 0 .64-.117 1.204-.348 1.696-.23.493-.554.873-.97 1.142-.416.27-.89.404-1.418.404-.447 0-.844-.097-1.193-.29-.347-.194-.614-.463-.798-.807v.995h-1.55v-8.89h1.575v3.62c.185-.337.45-.595.794-.776.346-.18.737-.27 1.174-.27.538 0 1.013.13 1.424.39M153.37 74.905h1.576v-8.89h-1.576M158.254 70.1c-.256.27-.414.657-.473 1.16h2.85c-.016-.512-.142-.9-.378-1.165-.235-.265-.563-.397-.983-.397-.42 0-.76.134-1.016.403zm3.726 2.006h-4.2c.053.57.224.996.518 1.273.294.277.715.416 1.26.416.683 0 1.304-.218 1.868-.655l.453 1.084c-.287.235-.646.424-1.08.567-.432.145-.867.216-1.303.216-1.01 0-1.806-.286-2.39-.857-.584-.572-.876-1.355-.876-2.347 0-.63.127-1.19.38-1.677.25-.486.606-.865 1.064-1.134.458-.27.977-.403 1.557-.403.85 0 1.52.27 2.012.818.493.546.738 1.298.738 2.257v.44z"/></g><path d="M162.763 84.126h-52.18c-.388 0-.7-.313-.7-.7 0-.387.312-.7.7-.7h52.18c.387 0 .7.313.7.7 0 .387-.313.7-.7.7M162.763 89.38h-52.18c-.388 0-.7-.314-.7-.702 0-.386.312-.7.7-.7h52.18c.387 0 .7.314.7.7 0 .388-.313.7-.7.7M162.763 94.632h-52.18c-.388 0-.7-.313-.7-.7 0-.387.312-.7.7-.7h52.18c.387 0 .7.313.7.7 0 .387-.313.7-.7.7M142.1 99.886h-31.518c-.387 0-.7-.314-.7-.7 0-.388.313-.7.7-.7h31.52c.386 0 .7.312.7.7 0 .386-.314.7-.7.7" fill="#8DBDFF"/></g><path d="M16.76 13.826h-1.71c-2.693 0-4.876-2.183-4.876-4.877V7.216c0-.567-.384-1.088-.94-1.195-.752-.144-1.408.428-1.408 1.152V8.95c0 2.693-2.184 4.876-4.877 4.876H1.24c-.636 0-1.205.476-1.238 1.11-.036.678.503 1.238 1.172 1.238H2.95c2.692 0 4.876 2.183 4.876 4.877v1.71c0 .635.476 1.205 1.11 1.238.678.036 1.238-.502 1.238-1.172V21.05c0-2.693 2.183-4.876 4.877-4.876h1.776c.67 0 1.207-.56 1.172-1.237-.033-.635-.602-1.11-1.238-1.11M156.173 5.217h-1.14c-1.795 0-3.25-1.455-3.25-3.25V.81c0-.38-.256-.726-.628-.797-.5-.096-.938.285-.938.768v1.183c0 1.796-1.455 3.25-3.25 3.25h-1.14c-.424 0-.804.32-.826.742-.022.452.337.825.782.825h1.184c1.796 0 3.25 1.455 3.25 3.25v1.14c0 .424.32.804.742.826.45.023.824-.336.824-.783v-1.183c0-1.796 1.456-3.25 3.252-3.25h1.183c.446 0 .805-.374.782-.826-.023-.423-.403-.74-.827-.74M53.173 174.217h-1.14c-1.795 0-3.25-1.455-3.25-3.25v-1.155c0-.38-.256-.726-.628-.797-.5-.096-.938.285-.938.768v1.183c0 1.796-1.455 3.25-3.25 3.25h-1.14c-.424 0-.804.32-.826.742-.022.452.337.825.782.825h1.184c1.796 0 3.25 1.455 3.25 3.25v1.14c0 .424.32.804.742.826.45.023.824-.336.824-.783v-1.183c0-1.796 1.456-3.25 3.252-3.25h1.183c.446 0 .805-.374.782-.826-.023-.423-.403-.74-.827-.74" fill="#4391FF" opacity=".4"/></g></svg>