<svg width="204" height="189" viewBox="0 0 204 189" xmlns="http://www.w3.org/2000/svg"><g fill="none" fill-rule="evenodd"><path d="M156.202 109.576c0 24.78-11.602 46.84-29.655 61.06-2.01 1.588-4.104 3.07-6.272 4.456-12.035 7.68-26.334 12.125-41.68 12.125-16.16 0-31.177-4.952-43.604-13.416-2.167-1.47-4.26-3.057-6.26-4.74C11.777 154.82 1 133.458 1 109.577c0-23.88 10.777-45.243 27.73-59.484 2-1.682 4.093-3.27 6.26-4.74 2.02-1.376 4.115-2.667 6.273-3.852 11.072-6.094 23.795-9.565 37.332-9.565 13.548 0 26.282 3.47 37.365 9.565 1.47.805 2.91 1.662 4.315 2.56 2.168 1.387 4.262 2.868 6.272 4.455 18.053 14.22 29.655 36.292 29.655 61.06" fill="#FFF"/><path d="M129.732 51.165c16.22 14.235 26.47 35.13 26.47 58.41 0 24.78-11.602 46.842-29.655 61.062-2.01 1.587-4.104 3.07-6.272 4.455-12.035 7.68-26.334 12.125-41.68 12.125-16.16 0-31.177-4.952-43.604-13.416-2.167-1.47-4.26-3.057-6.26-4.74C11.777 154.82 1 133.458 1 109.577 1 88.143 9.68 68.738 23.718 54.69" stroke="#2A86E1" stroke-width="2" stroke-linecap="round" stroke-linejoin="round"/><path d="M126.547 40.802v129.835c-13.2 10.39-29.846 16.58-47.952 16.58-18.983 0-36.38-6.824-49.865-18.156V40.803C28.73 31.522 36.25 24 45.503 24h64.26c9.275 0 16.784 7.523 16.784 16.802" fill="#D6E9FF"/><path d="M27.262 87V38.802c0-9.28 7.787-16.802 17.37-16.802h66.536c9.604 0 17.38 7.523 17.38 16.802v129.835M27.26 167.06V100" stroke="#2A86E1" stroke-width="2" stroke-linecap="round" stroke-linejoin="round"/><path d="M120.275 41.5v133.592c-12.035 7.68-26.334 12.125-41.68 12.125-16.16 0-31.177-4.952-43.604-13.416V41.5h85.285z" fill="#FFF"/><path d="M120.275 41.5v133.592c-12.035 7.68-26.334 12.125-41.68 12.125-16.16 0-31.177-4.952-43.604-13.416V41.5h85.285z" stroke="#2A86E1"/><path d="M89.75 34.518H65.52c-1.417 0-2.565-1.15-2.565-2.567 0-1.417 1.148-2.566 2.565-2.566h24.23c1.416 0 2.564 1.15 2.564 2.567 0 1.42-1.148 2.568-2.565 2.568" fill="#4391FF"/><path d="M58.45 61.073c0 4.43-3.588 8.02-8.015 8.02-4.427 0-8.017-3.59-8.017-8.02s3.59-8.02 8.017-8.02 8.015 3.59 8.015 8.02M110.65 58.186H66.742c-1.215 0-2.2-.986-2.2-2.202v-.086c0-1.217.985-2.202 2.2-2.202h43.906c1.214 0 2.2.985 2.2 2.202v.086c0 1.216-.986 2.202-2.2 2.202M87.94 68.123H66.788c-1.24 0-2.245-1.005-2.245-2.245 0-1.24 1.006-2.245 2.245-2.245H87.94c1.24 0 2.246 1.005 2.246 2.245 0 1.24-1.005 2.245-2.245 2.245M58.45 93.365c0 4.43-3.588 8.02-8.015 8.02-4.427 0-8.017-3.59-8.017-8.02s3.59-8.02 8.017-8.02 8.015 3.59 8.015 8.02M110.65 90.478H66.742c-1.215 0-2.2-.986-2.2-2.202v-.087c0-1.217.985-2.202 2.2-2.202h43.906c1.214 0 2.2.985 2.2 2.2v.088c0 1.216-.986 2.202-2.2 2.202M87.94 100.415H66.788c-1.24 0-2.245-1.005-2.245-2.245 0-1.24 1.006-2.245 2.245-2.245H87.94c1.24 0 2.246 1.005 2.246 2.245 0 1.24-1.005 2.245-2.245 2.245M58.45 125.657c0 4.43-3.588 8.02-8.015 8.02-4.427 0-8.017-3.59-8.017-8.02s3.59-8.02 8.017-8.02 8.015 3.59 8.015 8.02M110.65 122.77H66.742c-1.215 0-2.2-.986-2.2-2.202v-.087c0-1.215.985-2.2 2.2-2.2h43.906c1.214 0 2.2.985 2.2 2.2v.088c0 1.216-.986 2.202-2.2 2.202M87.94 132.707H66.788c-1.24 0-2.245-1.005-2.245-2.245 0-1.24 1.006-2.245 2.245-2.245H87.94c1.24 0 2.246 1.005 2.246 2.245 0 1.24-1.005 2.245-2.245 2.245M58.45 157.95c0 4.428-3.588 8.018-8.015 8.018-4.427 0-8.017-3.59-8.017-8.02 0-4.428 3.59-8.018 8.017-8.018s8.015 3.59 8.015 8.02M110.65 155.062H66.742c-1.215 0-2.2-.986-2.2-2.202v-.087c0-1.217.985-2.202 2.2-2.202h43.906c1.214 0 2.2.986 2.2 2.203v.087c0 1.216-.986 2.202-2.2 2.202M87.94 165H66.788c-1.24 0-2.245-1.006-2.245-2.246s1.006-2.245 2.245-2.245H87.94c1.24 0 2.246 1.004 2.246 2.244 0 1.24-1.005 2.245-2.245 2.245" fill="#8DBDFF"/><path d="M126.547 71.518v61.907h-4.664l-11.285 11.3c-1.047 1.037-2.824.296-2.824-1.174v-10.125h-15.27c-4.136 0-7.5-3.354-7.5-7.502V79.02c0-4.148 3.364-7.502 7.5-7.502h34.043z" fill="#0063FF" opacity=".3"/><path d="M173.06 65.776H92.506c-4.142 0-7.498 3.358-7.498 7.5v46.91c0 4.142 3.356 7.5 7.498 7.5h15.267v10.125c0 1.474 1.78 2.21 2.82 1.17l11.288-11.294h51.18c4.14 0 7.498-3.358 7.498-7.5v-46.91c0-4.142-3.357-7.5-7.498-7.5" fill="#FFF"/><path d="M159.5 65.776H92.506c-4.142 0-7.498 3.358-7.498 7.5v46.91c0 4.142 3.356 7.5 7.498 7.5h15.267v10.125c0 1.474 1.78 2.21 2.82 1.17l11.288-11.294h17.62m6.5 0h27.06c4.14 0 7.498-3.358 7.498-7.5v-46.91c0-4.142-3.357-7.5-7.498-7.5H166" stroke="#2A86E1" stroke-linecap="round" stroke-linejoin="round"/><path d="M166.404 43.47v8.35" fill="#FFF"/><path d="M165.984 43.47v8.35" stroke="#2A86E1" stroke-linecap="round" stroke-linejoin="round"/><path d="M148.317 48.318l4.174 7.233" fill="#FFF"/><path d="M148.317 48.318l4.174 7.233" stroke="#2A86E1" stroke-linecap="round" stroke-linejoin="round"/><path d="M202.577 79.66h-8.348" fill="#FFF"/><path d="M202.577 79.294h-8.348" stroke="#2A86E1" stroke-linecap="round" stroke-linejoin="round"/><path d="M197.73 61.565l-7.23 4.176" fill="#FFF"/><path d="M197.73 61.565l-7.23 4.176" stroke="#2A86E1" stroke-linecap="round" stroke-linejoin="round"/><path d="M184.49 48.318l-4.174 7.233" fill="#FFF"/><path d="M184.49 48.318l-4.174 7.233" stroke="#2A86E1" stroke-linecap="round" stroke-linejoin="round"/><path d="M133.208 79.53c-.473 0-.858.385-.858.858 0 .058.006.117.017.172-.472.177-1.087.415-1.88.73-5.265 2.104-7.618 4.756-7.526 13.66.052 4.95-1.434 8.098-2.765 9.917-.626.857-.04 2.056 1.022 2.056H146.178c1.08 0 1.658-1.24.993-2.092-1.418-1.823-2.993-4.962-2.94-9.88.1-8.904-2.426-11.556-8.08-13.66-.893-.332-1.58-.58-2.096-.758.01-.047.013-.095.013-.144 0-.473-.384-.858-.86-.858" fill="#D6E9FF"/><path d="M133.208 79.53c-.473 0-.858.385-.858.858 0 .058.006.117.017.172-.472.177-1.087.415-1.88.73-5.265 2.104-7.618 4.756-7.526 13.66.052 4.95-1.434 8.098-2.765 9.917-.626.857-.04 2.056 1.022 2.056H146.178c1.08 0 1.658-1.24.993-2.092-1.418-1.823-2.993-4.962-2.94-9.88.1-8.904-2.426-11.556-8.08-13.66-.893-.332-1.58-.58-2.096-.758.01-.047.013-.095.013-.144 0-.473-.384-.858-.86-.858z" stroke="#2A86E1"/><path d="M136.605 108.51h-5.817c0 1.607 1.302 2.91 2.91 2.91 1.604 0 2.907-1.303 2.907-2.91" fill="#D6E9FF"/><path d="M136.605 108.51h-5.817c0 1.607 1.302 2.91 2.91 2.91 1.604 0 2.907-1.303 2.907-2.91z" stroke="#2A86E1"/><g fill="#4391FF" opacity=".4"><path d="M17.76 37.826h-1.71c-2.692 0-4.876-2.183-4.876-4.877v-1.733c0-.567-.384-1.088-.94-1.195-.752-.144-1.408.428-1.408 1.152v1.775c0 2.693-2.183 4.876-4.877 4.876H2.24c-.636 0-1.205.476-1.238 1.11-.035.678.503 1.238 1.172 1.238H3.95c2.693 0 4.876 2.183 4.876 4.877v1.71c0 .635.476 1.205 1.11 1.238.678.036 1.238-.502 1.238-1.172V45.05c0-2.693 2.184-4.876 4.877-4.876h1.776c.67 0 1.208-.56 1.172-1.237-.033-.635-.602-1.11-1.238-1.11"/></g><g fill="#4391FF" opacity=".4"><path d="M57.035 6.087h-1.33c-2.094 0-3.792-1.698-3.792-3.793V.947c0-.442-.3-.847-.732-.93-.583-.112-1.093.333-1.093.896v1.38c0 2.096-1.7 3.794-3.793 3.794h-1.33c-.494 0-.937.37-.963.864-.026.528.393.963.913.963h1.38c2.095 0 3.794 1.698 3.794 3.793v1.33c0 .494.37.937.864.963.527.027.963-.392.963-.913v-1.38c0-2.096 1.698-3.794 3.793-3.794h1.38c.52 0 .94-.435.913-.962-.027-.493-.47-.863-.965-.863M21.38 3.913h-.855c-1.346 0-2.438-1.092-2.438-2.44V.61c0-.285-.192-.545-.47-.6-.376-.07-.704.215-.704.577v.887c0 1.347-1.092 2.44-2.44 2.44h-.853c-.318 0-.603.237-.62.555-.017.337.252.617.587.617h.887c1.347 0 2.44 1.092 2.44 2.44v.853c0 .318.237.603.554.62.34.017.62-.252.62-.587v-.887c0-1.347 1.09-2.44 2.437-2.44h.888c.334 0 .604-.28.586-.617-.017-.32-.302-.557-.62-.557"/></g></g></svg>