<?xml version="1.0" encoding="UTF-8"?>
<svg width="200px" height="188px" viewBox="0 0 200 188" version="1.1" xmlns="http://www.w3.org/2000/svg" xmlns:xlink="http://www.w3.org/1999/xlink">
    <!-- Generator: sketchtool 42 (36781) - http://www.bohemiancoding.com/sketch -->
    <title>AEA73218-2732-4AE9-A712-E05D9C241907</title>
    <desc>Created with sketchtool.</desc>
    <defs></defs>
    <g id="-" stroke="none" stroke-width="1" fill="none" fill-rule="evenodd">
        <g id="Onboarding_4" transform="translate(-104.000000, -114.000000)">
            <g id="Onboarding_ill_4" transform="translate(104.000000, 114.000000)">
                <g id="Group-6" transform="translate(190.217949, 78.443333)"></g>
                <g id="Group-9" transform="translate(185.961538, 60.353590)"></g>
                <g id="Group-12" transform="translate(175.320513, 46.520256)"></g>
                <g id="Group-4">
                    <g id="Group-3" transform="translate(4.000000, 9.000000)">
                        <path d="M158.275786,42.0199205 L158.275786,33.620959 L158.275786,42.0199205 Z" id="Fill-1" fill="#2A86E1"></path>
                        <path d="M158.275467,33.6212782 L158.275467,42.0202397" id="Stroke-2" stroke="#2A86E1" stroke-linecap="round" stroke-linejoin="round"></path>
                        <path d="M186.272005,70.0170974 L194.672031,70.0170974 L186.272005,70.0170974 Z" id="Fill-3" fill="#FFFFFF"></path>
                        <path d="M194.671605,70.0173103 L186.272644,70.0173103" id="Stroke-4" stroke="#2A86E1" stroke-linecap="round" stroke-linejoin="round"></path>
                        <path d="M189.795462,51.8193474 L182.521256,56.0193603" id="Fill-7" fill="#FFFFFF"></path>
                        <path d="M189.795462,51.8193474 L182.521256,56.0193603" id="Stroke-8" stroke="#2A86E1" stroke-linecap="round" stroke-linejoin="round"></path>
                        <path d="M176.473536,38.4974218 L172.273523,45.7716269" id="Fill-10" fill="#FFFFFF"></path>
                        <path d="M176.473536,38.4974218 L172.273523,45.7716269" id="Stroke-11" stroke="#2A86E1" stroke-linecap="round" stroke-linejoin="round"></path>
                        <g id="Group-81" transform="translate(0.000000, 0.276667)">
                            <path d="M139.903051,39.1521467 C150.092144,52.3475056 156.157051,68.8933883 156.157051,86.8490718 L156.157051,86.8490718 C156.157051,111.770354 144.483846,133.956892 126.319615,148.258431 C124.297821,149.854585 122.190897,151.344328 120.009487,152.738303 C107.9,160.463687 93.5133333,164.932918 78.0732051,164.932918 C61.8137179,164.932918 46.7034615,159.952918 34.2002564,151.440097 C32.0188462,149.960995 29.9119231,148.364841 27.9007692,146.672918 C10.8432051,132.350097 0,110.865867 0,86.8490718 C0,62.8322769 10.8432051,41.3480462 27.9007692,27.0252256 C29.9119231,25.3333026 32.0188462,23.7371487 34.2002564,22.2580462 C36.2326923,20.8747128 38.3396154,19.5765077 40.5103846,18.3847128 C51.6515385,12.2554821 64.4526923,8.76522564 78.0732051,8.76522564 C91.704359,8.76522564 104.516154,12.2554821 115.667949,18.3847128 C117.147051,19.1934308 118.594231,20.0553538 120.009487,20.959841 C122.190897,22.3538154 124.297821,23.843559 126.319615,25.4397128 C129.068105,27.6037261 131.667979,29.9485157 134.101282,32.4561285" id="Stroke-15" stroke="#2A86E1" stroke-width="2" stroke-linecap="round" stroke-linejoin="round"></path>
                            <path d="M126.319509,17.6853846 L126.319509,148.26141 C113.039509,158.710897 96.2905346,164.935897 78.0730987,164.935897 C58.9724577,164.935897 41.4679705,158.072436 27.9006628,146.675897 L27.9006628,17.6853846 C27.9006628,8.35320513 35.4664321,0.787435897 44.7773295,0.787435897 L109.432201,0.787435897 C118.764381,0.787435897 126.319509,8.35320513 126.319509,17.6853846" id="Fill-17" fill="#D6E9FF"></path>
                            <path d="M27.9006628,42.2233333 L27.9006628,17.6853846 C27.9006628,8.35320513 35.4664321,0.787435897 44.7773295,0.787435897 L109.432201,0.787435897 C118.764381,0.787435897 126.319509,8.35320513 126.319509,17.6853846 L126.319509,115.723333 M126.319509,124.223333 L126.319509,148.26141 C113.039509,158.710897 96.2905346,164.935897 78.0730987,164.935897 C58.9724577,164.935897 41.4679705,158.072436 27.9006628,146.675897 L27.9006628,55.2233333" id="Stroke-19" stroke="#2A86E1" stroke-width="2" stroke-linecap="round" stroke-linejoin="round"></path>
                            <path d="M120.009487,18.3847128 L120.009487,152.738303 C107.9,160.463687 93.5133333,164.932918 78.0732051,164.932918 C61.8137179,164.932918 46.7034615,159.952918 34.2002564,151.440097 L34.2002564,18.3847128 L120.009487,18.3847128 Z" id="Fill-21" fill="#FFFFFF"></path>
                            <path d="M120.009487,18.3847128 L120.009487,152.738303 C107.9,160.463687 93.5133333,164.932918 78.0732051,164.932918 C61.8137179,164.932918 46.7034615,159.952918 34.2002564,151.440097 L34.2002564,18.3847128 L120.009487,18.3847128 Z" id="Stroke-23" stroke="#2A86E1"></path>
                            <path d="M89.2950179,11.3622744 L64.9174923,11.3622744 C63.4915949,11.3622744 62.3359795,10.206659 62.3359795,8.78076154 C62.3359795,7.3548641 63.4915949,6.19924872 64.9174923,6.19924872 L89.2950179,6.19924872 C90.7209154,6.19924872 91.8765308,7.3548641 91.8765308,8.78076154 C91.8765308,10.206659 90.7209154,11.3622744 89.2950179,11.3622744" id="Fill-25" fill="#4391FF"></path>
                            <g id="Group-2" opacity="0.300000012" transform="translate(41.000000, 26.000000)" fill="#8DBDFF">
                                <path d="M70.5844551,4.59795 L2.52977564,4.59795 C1.34010897,4.59795 0.376032051,3.63387308 0.376032051,2.44420641 L0.376032051,2.38993718 C0.376032051,1.20027051 1.34010897,0.235129487 2.52977564,0.235129487 L70.5844551,0.235129487 C71.7741218,0.235129487 72.7381987,1.20027051 72.7381987,2.38993718 L72.7381987,2.44420641 C72.7381987,3.63387308 71.7741218,4.59795 70.5844551,4.59795" id="Fill-27"></path>
                                <path d="M70.5844551,13.2205859 L2.52977564,13.2205859 C1.34010897,13.2205859 0.376032051,12.256509 0.376032051,11.0668423 L0.376032051,11.0125731 C0.376032051,9.82290641 1.34010897,8.85776538 2.52977564,8.85776538 L70.5844551,8.85776538 C71.7741218,8.85776538 72.7381987,9.82290641 72.7381987,11.0125731 L72.7381987,11.0668423 C72.7381987,12.256509 71.7741218,13.2205859 70.5844551,13.2205859" id="Fill-29"></path>
                                <path d="M70.5844551,21.8432218 L2.52977564,21.8432218 C1.34010897,21.8432218 0.376032051,20.8791449 0.376032051,19.6894782 L0.376032051,19.635209 C0.376032051,18.4455423 1.34010897,17.4804013 2.52977564,17.4804013 L70.5844551,17.4804013 C71.7741218,17.4804013 72.7381987,18.4455423 72.7381987,19.635209 L72.7381987,19.6894782 C72.7381987,20.8791449 71.7741218,21.8432218 70.5844551,21.8432218" id="Fill-31"></path>
                                <path d="M70.5844551,97.0210038 L42.9571603,97.0210038 C41.7685577,97.0210038 40.8034167,96.0569269 40.8034167,94.8672603 L40.8034167,94.812991 C40.8034167,93.6233244 41.7685577,92.6581833 42.9571603,92.6581833 L70.5844551,92.6581833 C71.7741218,92.6581833 72.7381987,93.6233244 72.7381987,94.812991 L72.7381987,94.8672603 C72.7381987,96.0569269 71.7741218,97.0210038 70.5844551,97.0210038" id="Fill-33"></path>
                                <path d="M70.5844551,107.182332 L2.52977564,107.182332 C1.34010897,107.182332 0.376032051,106.218255 0.376032051,105.028588 L0.376032051,104.974319 C0.376032051,103.784653 1.34010897,102.819512 2.52977564,102.819512 L70.5844551,102.819512 C71.7741218,102.819512 72.7381987,103.784653 72.7381987,104.974319 L72.7381987,105.028588 C72.7381987,106.218255 71.7741218,107.182332 70.5844551,107.182332" id="Fill-35"></path>
                                <path d="M58.0185744,117.34366 L2.52988205,117.34366 C1.34021538,117.34366 0.376138462,116.379583 0.376138462,115.189917 L0.376138462,115.135647 C0.376138462,113.945981 1.34021538,112.98084 2.52988205,112.98084 L58.0185744,112.98084 C59.208241,112.98084 60.1723179,113.945981 60.1723179,115.135647 L60.1723179,115.189917 C60.1723179,116.379583 59.208241,117.34366 58.0185744,117.34366" id="Fill-37"></path>
                                <path d="M31.702041,30.4659641 L2.39452821,30.4659641 C1.27934872,30.4659641 0.375925641,29.562541 0.375925641,28.4473615 L0.375925641,28.1217462 C0.375925641,27.0076308 1.27934872,26.1031436 2.39452821,26.1031436 L31.702041,26.1031436 C32.8172205,26.1031436 33.7206436,27.0076308 33.7206436,28.1217462 L33.7206436,28.4473615 C33.7206436,29.562541 32.8172205,30.4659641 31.702041,30.4659641" id="Fill-39"></path>
                                <path d="M31.702041,39.0886 L2.39452821,39.0886 C1.27934872,39.0886 0.375925641,38.1851769 0.375925641,37.0699974 L0.375925641,36.7443821 C0.375925641,35.6302667 1.27934872,34.7257795 2.39452821,34.7257795 L31.702041,34.7257795 C32.8172205,34.7257795 33.7206436,35.6302667 33.7206436,36.7443821 L33.7206436,37.0699974 C33.7206436,38.1851769 32.8172205,39.0886 31.702041,39.0886" id="Fill-41"></path>
                                <path d="M31.702041,47.7112359 L2.39452821,47.7112359 C1.27934872,47.7112359 0.375925641,46.8078128 0.375925641,45.6926333 L0.375925641,45.3670179 C0.375925641,44.2529026 1.27934872,43.3484154 2.39452821,43.3484154 L31.702041,43.3484154 C32.8172205,43.3484154 33.7206436,44.2529026 33.7206436,45.3670179 L33.7206436,45.6926333 C33.7206436,46.8078128 32.8172205,47.7112359 31.702041,47.7112359" id="Fill-43"></path>
                            </g>
                            <path d="M126.319509,57.3870513 L126.319509,105.752641 L87.5010474,105.752641 C84.1597654,105.752641 81.4463038,103.039179 81.4463038,99.6978974 L81.4463038,63.4417949 C81.4463038,60.1005128 84.1597654,57.3870513 87.5010474,57.3870513 L126.319509,57.3870513 Z" id="Fill-45" fill="#2A86E1" opacity="0.300000012"></path>
                            <path d="M166.902891,102.393908 L87.5048782,102.393908 C84.1593397,102.393908 81.4480064,99.6815103 81.4480064,96.3359718 L81.4480064,58.9561769 C81.4480064,55.6106385 84.1593397,52.898241 87.5048782,52.898241 L166.902891,52.898241 C170.248429,52.898241 172.960827,55.6106385 172.960827,58.9561769 L172.960827,96.3359718 C172.960827,99.6815103 170.248429,102.393908 166.902891,102.393908" id="Fill-47" fill="#FCFCFC"></path>
                            <path d="M161,52.898241 L166.902891,52.898241 C170.248429,52.898241 172.960827,55.6106385 172.960827,58.9561769 L172.960827,96.3359718 C172.960827,99.6815103 170.248429,102.393908 166.902891,102.393908 L144.5,102.393908 M138.5,102.393908 L87.5048782,102.393908 C84.1593397,102.393908 81.4480064,99.6815103 81.4480064,96.3359718 L81.4480064,58.9561769 C81.4480064,55.6106385 84.1593397,52.898241 87.5048782,52.898241 L154,52.898241" id="Stroke-49" stroke="#2A86E1" stroke-linecap="round" stroke-linejoin="round"></path>
                            <path d="M73.4761756,89.3206628 L73.4761756,119.58374 C73.4761756,121.935406 71.5820731,123.829509 69.2410474,123.829509 L27.9006628,123.829509 L27.9006628,85.0748936 L69.2410474,85.0748936 C71.5820731,85.0748936 73.4761756,86.9796372 73.4761756,89.3206628" id="Fill-51" fill="#2A86E1" opacity="0.300000012"></path>
                            <path d="M71.3793615,121.689599 L15.7682974,121.689599 C13.4251436,121.689599 11.5257205,119.790176 11.5257205,117.447022 L11.5257205,87.1764962 C11.5257205,84.8333423 13.4251436,82.9339192 15.7682974,82.9339192 L71.3793615,82.9339192 C73.7225154,82.9339192 75.6219385,84.8333423 75.6219385,87.1764962 L75.6219385,117.447022 C75.6219385,119.790176 73.7225154,121.689599 71.3793615,121.689599" id="Fill-53" fill="#FCFCFC"></path>
                            <path d="M48.5,82.9339192 L71.3793615,82.9339192 C73.7225154,82.9339192 75.6219385,84.8333423 75.6219385,87.1764962 L75.6219385,117.447022 C75.6219385,119.790176 73.7225154,121.689599 71.3793615,121.689599 L71.3793615,121.689599 L15.7682974,121.689599 C13.4251436,121.689599 11.5257205,119.790176 11.5257205,117.447022 L11.5257205,87.1764962 C11.5257205,84.8333423 13.4251436,82.9339192 15.7682974,82.9339192 L41.5,82.9339192" id="Stroke-55" stroke="#2A86E1"></path>
                            <path d="M108,68.6452133 C108,64.0478012 103.433237,60.3197179 97.7979246,60.3197179 C92.164005,60.3197179 87.5972423,64.0478012 87.5972423,68.6452133 C87.5972423,73.2426254 92.164005,76.9707087 97.7979246,76.9707087 C99.3248227,76.9707087 100.768131,76.6892914 102.069338,76.1989008 L104.333216,77.2981002 C104.540796,77.3984074 104.773453,77.2117246 104.71912,76.9874266 L104.264951,75.0829834 C106.545546,73.5560854 108,71.2392683 108,68.6452133" id="Fill-57" fill="#2A86E1"></path>
                            <path d="M28.6791603,92.9554244 C28.6791603,90.1791808 25.9220705,87.9296679 22.5201346,87.9296679 C19.1192628,87.9296679 16.3621731,90.1791808 16.3621731,92.9554244 C16.3621731,95.7316679 19.1192628,97.9811808 22.5201346,97.9811808 C23.4427115,97.9811808 24.3131474,97.8109244 25.0984551,97.5151038 L26.4658269,98.1791038 C26.591391,98.2397577 26.7307885,98.1269628 26.6988654,97.9918218 L26.4243269,96.8415269 C27.8002115,95.9200141 28.6791603,94.5217833 28.6791603,92.9554244" id="Fill-59" fill="#2A86E1"></path>
                            <path d="M164.708291,75.0998897 L114.425839,75.0998897 C114.052524,75.0998897 113.750777,74.7678897 113.750777,74.3571462 C113.750777,73.9474667 114.052524,73.6144026 114.425839,73.6144026 L164.708291,73.6144026 C165.080638,73.6144026 165.383353,73.9474667 165.383353,74.3571462 C165.383353,74.7678897 165.080638,75.0998897 164.708291,75.0998897" id="Fill-61" fill="#8DBDFF"></path>
                            <path d="M164.708291,80.6694026 L114.425839,80.6694026 C114.052524,80.6694026 113.750777,80.3374026 113.750777,79.926659 C113.750777,79.5169795 114.052524,79.1839154 114.425839,79.1839154 L164.708291,79.1839154 C165.080638,79.1839154 165.383353,79.5169795 165.383353,79.926659 C165.383353,80.3374026 165.080638,80.6694026 164.708291,80.6694026" id="Fill-63" fill="#8DBDFF"></path>
                            <path d="M164.708291,86.2389154 L114.425839,86.2389154 C114.052524,86.2389154 113.750777,85.9069154 113.750777,85.4961718 L113.750777,85.4961718 C113.750777,85.0864923 114.052524,84.7534282 114.425839,84.7534282 L164.708291,84.7534282 C165.080638,84.7534282 165.383353,85.0864923 165.383353,85.4961718 L165.383353,85.4961718 C165.383353,85.9069154 165.080638,86.2389154 164.708291,86.2389154" id="Fill-65" fill="#8DBDFF"></path>
                            <path d="M144.797635,91.8084282 L114.425645,91.8084282 C114.05233,91.8084282 113.750583,91.4764282 113.750583,91.0656846 C113.750583,90.6560051 114.05233,90.322941 114.425645,90.322941 L144.797635,90.322941 C145.169983,90.322941 145.472697,90.6560051 145.472697,91.0656846 C145.472697,91.4764282 145.169983,91.8084282 144.797635,91.8084282" id="Fill-67" fill="#8DBDFF"></path>
                            <path d="M69.5181397,100.734546 L36.3777295,100.734546 C35.9935885,100.734546 35.6828705,100.423828 35.6828705,100.039687 L35.6828705,100.039687 C35.6828705,99.6555462 35.9935885,99.3448282 36.3777295,99.3448282 L69.5181397,99.3448282 C69.9022808,99.3448282 70.2129987,99.6555462 70.2129987,100.039687 L70.2129987,100.039687 C70.2129987,100.423828 69.9022808,100.734546 69.5181397,100.734546" id="Fill-69" fill="#8DBDFF"></path>
                            <path d="M69.5181397,105.945456 L36.3777295,105.945456 C35.9935885,105.945456 35.6828705,105.634738 35.6828705,105.250597 L35.6828705,105.250597 C35.6828705,104.866456 35.9935885,104.555738 36.3777295,104.555738 L69.5181397,104.555738 C69.9022808,104.555738 70.2129987,104.866456 70.2129987,105.250597 L70.2129987,105.250597 C70.2129987,105.634738 69.9022808,105.945456 69.5181397,105.945456" id="Fill-71" fill="#8DBDFF"></path>
                            <path d="M69.5181397,111.156473 L36.3777295,111.156473 C35.9935885,111.156473 35.6828705,110.845755 35.6828705,110.461614 C35.6828705,110.077473 35.9935885,109.766755 36.3777295,109.766755 L69.5181397,109.766755 C69.9022808,109.766755 70.2129987,110.077473 70.2129987,110.461614 C70.2129987,110.845755 69.9022808,111.156473 69.5181397,111.156473" id="Fill-73" fill="#8DBDFF"></path>
                            <path d="M49.0217154,116.367383 L36.3780487,116.367383 C35.9939077,116.367383 35.6831897,116.056665 35.6831897,115.672524 C35.6831897,115.288383 35.9939077,114.977665 36.3780487,114.977665 L49.0217154,114.977665 C49.4058564,114.977665 49.7165744,115.288383 49.7165744,115.672524 C49.7165744,116.056665 49.4058564,116.367383 49.0217154,116.367383" id="Fill-75" fill="#8DBDFF"></path>
                            <path d="M162.296431,68.7646487 L117.339433,68.7646487 C115.494612,68.7646487 114,67.1025205 114,65.0509308 L114,65.0509308 C114,63.0004051 115.494612,61.3372128 117.339433,61.3372128 L162.296431,61.3372128 C164.140296,61.3372128 165.635864,63.0004051 165.635864,65.0509308 L165.635864,65.0509308 C165.635864,67.1025205 164.140296,68.7646487 162.296431,68.7646487" id="Fill-77" fill="#8DBDFF"></path>
                            <path d="M66.6659192,96.07665 L38.1479705,96.07665 C36.0974449,96.07665 34.4353167,94.4145218 34.4353167,92.3629321 L34.4353167,92.3629321 C34.4353167,90.3124064 36.0974449,88.6492141 38.1479705,88.6492141 L66.6659192,88.6492141 C68.7164449,88.6492141 70.3796372,90.3124064 70.3796372,92.3629321 L70.3796372,92.3629321 C70.3796372,94.4145218 68.7164449,96.07665 66.6659192,96.07665" id="Fill-79" fill="#8DBDFF"></path>
                        </g>
                    </g>
                    <path d="M16.7596336,7.82613439 L15.0508076,7.82613439 C12.35746,7.82613439 10.1735905,5.64265626 10.1735905,2.94891729 L10.1735905,1.21739565 C10.1735905,0.649613078 9.78972097,0.129178326 9.23250362,0.0223522452 C8.48198192,-0.121647746 7.82576457,0.449656568 7.82576457,1.17396087 L7.82576457,2.94891729 C7.82576457,5.64265626 5.64228644,7.82613439 2.94893877,7.82613439 L1.24011278,7.82613439 C0.604243254,7.82613439 0.0345041571,8.30235176 0.0016345938,8.93743868 C-0.0335827954,9.61439516 0.504851955,10.1739603 1.17359105,10.1739603 L2.94893877,10.1739603 C5.64228644,10.1739603 7.82576457,12.3574385 7.82576457,15.0511774 L7.82576457,16.7596121 C7.82576457,17.3954817 8.30198193,17.9652208 8.93667755,17.9984816 C9.61363403,18.0340903 10.1735905,17.4956556 10.1735905,16.8261339 L10.1735905,15.0511774 C10.1735905,12.3574385 12.35746,10.1739603 15.0508076,10.1739603 L16.825764,10.1739603 C17.4948944,10.1739603 18.0333292,9.61439516 17.9981118,8.93743868 C17.9652422,8.30235176 17.3955031,7.82613439 16.7596336,7.82613439" id="Fill-1" fill="#4391FF" opacity="0.400000006"></path>
                    <path d="M181.10435,131.652288 L179.870181,131.652288 C177.924958,131.652288 176.347697,130.075309 176.347697,128.129804 L176.347697,126.879243 C176.347697,126.469172 176.070454,126.093297 175.668013,126.016144 C175.125962,125.912142 174.652021,126.324757 174.652021,126.847873 L174.652021,128.129804 C174.652021,130.075309 173.075042,131.652288 171.129819,131.652288 L169.89565,131.652288 C169.436404,131.652288 169.02492,131.996227 169.001181,132.454908 C168.975745,132.943828 169.36462,133.347964 169.847605,133.347964 L171.129819,133.347964 C173.075042,133.347964 174.652021,134.924942 174.652021,136.870448 L174.652021,138.104335 C174.652021,138.56358 174.99596,138.975064 175.454358,138.999087 C175.943278,139.024804 176.347697,138.635929 176.347697,138.152379 L176.347697,136.870448 C176.347697,134.924942 177.924958,133.347964 179.870181,133.347964 L181.152112,133.347964 C181.63538,133.347964 182.024255,132.943828 181.998819,132.454908 C181.97508,131.996227 181.563596,131.652288 181.10435,131.652288" id="Fill-1-Copy" fill="#4391FF" opacity="0.400000006"></path>
                    <path d="M30.1043504,180.652288 L28.8701809,180.652288 C26.9249579,180.652288 25.3476967,179.075309 25.3476967,177.129804 L25.3476967,175.879243 C25.3476967,175.469172 25.0704537,175.093297 24.6680132,175.016144 C24.1259621,174.912142 23.6520207,175.324757 23.6520207,175.847873 L23.6520207,177.129804 C23.6520207,179.075309 22.0750421,180.652288 20.1298191,180.652288 L18.8956496,180.652288 C18.4364041,180.652288 18.02492,180.996227 18.0011806,181.454908 C17.9757454,181.943828 18.3646204,182.347964 18.8476055,182.347964 L20.1298191,182.347964 C22.0750421,182.347964 23.6520207,183.924942 23.6520207,185.870448 L23.6520207,187.104335 C23.6520207,187.56358 23.9959603,187.975064 24.4543581,187.999087 C24.943278,188.024804 25.3476967,187.635929 25.3476967,187.152379 L25.3476967,185.870448 C25.3476967,183.924942 26.9249579,182.347964 28.8701809,182.347964 L30.1521119,182.347964 C30.6353796,182.347964 31.0242546,181.943828 30.9988195,181.454908 C30.97508,180.996227 30.563596,180.652288 30.1043504,180.652288" id="Fill-1-Copy-2" fill="#4391FF" opacity="0.400000006"></path>
                </g>
            </g>
        </g>
    </g>
</svg>