<?xml version="1.0" encoding="UTF-8"?>
<svg width="194px" height="181px" viewBox="0 0 194 181" version="1.1" xmlns="http://www.w3.org/2000/svg" xmlns:xlink="http://www.w3.org/1999/xlink">
    <!-- Generator: sketchtool 42 (36781) - http://www.bohemiancoding.com/sketch -->
    <title>6CD2E75B-DFF4-4982-B4E9-DC85214094C6</title>
    <desc>Created with sketchtool.</desc>
    <defs></defs>
    <g id="-" stroke="none" stroke-width="1" fill="none" fill-rule="evenodd">
        <g id="Onboarding_2" transform="translate(-103.000000, -123.000000)">
            <g id="Onboarding_ill_2" transform="translate(103.000000, 123.000000)">
                <g id="Page-1" transform="translate(4.000000, 2.000000)">
                    <path d="M153.083406,38.3870722 L153.083406,30.0944266 L153.083406,38.3870722 Z" id="Fill-1" fill="#FFFFFF"></path>
                    <path d="M153.083196,30.0944266 L153.083196,38.3870722" id="Stroke-2" stroke="#2A86E1" stroke-linecap="round" stroke-linejoin="round"></path>
                    <path d="M180.726189,66.0298544 L189.018834,66.0298544 L180.726189,66.0298544 Z" id="Fill-3" fill="#FFFFFF"></path>
                    <path d="M189.018519,66.0297494 L180.725873,66.0297494" id="Stroke-4" stroke="#2A86E1" stroke-linecap="round" stroke-linejoin="round"></path>
                    <g id="Group-8" transform="translate(176.556962, 47.602278)">
                        <path d="M7.64713671,0.459862025 L0.465010127,4.60671013" id="Fill-6" fill="#FFFFFF"></path>
                        <path d="M7.64713671,0.459862025 L0.465010127,4.60671013" id="Stroke-7" stroke="#2A86E1" stroke-linecap="round" stroke-linejoin="round"></path>
                    </g>
                    <g id="Group-11" transform="translate(166.050633, 33.944051)">
                        <path d="M5.00027722,0.964796203 L0.853429114,8.14692278" id="Fill-9" fill="#FFFFFF"></path>
                        <path d="M5.00027722,0.964796203 L0.853429114,8.14692278" id="Stroke-10" stroke="#2A86E1" stroke-linecap="round" stroke-linejoin="round"></path>
                    </g>
                    <g id="Group-67" transform="translate(0.000000, 0.273165)">
                        <path d="M10.9604281,125.359567 C4.03282382,113.794436 0.0506329114,100.262438 0.0506329114,85.8003494 C0.0506329114,62.0875646 10.7565823,40.8752861 27.5982278,26.7337671 C29.5839241,25.0632608 31.6641772,23.4873114 33.8179747,22.0269316 C35.8246835,20.6611089 37.9049367,19.3793367 40.0482278,18.2026278 C51.0483544,12.1509823 63.6874684,8.70490633 77.1355696,8.70490633 C90.5941772,8.70490633 103.243797,12.1509823 114.25443,18.2026278 C115.71481,19.0011089 117.143671,19.8521215 118.541013,20.7451595 C120.69481,22.1214886 122.775063,23.5923747 124.771266,25.1683241 C142.70557,39.2888304 154.231013,61.2050329 154.231013,85.8003494 L154.231013,85.8003494 C154.231013,110.406172 142.70557,132.311868 124.771266,146.432375 C122.775063,148.008324 120.69481,149.47921 118.541013,150.855539 C106.58481,158.483134 92.3802532,162.895792 77.1355696,162.895792 C61.0818987,162.895792 46.1629114,157.97883 33.8179747,149.573767 C31.6641772,148.113387 29.5839241,146.537438 27.5982278,144.866932 C23.1390232,141.122646 19.1099584,136.882669 15.5958652,132.231832" id="Stroke-14" stroke="#2A86E1" stroke-width="2" stroke-linecap="round" stroke-linejoin="round"></path>
                        <path d="M124.775468,17.5121519 L124.775468,146.435316 C111.66357,156.752532 95.1266076,162.898734 77.1397722,162.898734 C58.2809114,162.898734 40.998,156.122152 27.6024304,144.869873 L27.6024304,17.5121519 C27.6024304,8.29810127 35.0724304,0.828101266 44.2654684,0.828101266 L108.101924,0.828101266 C117.315975,0.828101266 124.775468,8.29810127 124.775468,17.5121519" id="Fill-16" fill="#D6E9FF"></path>
                        <path d="M27.6024304,34.2268354 L27.6024304,17.5121519 C27.6024304,8.29810127 35.0724304,0.828101266 44.2654684,0.828101266 L108.101924,0.828101266 C117.315975,0.828101266 124.775468,8.29810127 124.775468,17.5121519 L124.775468,118.226835 M124.775468,125.226835 L124.775468,146.435316 C111.66357,156.752532 95.1266076,162.898734 77.1397722,162.898734 C58.2809114,162.898734 40.998,156.122152 27.6024304,144.869873 L27.6024304,41.2268354" id="Stroke-18" stroke="#2A86E1" stroke-width="2" stroke-linecap="round" stroke-linejoin="round"></path>
                        <path d="M118.541013,18.2026278 L118.541013,150.855539 C106.58481,158.483134 92.3802532,162.895792 77.1355696,162.895792 C61.0818987,162.895792 46.1629114,157.97883 33.8179747,149.573767 L33.8179747,18.2026278 L118.541013,18.2026278 Z" id="Fill-20" fill="#FFFFFF"></path>
                        <path d="M118.541013,18.2026278 L118.541013,150.855539 C106.58481,158.483134 92.3802532,162.895792 77.1355696,162.895792 C61.0818987,162.895792 46.1629114,157.97883 33.8179747,149.573767 L33.8179747,18.2026278 L118.541013,18.2026278 Z" id="Stroke-22" stroke="#2A86E1"></path>
                        <path d="M88.2153342,11.269081 L64.1463848,11.269081 C62.7385367,11.269081 61.5975494,10.1280937 61.5975494,8.72024557 C61.5975494,7.31239747 62.7385367,6.17141013 64.1463848,6.17141013 L88.2153342,6.17141013 C89.6231823,6.17141013 90.7641696,7.31239747 90.7641696,8.72024557 C90.7641696,10.1280937 89.6231823,11.269081 88.2153342,11.269081" id="Fill-24" fill="#4391FF"></path>
                        <path d="M110.222627,30.2612671 L43.0293987,30.2612671 C41.8547911,30.2612671 40.9029177,29.3093937 40.9029177,28.1347861 L40.9029177,28.0812038 C40.9029177,26.9065962 41.8547911,25.9536722 43.0293987,25.9536722 L110.222627,25.9536722 C111.397234,25.9536722 112.349108,26.9065962 112.349108,28.0812038 L112.349108,28.1347861 C112.349108,29.3093937 111.397234,30.2612671 110.222627,30.2612671" id="Fill-26" fill="#8DBDFF"></path>
                        <path d="M110.222627,38.7738101 L43.0293987,38.7738101 C41.8547911,38.7738101 40.9029177,37.8219367 40.9029177,36.6473291 L40.9029177,36.5937468 C40.9029177,35.4191392 41.8547911,34.4662152 43.0293987,34.4662152 L110.222627,34.4662152 C111.397234,34.4662152 112.349108,35.4191392 112.349108,36.5937468 L112.349108,36.6473291 C112.349108,37.8219367 111.397234,38.7738101 110.222627,38.7738101" id="Fill-28" fill="#8DBDFF"></path>
                        <path d="M110.222627,121.514409 L43.0293987,121.514409 C41.8547911,121.514409 40.9029177,120.562535 40.9029177,119.387928 L40.9029177,119.334346 C40.9029177,118.159738 41.8547911,117.206814 43.0293987,117.206814 L110.222627,117.206814 C111.397234,117.206814 112.349108,118.159738 112.349108,119.334346 L112.349108,119.387928 C112.349108,120.562535 111.397234,121.514409 110.222627,121.514409" id="Fill-30" fill="#8DBDFF"></path>
                        <path d="M110.222627,131.547113 L43.0293987,131.547113 C41.8547911,131.547113 40.9029177,130.595239 40.9029177,129.420632 L40.9029177,129.367049 C40.9029177,128.192442 41.8547911,127.239518 43.0293987,127.239518 L110.222627,127.239518 C111.397234,127.239518 112.349108,128.192442 112.349108,129.367049 L112.349108,129.420632 C112.349108,130.595239 111.397234,131.547113 110.222627,131.547113" id="Fill-32" fill="#8DBDFF"></path>
                        <path d="M97.8158076,141.579816 L43.0295038,141.579816 C41.8548962,141.579816 40.9030228,140.627943 40.9030228,139.453335 L40.9030228,139.399753 C40.9030228,138.225146 41.8548962,137.272222 43.0295038,137.272222 L97.8158076,137.272222 C98.9904152,137.272222 99.9422886,138.225146 99.9422886,139.399753 L99.9422886,139.453335 C99.9422886,140.627943 98.9904152,141.579816 97.8158076,141.579816" id="Fill-34" fill="#8DBDFF"></path>
                        <path d="M101.666062,47.2863532 L42.8957582,47.2863532 C41.7946949,47.2863532 40.9027076,46.3943658 40.9027076,45.2933025 L40.9027076,44.9718089 C40.9027076,43.8717962 41.7946949,42.9787582 42.8957582,42.9787582 L101.666062,42.9787582 C102.767125,42.9787582 103.659113,43.8717962 103.659113,44.9718089 L103.659113,45.2933025 C103.659113,46.3943658 102.767125,47.2863532 101.666062,47.2863532" id="Fill-36" fill="#8DBDFF"></path>
                        <path d="M124.775468,57.4362025 L124.775468,110.93443 L64.332557,110.93443 C61.3907848,110.93443 59.0163544,108.56 59.0163544,105.628734 L59.0163544,62.7524051 C59.0163544,59.8211392 61.3907848,57.4362025 64.332557,57.4362025 L124.775468,57.4362025 Z" id="Fill-38" fill="#2A85E0" opacity="0.300000012"></path>
                        <path d="M162.60172,106.8502 L64.3307709,106.8502 C61.3953025,106.8502 59.0166696,104.470516 59.0166696,101.536099 L59.0166696,58.6650228 C59.0166696,55.7295544 61.3953025,53.3509215 64.3307709,53.3509215 L162.60172,53.3509215 C165.537189,53.3509215 167.915822,55.7295544 167.915822,58.6650228 L167.915822,101.536099 C167.915822,104.470516 165.537189,106.8502 162.60172,106.8502" id="Fill-40" fill="#FCFCFC"></path>
                        <path d="M162.60172,106.8502 L64.3307709,106.8502 C61.3953025,106.8502 59.0166696,104.470516 59.0166696,101.536099 L59.0166696,58.6650228 C59.0166696,55.7295544 61.3953025,53.3509215 64.3307709,53.3509215 L162.60172,53.3509215 C165.537189,53.3509215 167.915822,55.7295544 167.915822,58.6650228 L167.915822,101.536099 C167.915822,104.470516 165.537189,106.8502 162.60172,106.8502 Z" id="Stroke-42" stroke="#2A86E1"></path>
                        <path d="M87.707143,75.806519 L73.7442316,75.806519 C69.5259405,75.806519 66.1061304,72.3867089 66.1061304,68.1684177 L66.1061304,68.1684177 C66.1061304,63.9501266 69.5259405,60.5303165 73.7442316,60.5303165 L87.707143,60.5303165 C91.9254342,60.5303165 95.3452443,63.9501266 95.3452443,68.1684177 L95.3452443,68.1684177 C95.3452443,72.3867089 91.9254342,75.806519 87.707143,75.806519" id="Fill-44" fill="#FCFCFC"></path>
                        <path d="M87.707143,75.806519 L73.7442316,75.806519 C69.5259405,75.806519 66.1061304,72.3867089 66.1061304,68.1684177 L66.1061304,68.1684177 C66.1061304,63.9501266 69.5259405,60.5303165 73.7442316,60.5303165 L87.707143,60.5303165 C91.9254342,60.5303165 95.3452443,63.9501266 95.3452443,68.1684177 L95.3452443,68.1684177 C95.3452443,72.3867089 91.9254342,75.806519 87.707143,75.806519 Z" id="Stroke-46" stroke="#2A86E1"></path>
                        <path d="M93.4535797,68.1984658 C93.4535797,71.4680354 90.8028329,74.1177316 87.5343139,74.1177316 C84.2647443,74.1177316 81.6150481,71.4680354 81.6150481,68.1984658 C81.6150481,64.9288962 84.2647443,62.2792 87.5343139,62.2792 C90.8028329,62.2792 93.4535797,64.9288962 93.4535797,68.1984658" id="Fill-48" fill="#2A86E1"></path>
                        <g id="Group-2" transform="translate(105.000000, 63.000000)" fill="#2A86E1">
                            <path d="M3.45714304,6.29112405 L6.70990253,6.29112405 L5.08352278,2.50779494 L3.45714304,6.29112405 Z M8.14716835,9.63213671 L7.25202911,7.55083291 L2.92762405,7.55083291 L2.03248481,9.63213671 L0.393497468,9.63213671 L4.41532025,0.743782278 L5.73911772,0.743782278 L9.76094051,9.63213671 L8.14716835,9.63213671 Z" id="Fill-50"></path>
                            <polygon id="Fill-52" points="14.552457 3.47889494 16.1031911 3.47889494 13.4041152 9.63140127 12.030938 9.63140127 9.35812785 3.47889494 11.0223304 3.47889494 12.7621785 7.82956582"></polygon>
                            <path d="M20.0795215,8.17595949 C20.344281,7.89333924 20.4766608,7.53087089 20.4766608,7.08540253 L20.4766608,6.82064304 L20.2497241,6.82064304 C19.6865848,6.82064304 19.2495215,6.84480759 18.9385342,6.89628861 C18.6275468,6.94671899 18.4048127,7.03497215 18.2703316,7.1610481 C18.1358506,7.28607342 18.0686101,7.45837722 18.0686101,7.67690886 C18.0686101,7.94692152 18.1610658,8.16755443 18.3470278,8.33880759 C18.5308886,8.51111139 18.7662304,8.59726329 19.0520025,8.59726329 C19.4722557,8.59726329 19.814762,8.45752911 20.0795215,8.17595949 M21.3465848,3.94611139 C21.766838,4.36636456 21.9780152,5.01355443 21.9780152,5.88663038 L21.9780152,9.63213671 L20.4766608,9.63213671 L20.4766608,8.68551646 C20.3337747,9.01436456 20.1089392,9.27071899 19.8021544,9.45563038 C19.4953696,9.64054177 19.1402557,9.73194684 18.7378633,9.73194684 C18.3249646,9.73194684 17.9519899,9.6478962 17.6147367,9.48084557 C17.2785342,9.3127443 17.0137747,9.08160506 16.8204582,8.78742785 C16.6271418,8.49325063 16.5304835,8.16545316 16.5304835,7.80403544 C16.5304835,7.35016203 16.6460532,6.99294684 16.8771924,6.73238987 C17.1083316,6.47183291 17.4844582,6.28271899 18.0055722,6.1650481 C18.5266861,6.04737722 19.245319,5.98854177 20.1614709,5.98854177 L20.4766608,5.98854177 L20.4766608,5.69856709 C20.4766608,5.27831392 20.3863063,4.97573165 20.2055975,4.78976962 C20.0248886,4.60590886 19.7244076,4.51345316 19.3052051,4.51345316 C18.976357,4.51345316 18.6338506,4.56913671 18.2766354,4.6836557 C17.9194203,4.79712405 17.5685089,4.95471899 17.2239013,5.15644051 L16.7826354,4.07218734 C17.127243,3.8536557 17.5432937,3.67294684 18.031838,3.53006076 C18.5193316,3.38612405 18.9805595,3.31573165 19.4176228,3.31573165 C20.2833443,3.31573165 20.9273823,3.52585823 21.3465848,3.94611139" id="Fill-54"></path>
                            <path d="M23.5787595,9.63150633 L25.1547089,9.63150633 L25.1547089,3.46639241 L23.5787595,3.46639241 L23.5787595,9.63150633 Z M23.4905063,2.15625316 L25.2293038,2.15625316 L25.2293038,0.605518987 L23.4905063,0.605518987 L23.4905063,2.15625316 Z" id="Fill-56"></path>
                            <polygon id="Fill-58" points="26.7810886 9.63150633 28.357038 9.63150633 28.357038 0.743151899 26.7810886 0.743151899"></polygon>
                            <path d="M33.2924911,8.17595949 C33.5572506,7.89333924 33.6896304,7.53087089 33.6896304,7.08540253 L33.6896304,6.82064304 L33.4626937,6.82064304 C32.8995544,6.82064304 32.4624911,6.84480759 32.1515038,6.89628861 C31.8405165,6.94671899 31.6177823,7.03497215 31.4833013,7.1610481 C31.3488203,7.28607342 31.2815797,7.45837722 31.2815797,7.67690886 C31.2815797,7.94692152 31.3740354,8.16755443 31.5599975,8.33880759 C31.7438582,8.51111139 31.9792,8.59726329 32.2649722,8.59726329 C32.6852253,8.59726329 33.0277316,8.45752911 33.2924911,8.17595949 M34.5595544,3.94611139 C34.9798076,4.36636456 35.1909848,5.01355443 35.1909848,5.88663038 L35.1909848,9.63213671 L33.6896304,9.63213671 L33.6896304,8.68551646 C33.5467443,9.01436456 33.3219089,9.27071899 33.0151241,9.45563038 C32.7083392,9.64054177 32.3532253,9.73194684 31.9508329,9.73194684 C31.5379342,9.73194684 31.1649595,9.6478962 30.8277063,9.48084557 C30.4915038,9.3127443 30.2267443,9.08160506 30.0334278,8.78742785 C29.8401114,8.49325063 29.7434532,8.16545316 29.7434532,7.80403544 C29.7434532,7.35016203 29.8590228,6.99294684 30.090162,6.73238987 C30.3213013,6.47183291 30.6974278,6.28271899 31.2185418,6.1650481 C31.7396557,6.04737722 32.4582886,5.98854177 33.3744405,5.98854177 L33.6896304,5.98854177 L33.6896304,5.69856709 C33.6896304,5.27831392 33.5992759,4.97573165 33.4185671,4.78976962 C33.2378582,4.60590886 32.9373772,4.51345316 32.5181747,4.51345316 C32.1893266,4.51345316 31.8468203,4.56913671 31.4896051,4.6836557 C31.1323899,4.79712405 30.7814785,4.95471899 30.4368709,5.15644051 L29.9956051,4.07218734 C30.3402127,3.8536557 30.7562633,3.67294684 31.2448076,3.53006076 C31.7323013,3.38612405 32.1935291,3.31573165 32.6305924,3.31573165 C33.4963139,3.31573165 34.1403519,3.52585823 34.5595544,3.94611139" id="Fill-59"></path>
                            <path d="M41.0777861,7.97991139 C41.3551532,7.62689873 41.4938367,7.131 41.4938367,6.49221519 C41.4938367,5.86183544 41.3572544,5.3785443 41.0840899,5.04234177 C40.8098747,4.70718987 40.4221911,4.53908861 39.9178873,4.53908861 C39.4135835,4.53908861 39.0248494,4.70929114 38.7516848,5.04864557 C38.4774696,5.38905063 38.341938,5.87864557 38.341938,6.51743038 C38.341938,7.15726582 38.4774696,7.64896203 38.7516848,7.99356962 C39.0248494,8.33817722 39.4135835,8.50943038 39.9178873,8.50943038 C40.4127354,8.50943038 40.7993684,8.33292405 41.0777861,7.97991139 M41.7575456,3.70698734 C42.1693937,3.9675443 42.491938,4.33631646 42.7220266,4.81540506 C42.9531658,5.29449367 43.0697861,5.85448101 43.0697861,6.49221519 C43.0697861,7.131 42.9531658,7.69624051 42.7220266,8.18793671 C42.491938,8.67963291 42.168343,9.05996203 41.7522924,9.32892405 C41.3362418,9.59788608 40.863457,9.73236709 40.333938,9.73236709 C39.887419,9.73236709 39.4902797,9.63570886 39.1414696,9.44344304 C38.7926595,9.24907595 38.5257987,8.98011392 38.341938,8.63550633 L38.341938,9.63150633 L36.7912038,9.63150633 L36.7912038,0.743151899 L38.3671532,0.743151899 L38.3671532,4.36258228 C38.5520646,4.02532911 38.8168241,3.76687342 39.1614316,3.58616456 C39.5060392,3.4054557 39.8968747,3.3161519 40.333938,3.3161519 C40.871862,3.3161519 41.3467481,3.44643038 41.7575456,3.70698734" id="Fill-60"></path>
                            <polygon id="Fill-61" points="44.3697342 9.63150633 45.9456835 9.63150633 45.9456835 0.743151899 44.3697342 0.743151899"></polygon>
                            <path d="M49.2541266,4.82801266 C48.9977722,5.09802532 48.8401772,5.48360759 48.7813418,5.98791139 L51.6306582,5.98791139 C51.6138481,5.47520253 51.4877722,5.08646835 51.2524304,4.82170886 C51.0170886,4.55694937 50.6892911,4.42456962 50.269038,4.42456962 C49.8487848,4.42456962 49.510481,4.55905063 49.2541266,4.82801266 L49.2541266,4.82801266 Z M52.9796709,6.83262025 L48.7813418,6.83262025 C48.8328228,7.40416456 49.0040759,7.82862025 49.2982532,8.10598734 C49.5924304,8.38335443 50.0126835,8.52308861 50.5590127,8.52308861 C51.2408734,8.52308861 51.8617975,8.30455696 52.4259873,7.86749367 L52.8788101,8.9506962 C52.593038,9.18603797 52.2337215,9.3751519 51.8008608,9.51803797 C51.368,9.66197468 50.933038,9.73236709 50.4970253,9.73236709 C49.4873671,9.73236709 48.6909873,9.44659494 48.1068354,8.87610127 C47.5226835,8.30455696 47.2306076,7.52183544 47.2306076,6.53003797 C47.2306076,5.90070886 47.3566835,5.34072152 47.6098861,4.85322785 C47.8609873,4.36678481 48.2161013,3.98750633 48.6741772,3.7185443 C49.1322532,3.44958228 49.6512658,3.3161519 50.2312152,3.3161519 C51.0801266,3.3161519 51.7504304,3.58826582 52.2421266,4.13459494 C52.7348734,4.68092405 52.9796709,5.43317722 52.9796709,6.39135443 L52.9796709,6.83262025 Z" id="Fill-62"></path>
                        </g>
                        <path d="M158.763338,81.8529114 L106.581553,81.8529114 C106.19492,81.8529114 105.881832,81.5398228 105.881832,81.1521392 C105.881832,80.7655063 106.19492,80.4524177 106.581553,80.4524177 L158.763338,80.4524177 C159.149971,80.4524177 159.46411,80.7655063 159.46411,81.1521392 C159.46411,81.5398228 159.149971,81.8529114 158.763338,81.8529114" id="Fill-63" fill="#8DBDFF"></path>
                        <path d="M158.763338,87.1060759 L106.581553,87.1060759 C106.19492,87.1060759 105.881832,86.7929873 105.881832,86.4053038 C105.881832,86.0186709 106.19492,85.7055823 106.581553,85.7055823 L158.763338,85.7055823 C159.149971,85.7055823 159.46411,86.0186709 159.46411,86.4053038 C159.46411,86.7929873 159.149971,87.1060759 158.763338,87.1060759" id="Fill-64" fill="#8DBDFF"></path>
                        <path d="M158.763338,92.3592405 L106.581553,92.3592405 C106.19492,92.3592405 105.881832,92.0461519 105.881832,91.6584684 C105.881832,91.2718354 106.19492,90.9587468 106.581553,90.9587468 L158.763338,90.9587468 C159.149971,90.9587468 159.46411,91.2718354 159.46411,91.6584684 C159.46411,92.0461519 159.149971,92.3592405 158.763338,92.3592405" id="Fill-65" fill="#8DBDFF"></path>
                        <path d="M138.100961,97.6124051 L106.581973,97.6124051 C106.195341,97.6124051 105.881201,97.2993165 105.881201,96.9116329 L105.881201,96.9116329 C105.881201,96.525 106.195341,96.2119114 106.581973,96.2119114 L138.100961,96.2119114 C138.487594,96.2119114 138.801733,96.525 138.801733,96.9116329 L138.801733,96.9116329 C138.801733,97.2993165 138.487594,97.6124051 138.100961,97.6124051" id="Fill-66" fill="#8DBDFF"></path>
                    </g>
                </g>
                <path d="M16.7596336,13.8261344 L15.0508076,13.8261344 C12.35746,13.8261344 10.1735905,11.6426563 10.1735905,8.94891729 L10.1735905,7.21739565 C10.1735905,6.64961308 9.78972097,6.12917833 9.23250362,6.02235225 C8.48198192,5.87835225 7.82576457,6.44965657 7.82576457,7.17396087 L7.82576457,8.94891729 C7.82576457,11.6426563 5.64228644,13.8261344 2.94893877,13.8261344 L1.24011278,13.8261344 C0.604243254,13.8261344 0.0345041571,14.3023518 0.0016345938,14.9374387 C-0.0335827954,15.6143952 0.504851955,16.1739603 1.17359105,16.1739603 L2.94893877,16.1739603 C5.64228644,16.1739603 7.82576457,18.3574385 7.82576457,21.0511774 L7.82576457,22.7596121 C7.82576457,23.3954817 8.30198193,23.9652208 8.93667755,23.9984816 C9.61363403,24.0340903 10.1735905,23.4956556 10.1735905,22.8261339 L10.1735905,21.0511774 C10.1735905,18.3574385 12.35746,16.1739603 15.0508076,16.1739603 L16.825764,16.1739603 C17.4948944,16.1739603 18.0333292,15.6143952 17.9981118,14.9374387 C17.9652422,14.3023518 17.3955031,13.8261344 16.7596336,13.8261344" id="Fill-1" fill="#4391FF" opacity="0.400000006"></path>
                <path d="M156.173136,5.21744492 L155.033914,5.21744492 C153.238341,5.21744492 151.782422,3.7617867 151.782422,1.96595315 L151.782422,0.811600523 C151.782422,0.43307721 151.526508,0.0861192469 151.155028,0.0149015596 C150.654678,-0.0810988393 150.217198,0.299772309 150.217198,0.78264388 L150.217198,1.96595315 C150.217198,3.7617867 148.76154,5.21744492 146.965967,5.21744492 L145.826745,5.21744492 C145.402831,5.21744492 145.023003,5.5349245 145.00109,5.95831756 C144.977611,6.40962379 145.336569,6.78266881 145.782397,6.78266881 L146.965967,6.78266881 C148.76154,6.78266881 150.217198,8.23832704 150.217198,10.0341606 L150.217198,11.1731218 C150.217198,11.5970366 150.534678,11.9768643 150.95781,11.9990383 C151.409116,12.0227775 151.782422,11.6638195 151.782422,11.2174699 L151.782422,10.0341606 C151.782422,8.23832704 153.238341,6.78266881 155.033914,6.78266881 L156.217223,6.78266881 C156.663312,6.78266881 157.02227,6.40962379 156.998792,5.95831756 C156.976879,5.5349245 156.597051,5.21744492 156.173136,5.21744492" id="Fill-1-Copy" fill="#4391FF" opacity="0.400000006"></path>
                <path d="M53.1731362,174.217445 L52.033914,174.217445 C50.2383414,174.217445 48.7824223,172.761787 48.7824223,170.965953 L48.7824223,169.811601 C48.7824223,169.433077 48.5265082,169.086119 48.1550284,169.014902 C47.6546784,168.918901 47.2171984,169.299772 47.2171984,169.782644 L47.2171984,170.965953 C47.2171984,172.761787 45.7615401,174.217445 43.9659675,174.217445 L42.8267453,174.217445 C42.4028305,174.217445 42.0230029,174.534924 42.0010897,174.958318 C41.9776114,175.409624 42.3365694,175.782669 42.7823973,175.782669 L43.9659675,175.782669 C45.7615401,175.782669 47.2171984,177.238327 47.2171984,179.034161 L47.2171984,180.173122 C47.2171984,180.597037 47.5346779,180.976864 47.9578101,180.999038 C48.4091164,181.022778 48.7824223,180.66382 48.7824223,180.21747 L48.7824223,179.034161 C48.7824223,177.238327 50.2383414,175.782669 52.033914,175.782669 L53.2172233,175.782669 C53.6633121,175.782669 54.0222701,175.409624 53.9987918,174.958318 C53.9768786,174.534924 53.597051,174.217445 53.1731362,174.217445" id="Fill-1-Copy-2" fill="#4391FF" opacity="0.400000006"></path>
            </g>
        </g>
    </g>
</svg>