<svg width="200" height="188" viewBox="0 0 200 188" xmlns="http://www.w3.org/2000/svg"><g fill="none" fill-rule="evenodd"><path d="M162.276 51.02v-8.4 8.4z" fill="#2A86E1"/><path d="M162.275 42.62v8.4" stroke="#2A86E1" stroke-linecap="round" stroke-linejoin="round"/><path d="M190.272 79.017h8.4-8.4z" fill="#FFF"/><path d="M198.672 79.017h-8.4" stroke="#2A86E1" stroke-linecap="round" stroke-linejoin="round"/><path d="M193.795 60.82l-7.274 4.2" fill="#FFF"/><path d="M193.795 60.82l-7.274 4.2" stroke="#2A86E1" stroke-linecap="round" stroke-linejoin="round"/><path d="M180.474 47.497l-4.2 7.275" fill="#FFF"/><path d="M180.474 47.497l-4.2 7.275" stroke="#2A86E1" stroke-linecap="round" stroke-linejoin="round"/><path d="M143.903 48.43c10.19 13.194 16.254 29.74 16.254 47.696 0 24.92-11.673 47.108-29.837 61.41-2.022 1.595-4.13 3.085-6.31 4.48-12.11 7.724-26.497 12.194-41.937 12.194-16.26 0-31.37-4.98-43.873-13.493-2.18-1.48-4.288-3.075-6.3-4.767C14.844 141.627 4 120.143 4 96.126c0-24.017 10.843-45.5 27.9-59.824 2.012-1.692 4.12-3.288 6.3-4.767 2.033-1.384 4.14-2.682 6.31-3.874 11.142-6.128 23.943-9.618 37.563-9.618 13.63 0 26.443 3.49 37.595 9.62 1.48.808 2.926 1.67 4.34 2.575 2.183 1.393 4.29 2.883 6.312 4.48 2.748 2.163 5.348 4.508 7.78 7.016" stroke="#2A86E1" stroke-width="2" stroke-linecap="round" stroke-linejoin="round"/><path d="M130.32 26.962v130.576c-13.28 10.45-30.03 16.675-48.247 16.675-19.1 0-36.605-6.864-50.172-18.26V26.963c0-9.333 7.566-16.9 16.877-16.9h64.655c9.332 0 16.888 7.567 16.888 16.9" fill="#D6E9FF"/><path d="M31.9 51.5V26.962c0-9.332 7.566-16.898 16.877-16.898h64.655c9.332 0 16.888 7.566 16.888 16.898V125m0 8.5v24.038c-13.28 10.45-30.03 16.675-48.247 16.675-19.1 0-36.605-6.864-50.172-18.26V64.5" stroke="#2A86E1" stroke-width="2" stroke-linecap="round" stroke-linejoin="round"/><path d="M124.01 27.66v134.355c-12.11 7.725-26.497 12.195-41.937 12.195-16.26 0-31.37-4.98-43.873-13.493V27.66h85.81z" fill="#FFF"/><path d="M124.01 27.66v134.355c-12.11 7.725-26.497 12.195-41.937 12.195-16.26 0-31.37-4.98-43.873-13.493V27.66h85.81z" stroke="#2A86E1"/><path d="M93.295 20.64H68.917c-1.425 0-2.58-1.157-2.58-2.583 0-1.425 1.155-2.58 2.58-2.58h24.378c1.426 0 2.582 1.155 2.582 2.58 0 1.426-1.156 2.582-2.582 2.582" fill="#4391FF"/><g opacity=".3" fill="#8DBDFF"><path d="M115.584 39.875H47.53c-1.19 0-2.154-.964-2.154-2.154v-.053c0-1.19.964-2.155 2.154-2.155h68.054c1.19 0 2.154.965 2.154 2.155v.054c0 1.19-.964 2.155-2.154 2.155M115.584 48.497H47.53c-1.19 0-2.154-.964-2.154-2.153v-.055c0-1.19.964-2.156 2.154-2.156h68.054c1.19 0 2.154.966 2.154 2.155v.054c0 1.19-.964 2.153-2.154 2.153M115.584 57.12H47.53c-1.19 0-2.154-.964-2.154-2.154v-.054c0-1.19.964-2.155 2.154-2.155h68.054c1.19 0 2.154.965 2.154 2.155v.054c0 1.19-.964 2.154-2.154 2.154M115.584 132.298H87.957c-1.188 0-2.154-.964-2.154-2.154v-.054c0-1.19.966-2.155 2.154-2.155h27.627c1.19 0 2.154.965 2.154 2.155v.054c0 1.19-.964 2.154-2.154 2.154M115.584 142.46H47.53c-1.19 0-2.154-.965-2.154-2.155v-.054c0-1.19.964-2.154 2.154-2.154h68.054c1.19 0 2.154.965 2.154 2.155v.055c0 1.19-.964 2.154-2.154 2.154M103.02 152.62H47.53c-1.19 0-2.154-.964-2.154-2.153v-.055c0-1.19.964-2.154 2.154-2.154h55.49c1.188 0 2.152.965 2.152 2.154v.055c0 1.19-.964 2.153-2.153 2.153M76.702 65.743H47.395c-1.116 0-2.02-.904-2.02-2.02V63.4c0-1.114.904-2.018 2.02-2.018h29.307c1.115 0 2.02.904 2.02 2.018v.326c0 1.115-.905 2.02-2.02 2.02M76.702 74.365H47.395c-1.116 0-2.02-.903-2.02-2.018v-.326c0-1.113.904-2.018 2.02-2.018h29.307c1.115 0 2.02.905 2.02 2.02v.325c0 1.115-.905 2.018-2.02 2.018M76.702 82.988H47.395c-1.116 0-2.02-.904-2.02-2.02v-.324c0-1.114.904-2.02 2.02-2.02h29.307c1.115 0 2.02.906 2.02 2.02v.325c0 1.114-.905 2.018-2.02 2.018"/></g><path d="M130.32 66.664v48.365H91.5c-3.34 0-6.054-2.714-6.054-6.055V72.718c0-3.34 2.714-6.054 6.055-6.054h38.82z" fill="#2A86E1" opacity=".3"/><path d="M170.903 111.67H91.505c-3.346 0-6.057-2.712-6.057-6.057v-37.38c0-3.346 2.71-6.058 6.057-6.058h79.398c3.345 0 6.058 2.712 6.058 6.058v37.38c0 3.345-2.712 6.058-6.057 6.058" fill="#FCFCFC"/><path d="M165 62.175h5.903c3.345 0 6.058 2.712 6.058 6.058v37.38c0 3.345-2.712 6.058-6.057 6.058H148.5m-6 0H91.505c-3.346 0-6.057-2.712-6.057-6.057v-37.38c0-3.346 2.71-6.058 6.057-6.058H158" stroke="#2A86E1" stroke-linecap="round" stroke-linejoin="round"/><path d="M77.476 98.597v30.263c0 2.352-1.894 4.246-4.235 4.246H31.9V94.352h41.34c2.342 0 4.236 1.904 4.236 4.245" fill="#2A86E1" opacity=".3"/><path d="M75.38 130.966H19.767c-2.343 0-4.242-1.9-4.242-4.242v-30.27c0-2.344 1.9-4.243 4.242-4.243h55.61c2.345 0 4.244 1.9 4.244 4.243v30.27c0 2.344-1.9 4.243-4.243 4.243" fill="#FCFCFC"/><path d="M52.5 92.21h22.88c2.343 0 4.242 1.9 4.242 4.243v30.27c0 2.344-1.9 4.243-4.243 4.243H19.767c-2.343 0-4.242-1.9-4.242-4.242v-30.27c0-2.344 1.9-4.243 4.242-4.243H45.5" stroke="#2A86E1"/><path d="M112 77.922c0-4.598-4.567-8.326-10.202-8.326-5.634 0-10.2 3.728-10.2 8.326 0 4.597 4.566 8.325 10.2 8.325 1.527 0 2.97-.28 4.27-.77l2.265 1.098c.208.1.44-.087.386-.31l-.455-1.905c2.28-1.527 3.735-3.844 3.735-6.438M32.68 102.232c0-2.776-2.758-5.026-6.16-5.026-3.4 0-6.158 2.25-6.158 5.026s2.757 5.026 6.158 5.026c.923 0 1.793-.17 2.578-.466l1.368.664c.125.06.265-.052.233-.188l-.276-1.15c1.376-.92 2.255-2.32 2.255-3.886" fill="#2A86E1"/><path d="M168.708 84.377h-50.282c-.373 0-.675-.332-.675-.743 0-.41.303-.743.676-.743h50.282c.373 0 .675.334.675.744s-.302.743-.675.743M168.708 89.946h-50.282c-.373 0-.675-.332-.675-.743 0-.41.303-.742.676-.742h50.282c.373 0 .675.334.675.743 0 .41-.302.743-.675.743M168.708 95.516h-50.282c-.373 0-.675-.332-.675-.743 0-.41.303-.743.676-.743h50.282c.373 0 .675.333.675.743s-.302.743-.675.743M148.798 101.085h-30.372c-.374 0-.675-.332-.675-.743 0-.41.302-.742.676-.742h30.372c.372 0 .675.333.675.742 0 .41-.303.743-.675.743M73.518 110.01h-33.14c-.384 0-.695-.31-.695-.694 0-.384.31-.695.695-.695h33.14c.384 0 .695.312.695.696 0 .384-.31.695-.695.695M73.518 115.222h-33.14c-.384 0-.695-.31-.695-.695 0-.384.31-.695.695-.695h33.14c.384 0 .695.31.695.695 0 .384-.31.695-.695.695M73.518 120.433h-33.14c-.384 0-.695-.31-.695-.695 0-.384.31-.695.695-.695h33.14c.384 0 .695.31.695.695 0 .384-.31.695-.695.695M53.022 125.644H40.378c-.384 0-.695-.31-.695-.695 0-.385.31-.696.695-.696h12.644c.384 0 .695.31.695.695 0 .383-.31.694-.695.694M166.296 78.04H121.34c-1.845 0-3.34-1.66-3.34-3.712 0-2.05 1.495-3.714 3.34-3.714h44.956c1.844 0 3.34 1.663 3.34 3.714 0 2.05-1.496 3.713-3.34 3.713M70.666 105.353H42.148c-2.05 0-3.713-1.662-3.713-3.713 0-2.05 1.662-3.714 3.713-3.714h28.518c2.05 0 3.714 1.663 3.714 3.714 0 2.05-1.664 3.713-3.714 3.713" fill="#8DBDFF"/><path d="M16.76 7.826h-1.71c-2.693 0-4.876-2.183-4.876-4.877V1.216c0-.567-.384-1.088-.94-1.195C8.48-.122 7.825.45 7.825 1.174V2.95c0 2.693-2.184 4.876-4.877 4.876H1.24c-.636 0-1.205.476-1.238 1.11-.036.678.503 1.238 1.172 1.238H2.95c2.692 0 4.876 2.183 4.876 4.877v1.71c0 .635.476 1.205 1.11 1.238.678.036 1.238-.502 1.238-1.172V15.05c0-2.693 2.183-4.876 4.877-4.876h1.776c.67 0 1.207-.56 1.172-1.237-.033-.635-.602-1.11-1.238-1.11M181.104 131.652h-1.234c-1.945 0-3.522-1.577-3.522-3.522v-1.25c0-.41-.278-.787-.68-.864-.542-.104-1.016.31-1.016.832v1.282c0 1.945-1.577 3.522-3.522 3.522h-1.234c-.46 0-.87.344-.895.803-.024.49.365.893.848.893h1.282c1.945 0 3.522 1.577 3.522 3.522v1.234c0 .46.344.87.802.895.49.025.894-.364.894-.848v-1.282c0-1.945 1.577-3.522 3.522-3.522h1.282c.483 0 .872-.404.847-.893-.025-.46-.436-.803-.896-.803M30.104 180.652H28.87c-1.945 0-3.522-1.577-3.522-3.522v-1.25c0-.41-.278-.787-.68-.864-.542-.104-1.016.31-1.016.832v1.282c0 1.945-1.577 3.522-3.522 3.522h-1.234c-.46 0-.87.344-.895.803-.024.49.365.893.848.893h1.282c1.945 0 3.522 1.577 3.522 3.522v1.234c0 .46.344.87.802.895.49.025.894-.364.894-.848v-1.282c0-1.945 1.577-3.522 3.522-3.522h1.282c.483 0 .872-.404.847-.893-.025-.46-.436-.803-.896-.803" fill="#4391FF" opacity=".4"/></g></svg>