<?xml version="1.0" encoding="UTF-8"?>
<svg width="199px" height="172px" viewBox="0 0 199 172" version="1.1" xmlns="http://www.w3.org/2000/svg" xmlns:xlink="http://www.w3.org/1999/xlink">
    <!-- Generator: sketchtool 42 (36781) - http://www.bohemiancoding.com/sketch -->
    <title>F0715899-AF13-4869-960A-7D5C623713AD</title>
    <desc>Created with sketchtool.</desc>
    <defs></defs>
    <g id="-" stroke="none" stroke-width="1" fill="none" fill-rule="evenodd">
        <g id="Onboarding_1" transform="translate(-108.000000, -121.000000)">
            <g id="Onboarding_ill_1" transform="translate(108.000000, 121.000000)">
                <g id="Group-4" transform="translate(4.000000, 7.000000)">
                    <g id="Group-3" transform="translate(158.410256, 36.324615)">
                        <path d="M18.8452538,5.30834103 L14.8009718,12.5537769" id="Fill-1" fill="#FFFFFF"></path>
                        <g id="Group-2" transform="translate(-1.000000, 3.000000)" stroke="#2A86E1" stroke-linecap="round" stroke-linejoin="round">
                            <path d="M18.8452538,5.30834103 L14.8009718,12.5537769" id="Stroke-2"></path>
                            <path d="M0.798525641,0.751979487 L0.918371795,9.04869744" id="Stroke-5"></path>
                            <path d="M37.2732821,36.1848103 L28.9765641,36.3046564" id="Stroke-10"></path>
                            <path d="M32.1959051,18.2776923 L25.0703154,22.5301282" id="Stroke-13"></path>
                        </g>
                    </g>
                    <path d="M159.329364,45.3740487 L159.209518,37.0762795 L159.329364,45.3740487 Z" id="Fill-4" fill="#FFFFFF"></path>
                    <g id="Group-8" transform="translate(182.923077, 86.478462)" fill="#FFFFFF">
                        <path d="M8.20399487,4.07758718 L0.958558974,0.0333051282" id="Fill-6"></path>
                    </g>
                    <path d="M187.38661,72.6299026 L195.683328,72.5100564 L187.38661,72.6299026 Z" id="Fill-9" fill="#FFFFFF"></path>
                    <g id="Group-14" transform="translate(182.923077, 53.940000)" fill="#FFFFFF">
                        <path d="M7.68308462,0.662307692 L0.557494872,4.91474359" id="Fill-12"></path>
                    </g>
                    <path d="M154.275641,85.0789744 C154.275641,109.7 142.743077,131.619231 124.797692,145.748462 L124.797692,145.748462 C122.800256,147.325385 120.718718,148.797179 118.56359,150.174359 C106.6,157.806667 92.3866667,162.222051 77.1325641,162.222051 C61.0689744,162.222051 46.1407692,157.302051 33.7882051,148.891795 C31.6330769,147.430513 29.5515385,145.85359 27.5646154,144.182051 C10.7125641,130.031795 0,108.80641 0,85.0789744 C0,61.3515385 10.7125641,40.1261538 27.5646154,25.9758974" id="Fill-15" fill="#FFFFFF"></path>
                    <path d="M20.3791132,32.8403038 C21.4015332,31.7299368 22.456117,30.6496479 23.5413864,29.6009154 M130.725594,29.5847648 C145.242617,43.6170717 154.275641,63.2981501 154.275641,85.0789744 C154.275641,94.4815856 152.593701,103.49016 149.514972,111.821302 M139.669565,130.260763 C135.453061,136.088566 130.442651,141.303924 124.797692,145.748462 C122.800256,147.325385 120.718718,148.797179 118.56359,150.174359 C106.6,157.806667 92.3866667,162.222051 77.1325641,162.222051 C61.0689744,162.222051 46.1407692,157.302051 33.7882051,148.891795 C31.6330769,147.430513 29.5515385,145.85359 27.5646154,144.182051 C10.7125641,130.031795 0,108.80641 0,85.0789744 C0,70.994315 3.77471799,57.7912875 10.3676316,46.4264143" id="Stroke-17" stroke="#2A86E1" stroke-width="2" stroke-linecap="round" stroke-linejoin="round"></path>
                    <path d="M123.797692,16.745641 L123.797692,145.748462 C110.677692,156.072051 94.1305128,162.222051 76.1325641,162.222051 C57.2620513,162.222051 39.9684615,155.441282 26.5646154,144.182051 L26.5646154,16.745641 C26.5646154,7.52589744 34.0392308,0.0512820513 43.2379487,0.0512820513 L107.113846,0.0512820513 C116.33359,0.0512820513 123.797692,7.52589744 123.797692,16.745641" id="Fill-19" fill="#D6E9FF"></path>
                    <path d="M25.378159,99.5 L25.378159,16.745641 C25.378159,7.52589744 33.0977274,0.0512820513 42.5978995,0.0512820513 L96.5726472,0.0512820513 M108.567094,0.0512820513 C118.088981,0.0512820513 125.797692,7.52589744 125.797692,16.745641 L125.797692,145.748462 M25.378159,144.182051 L25.378159,109.5" id="Stroke-21" stroke="#2A86E1" stroke-width="2" stroke-linecap="round" stroke-linejoin="round"></path>
                    <path d="M118.56359,17.4394872 L118.56359,150.174359 C106.6,157.806667 92.3866667,162.222051 77.1325641,162.222051 C61.0689744,162.222051 46.1407692,157.302051 33.7882051,148.891795 L33.7882051,17.4394872 L118.56359,17.4394872 Z" id="Fill-23" fill="#FFFFFF"></path>
                    <path d="M118.56359,17.4394872 L118.56359,150.174359 C106.6,157.806667 92.3866667,162.222051 77.1325641,162.222051 C61.0689744,162.222051 46.1407692,157.302051 33.7882051,148.891795 L33.7882051,17.4394872 L118.56359,17.4394872 Z" id="Stroke-25" stroke="#2A86E1"></path>
                    <path d="M88.2191744,10.5016564 L64.1353538,10.5016564 C62.7266359,10.5016564 61.5849436,9.3599641 61.5849436,7.95124615 C61.5849436,6.54252821 62.7266359,5.4008359 64.1353538,5.4008359 L88.2191744,5.4008359 C89.6278923,5.4008359 90.7695846,6.54252821 90.7695846,7.95124615 C90.7695846,9.3599641 89.6278923,10.5016564 88.2191744,10.5016564" id="Fill-27" fill="#4391FF"></path>
                    <g id="Group-37" opacity="0.300000012" transform="translate(41.000000, 25.555385)">
                        <path d="M22.3145128,4.35787949 L2.57353846,4.35787949 C1.58953846,4.35787949 0.791615385,3.55995641 0.791615385,2.57595641 C0.791615385,1.59195641 1.58953846,0.794033333 2.57353846,0.794033333 L22.3145128,0.794033333 C23.2985128,0.794033333 24.0964359,1.59195641 24.0964359,2.57595641 C24.0964359,3.55995641 23.2985128,4.35787949 22.3145128,4.35787949" id="Fill-29" fill="#4391FF"></path>
                        <path d="M54.9141385,11.5344564 L2.73795897,11.5344564 C1.66354872,11.5344564 0.792035897,10.6629436 0.792035897,9.58748205 L0.792035897,9.17117436 C0.792035897,8.09571282 1.66354872,7.2242 2.73795897,7.2242 L54.9141385,7.2242 C55.9896,7.2242 56.8611128,8.09571282 56.8611128,9.17117436 L56.8611128,9.58748205 C56.8611128,10.6629436 55.9896,11.5344564 54.9141385,11.5344564" id="Fill-31" fill="#8DBDFF"></path>
                        <path d="M71.9526872,18.0122462 L2.94653333,18.0122462 C1.75648205,18.0122462 0.791405128,17.0471692 0.791405128,15.8571179 L0.791405128,15.8571179 C0.791405128,14.6670667 1.75648205,13.7019897 2.94653333,13.7019897 L71.9526872,13.7019897 C73.1427385,13.7019897 74.1078154,14.6670667 74.1078154,15.8571179 L74.1078154,15.8571179 C74.1078154,17.0471692 73.1427385,18.0122462 71.9526872,18.0122462" id="Fill-33" fill="#8DBDFF"></path>
                        <path d="M37.1121487,24.490141 L2.94653333,24.490141 C1.75648205,24.490141 0.791405128,23.5250641 0.791405128,22.3350128 C0.791405128,21.1449615 1.75648205,20.1798846 2.94653333,20.1798846 L37.1121487,20.1798846 C38.3022,20.1798846 39.2672769,21.1449615 39.2672769,22.3350128 C39.2672769,23.5250641 38.3022,24.490141 37.1121487,24.490141" id="Fill-35" fill="#8DBDFF"></path>
                    </g>
                    <path d="M125.775385,101.229051 L44.6688903,101.229051 C42.6424066,101.229051 41,99.6016667 41,97.5937179 L41,67.6363846 C41,65.6284359 42.6424066,64 44.6688903,64 L125.775385,64 L125.775385,101.229051 Z" id="Combined-Shape" fill="#95C0FF" opacity="0.339617301"></path>
                    <g id="Group-46" opacity="0.300000012" transform="translate(41.000000, 113.863077)">
                        <path d="M22.3145128,3.813 L2.57353846,3.813 C1.58953846,3.813 0.791615385,3.01507692 0.791615385,2.03107692 L0.791615385,2.03107692 C0.791615385,1.04707692 1.58953846,0.249153846 2.57353846,0.249153846 L22.3145128,0.249153846 C23.2985128,0.249153846 24.0964359,1.04707692 24.0964359,2.03107692 L24.0964359,2.03107692 C24.0964359,3.01507692 23.2985128,3.813 22.3145128,3.813" id="Fill-38" fill="#4391FF"></path>
                        <path d="M65.9449256,10.9895769 L2.73869487,10.9895769 C1.66323333,10.9895769 0.791720513,10.1180641 0.791720513,9.04260256 L0.791720513,8.62629487 C0.791720513,7.55083333 1.66323333,6.67932051 2.73869487,6.67932051 L65.9449256,6.67932051 C67.0203872,6.67932051 67.8919,7.55083333 67.8919,8.62629487 L67.8919,9.04260256 C67.8919,10.1180641 67.0203872,10.9895769 65.9449256,10.9895769" id="Fill-40" fill="#8DBDFF"></path>
                        <path d="M53.0460103,17.4673667 L2.9471641,17.4673667 C1.75711282,17.4673667 0.792035897,16.5022897 0.792035897,15.3122385 L0.792035897,15.3122385 C0.792035897,14.1221872 1.75711282,13.1571103 2.9471641,13.1571103 L53.0460103,13.1571103 C54.2360615,13.1571103 55.2011385,14.1221872 55.2011385,15.3122385 L55.2011385,15.3122385 C55.2011385,16.5022897 54.2360615,17.4673667 53.0460103,17.4673667" id="Fill-42" fill="#8DBDFF"></path>
                        <path d="M62.151059,23.9452615 L2.94705897,23.9452615 C1.75700769,23.9452615 0.791930769,22.9801846 0.791930769,21.7901333 L0.791930769,21.7901333 C0.791930769,20.6000821 1.75700769,19.6350051 2.94705897,19.6350051 L62.151059,19.6350051 C63.3411103,19.6350051 64.3061872,20.6000821 64.3061872,21.7901333 L64.3061872,21.7901333 C64.3061872,22.9801846 63.3411103,23.9452615 62.151059,23.9452615" id="Fill-44" fill="#8DBDFF"></path>
                    </g>
                    <path d="M170.283513,64.6363846 L170.283513,94.5937179 C170.283513,96.6016667 168.655077,98.2290513 166.647128,98.2290513 L44.6353333,98.2290513 C42.6273846,98.2290513 41,96.6016667 41,94.5937179 L41,64.6363846 C41,62.6284359 42.6273846,61 44.6353333,61 L166.647128,61 C168.655077,61 170.283513,62.6284359 170.283513,64.6363846" id="Fill-47" fill="#FCFCFC"></path>
                    <path d="M170.714223,64.5447026 L170.714223,94.5020359 C170.714223,96.5099846 169.085787,98.1373692 167.077838,98.1373692 L45.0660436,98.1373692 C43.0580949,98.1373692 41.4307103,96.5099846 41.4307103,94.5020359 L41.4307103,64.5447026 C41.4307103,62.5367538 43.0580949,60.9083179 45.0660436,60.9083179 L167.077838,60.9083179 C169.085787,60.9083179 170.714223,62.5367538 170.714223,64.5447026 Z" id="Stroke-49" stroke="#2A86E1"></path>
                    <path d="M71.2756615,69.9055051 L48.1579692,69.9055051 C47.0057641,69.9055051 46.0711744,68.9709154 46.0711744,67.8187103 C46.0711744,66.6654538 47.0057641,65.7319154 48.1579692,65.7319154 L71.2756615,65.7319154 C72.4278667,65.7319154 73.3624564,66.6654538 73.3624564,67.8187103 C73.3624564,68.9709154 72.4278667,69.9055051 71.2756615,69.9055051" id="Fill-51" fill="#4391FF"></path>
                    <path d="M62.0877718,94.0568179 L47.7514385,94.0568179 C46.8242077,94.0568179 46.0714897,93.3041 46.0714897,92.3758179 L46.0714897,91.5631769 C46.0714897,90.6348949 46.8242077,89.8832282 47.7514385,89.8832282 L62.0877718,89.8832282 C63.0160538,89.8832282 63.7687718,90.6348949 63.7687718,91.5631769 L63.7687718,92.3758179 C63.7687718,93.3041 63.0160538,94.0568179 62.0877718,94.0568179" id="Fill-53" fill="#4391FF"></path>
                    <path d="M130.3841,94.0568179 L119.2731,94.0568179 C118.44469,94.0568179 117.771869,93.3850487 117.771869,92.5555872 L117.771869,91.3834077 C117.771869,90.5549974 118.44469,89.8832282 119.2731,89.8832282 L130.3841,89.8832282 C131.21251,89.8832282 131.885331,90.5549974 131.885331,91.3834077 L131.885331,92.5555872 C131.885331,93.3850487 131.21251,94.0568179 130.3841,94.0568179" id="Fill-55" fill="#4391FF"></path>
                    <path d="M124.015013,78.3097692 L48.5949872,78.3097692 C47.2009872,78.3097692 46.070859,77.179641 46.070859,75.7866923 C46.070859,74.3926923 47.2009872,73.2625641 48.5949872,73.2625641 L124.015013,73.2625641 C125.409013,73.2625641 126.53809,74.3926923 126.53809,75.7866923 C126.53809,77.179641 125.409013,78.3097692 124.015013,78.3097692" id="Fill-57" fill="#8DBDFF"></path>
                    <path d="M98.9733692,85.4846641 L48.5948821,85.4846641 C47.2008821,85.4846641 46.0718051,84.3545359 46.0718051,82.9615872 L46.0718051,82.9615872 C46.0718051,81.5675872 47.2008821,80.437459 48.5948821,80.437459 L98.9733692,80.437459 C100.367369,80.437459 101.496446,81.5675872 101.496446,82.9615872 L101.496446,82.9615872 C101.496446,84.3545359 100.367369,85.4846641 98.9733692,85.4846641" id="Fill-59" fill="#8DBDFF"></path>
                    <path d="M170.714223,64.5447026 L170.714223,94.5020359 C170.714223,96.5099846 169.085787,98.1373692 167.077838,98.1373692 L136.890274,98.1373692 L136.890274,60.9083179 L167.077838,60.9083179 C169.085787,60.9083179 170.714223,62.5367538 170.714223,64.5447026" id="Fill-61" fill="#D6E9FF"></path>
                    <path d="M170.714223,64.5447026 L170.714223,94.5020359 C170.714223,96.5099846 169.085787,98.1373692 167.077838,98.1373692 L136.890274,98.1373692 L136.890274,60.9083179 L167.077838,60.9083179 C169.085787,60.9083179 170.714223,62.5367538 170.714223,64.5447026 Z" id="Stroke-63" stroke="#2A86E1"></path>
                    <path d="M164.14739,80.3122513 C164.14739,86.0354308 159.508082,90.6757897 153.783851,90.6757897 C148.060672,90.6757897 143.420313,86.0354308 143.420313,80.3122513 C143.420313,74.5890718 148.060672,69.9487128 153.783851,69.9487128 C159.508082,69.9487128 164.14739,74.5890718 164.14739,80.3122513" id="Fill-65" fill="#2A86E1"></path>
                    <polyline id="Stroke-67" stroke="#FCFCFC" points="149.646426 80.0952667 153.007374 83.4562154 158.851451 77.6121385"></polyline>
                </g>
                <g id="Page-1" transform="translate(0.000000, 11.000000)" fill="#4391FF" opacity="0.400000006">
                    <path d="M16.7598872,7.82606095 L15.0510612,7.82606095 C12.3577136,7.82606095 10.1738441,5.64258282 10.1738441,2.94884385 L10.1738441,1.21732221 C10.1738441,0.649539633 9.7899746,0.129104881 9.23275724,0.0222788005 C8.48223554,-0.121721191 7.82601819,0.449583123 7.82601819,1.17388743 L7.82601819,2.94884385 C7.82601819,5.64258282 5.64254006,7.82606095 2.94919239,7.82606095 L1.2403664,7.82606095 C0.604496877,7.82606095 0.0347577798,8.30227831 0.00188821649,8.93736523 C-0.0333291727,9.61432171 0.505105578,10.1738869 1.17384467,10.1738869 L2.94919239,10.1738869 C5.64254006,10.1738869 7.82601819,12.357365 7.82601819,15.051104 L7.82601819,16.7595387 C7.82601819,17.3954082 8.30223555,17.9651473 8.93693117,17.9984082 C9.61388765,18.0340169 10.1738441,17.4955821 10.1738441,16.8260604 L10.1738441,15.051104 C10.1738441,12.357365 12.3577136,10.1738869 15.0510612,10.1738869 L16.8260177,10.1738869 C17.4951481,10.1738869 18.0335828,9.61432171 17.9983654,8.93736523 C17.9654959,8.30227831 17.3957568,7.82606095 16.7598872,7.82606095" id="Fill-1"></path>
                </g>
                <g id="Page-1-Copy" transform="translate(150.000000, 161.000000)" fill="#4391FF" opacity="0.400000006">
                    <path d="M10.2421533,4.7825928 L9.19787076,4.7825928 C7.55193607,4.7825928 6.2173492,3.44824506 6.2173492,1.80207124 L6.2173492,0.743919127 C6.2173492,0.396940887 5.98276225,0.0788974274 5.64224053,0.0136148226 C5.18358839,-0.0743851723 4.78256667,0.274745242 4.78256667,0.717375651 L4.78256667,1.80207124 C4.78256667,3.44824506 3.44821892,4.7825928 1.80228424,4.7825928 L0.758001692,4.7825928 C0.369414758,4.7825928 0.0212408654,5.07361452 0.00115391008,5.4617232 C-0.0203678278,5.87541883 0.308675631,6.21737533 0.71734952,6.21737533 L1.80228424,6.21737533 C3.44821892,6.21737533 4.78256667,7.55172307 4.78256667,9.19789689 L4.78256667,10.2419403 C4.78256667,10.6305272 5.07358839,10.9787011 5.46145794,10.9990272 C5.87515356,11.0207881 6.2173492,10.6917446 6.2173492,10.2825925 L6.2173492,9.19789689 C6.2173492,7.55172307 7.55193607,6.21737533 9.19787076,6.21737533 L10.2825663,6.21737533 C10.6914794,6.21737533 11.0205228,5.87541883 10.9990011,5.4617232 C10.9789141,5.07361452 10.6307402,4.7825928 10.2421533,4.7825928" id="Fill-1"></path>
                </g>
                <g id="Page-1-Copy-2" transform="translate(139.000000, 0.000000)" fill="#4391FF" opacity="0.400000006">
                    <path d="M10.2421533,4.7825928 L9.19787076,4.7825928 C7.55193607,4.7825928 6.2173492,3.44824506 6.2173492,1.80207124 L6.2173492,0.743919127 C6.2173492,0.396940887 5.98276225,0.0788974274 5.64224053,0.0136148226 C5.18358839,-0.0743851723 4.78256667,0.274745242 4.78256667,0.717375651 L4.78256667,1.80207124 C4.78256667,3.44824506 3.44821892,4.7825928 1.80228424,4.7825928 L0.758001692,4.7825928 C0.369414758,4.7825928 0.0212408654,5.07361452 0.00115391008,5.4617232 C-0.0203678278,5.87541883 0.308675631,6.21737533 0.71734952,6.21737533 L1.80228424,6.21737533 C3.44821892,6.21737533 4.78256667,7.55172307 4.78256667,9.19789689 L4.78256667,10.2419403 C4.78256667,10.6305272 5.07358839,10.9787011 5.46145794,10.9990272 C5.87515356,11.0207881 6.2173492,10.6917446 6.2173492,10.2825925 L6.2173492,9.19789689 C6.2173492,7.55172307 7.55193607,6.21737533 9.19787076,6.21737533 L10.2825663,6.21737533 C10.6914794,6.21737533 11.0205228,5.87541883 10.9990011,5.4617232 C10.9789141,5.07361452 10.6307402,4.7825928 10.2421533,4.7825928" id="Fill-1"></path>
                </g>
            </g>
        </g>
    </g>
</svg>