<svg width="69" height="69" viewBox="0 0 69 69" xmlns="http://www.w3.org/2000/svg" xmlns:xlink="http://www.w3.org/1999/xlink"><defs><ellipse id="menu-recommended-notification1" cx="27.5" cy="27.5" rx="27.5" ry="27.5"/><mask id="menu-recommended-notification2" x="-7" y="-7" width="69" height="69"><path fill="#fff" d="M-7-7h69v69H-7z"/><use xlink:href="#menu-recommended-notification1"/></mask></defs><g fill="none" fill-rule="evenodd"><g transform="translate(7 7)"><use fill="#FC694F" xlink:href="#menu-recommended-notification1"/><use stroke="#FFF" mask="url(#menu-recommended-notification2)" stroke-width="14" xlink:href="#menu-recommended-notification1"/></g><path d="M34.456 20.647c-.42 0-.763.342-.763.763 0 .053.005.104.015.154-.42.157-.968.368-1.672.65-4.686 1.87-6.78 4.23-6.7 12.15.046 4.405-1.277 7.205-2.46 8.823-.557.762-.036 1.83.908 1.83H46c.96 0 1.475-1.103.884-1.862-1.264-1.623-2.665-4.415-2.616-8.79.087-7.92-2.162-10.28-7.192-12.15-.797-.298-1.406-.516-1.866-.678.008-.04.01-.083.01-.127 0-.42-.34-.763-.764-.763z" stroke="#FFF" stroke-width="1.3"/><path d="M37.772 47.326H32c0 1.43 1.293 2.588 2.886 2.588 1.594 0 2.886-1.158 2.886-2.588" fill="#FFF"/></g></svg>