<?xml version="1.0" encoding="UTF-8"?>
<svg width="69px" height="69px" viewBox="0 0 69 69" version="1.1" xmlns="http://www.w3.org/2000/svg" xmlns:xlink="http://www.w3.org/1999/xlink">
    <!-- Generator: sketchtool 42 (36781) - http://www.bohemiancoding.com/sketch -->
    <title>D82F6BA0-1D1B-4904-8D10-0FCD64DCB173</title>
    <desc>Created with sketchtool.</desc>
    <defs>
        <ellipse id="path-1" cx="27.5" cy="27.5" rx="27.5" ry="27.5"></ellipse>
        <mask id="mask-2" maskContentUnits="userSpaceOnUse" maskUnits="objectBoundingBox" x="-7" y="-7" width="69" height="69">
            <rect x="-7" y="-7" width="69" height="69" fill="white"></rect>
            <use xlink:href="#path-1" fill="black"></use>
        </mask>
    </defs>
    <g id="Orders" stroke="none" stroke-width="1" fill="none" fill-rule="evenodd">
        <g id="Recommended" transform="translate(-153.000000, -597.000000)">
            <g id="Group-7" transform="translate(0.000000, 604.000000)">
                <g id="Recommended_notification" transform="translate(160.000000, 0.000000)">
                    <g id="Group-8">
                        <g id="Group-9">
                            <g id="Oval-3">
                                <use fill="#FC694F" fill-rule="evenodd" xlink:href="#path-1"></use>
                                <use stroke="#FFFFFF" mask="url(#mask-2)" stroke-width="14" xlink:href="#path-1"></use>
                            </g>
                            <g id="Page-1" transform="translate(15.000000, 13.000000)">
                                <path d="M12.4562822,0.646790123 C12.0353711,0.646790123 11.6930699,0.989091358 11.6930699,1.41000247 C11.6930699,1.46274074 11.6980452,1.51448395 11.7079958,1.56423704 C11.2870847,1.72145679 10.7398007,1.93240988 10.0362921,2.21401235 C5.34955136,4.08373333 3.25494642,6.44401975 3.33654148,14.363716 C3.38231432,18.7688543 2.05888222,21.568958 0.875753827,23.1869284 C0.318519259,23.9491457 0.839931605,25.0158519 1.78424519,25.0158519 L12.4513069,25.0158519 L12.484144,25.0158519 L23.9989983,25.0158519 C24.961223,25.0158519 25.4746748,23.9143185 24.8836081,23.1550864 C23.6198798,21.5321407 22.2188328,18.7399975 22.2675909,14.363716 C22.3551563,6.44401975 20.1063168,4.0847284 15.0762798,2.21401235 C14.2792353,1.91748395 13.6702575,1.69857037 13.209544,1.53737037 C13.2175044,1.49657284 13.2214847,1.45378519 13.2214847,1.41000247 C13.2214847,0.989091358 12.8791835,0.646790123 12.4562822,0.646790123 Z" id="Stroke-1" stroke="#FFFFFF" stroke-width="1.3"></path>
                                <path d="M15.7722796,27.325925 L10.0003781,27.325925 C10.0003781,28.7558288 11.2927604,29.9140806 12.8857741,29.9140806 C14.4798972,29.9140806 15.7722796,28.7558288 15.7722796,27.325925" id="Fill-3" fill="#FFFFFF"></path>
                            </g>
                        </g>
                    </g>
                </g>
            </g>
        </g>
    </g>
</svg>