<?xml version="1.0" encoding="UTF-8"?>
<svg width="20px" height="18px" viewBox="0 0 20 18" version="1.1" xmlns="http://www.w3.org/2000/svg" xmlns:xlink="http://www.w3.org/1999/xlink">
    <!-- Generator: sketchtool 42 (36781) - http://www.bohemiancoding.com/sketch -->
    <title>5E88793B-9606-480C-9179-75BE631E5D34</title>
    <desc>Created with sketchtool.</desc>
    <defs></defs>
    <g id="Orders" stroke="none" stroke-width="1" fill="none" fill-rule="evenodd">
        <g id="Open-Order-Reserved" transform="translate(-25.000000, -837.000000)" fill="#7E8994">
            <g id="Screpka" transform="translate(25.000000, 837.000000)">
                <path d="M18.108283,1.48188438 C16.1323615,-0.49403706 12.9278994,-0.49403706 10.9517929,1.48188438 L1.11198922,11.321688 C-0.370738674,12.8044159 -0.370738674,15.2068831 1.11198922,16.6894259 C2.33423538,17.9114869 4.17723153,18.1090235 5.61811943,17.3157298 C5.76881745,17.3081394 5.91673849,17.2511185 6.03189104,17.1372619 L15.8716947,7.29745826 C16.859748,6.30940497 16.859748,4.70782188 15.8716947,3.72013886 C14.8836414,2.73208558 13.2820583,2.73208558 12.294005,3.72013886 L4.24332391,11.7710051 C3.996542,12.017787 3.996542,12.4187845 4.24332391,12.6651961 C4.48973555,12.9121631 4.890733,12.9121631 5.13751491,12.6651961 L13.1883812,4.614515 C13.6830558,4.11984039 14.484125,4.11984039 14.9773185,4.614515 C15.4719932,5.10881934 15.4719932,5.90988858 14.9773185,6.40326726 L5.58405501,15.7965308 C4.59600172,16.7842138 2.99441863,16.7842138 2.00636535,15.7965308 C1.01831206,14.8082924 1.01831206,13.2068944 2.00636535,12.218656 L11.846169,2.37663077 C13.3288969,0.893717749 15.731179,0.893717749 17.2139068,2.37663077 C18.6968199,3.8589884 18.6968199,6.2614556 17.2139068,7.74418349 L8.26847933,16.6894259 C8.02188256,16.9362078 8.02188256,17.3372052 8.26847933,17.583802 C8.51544637,17.8305839 8.91644382,17.8305839 9.16322573,17.583802 L18.108283,8.63855962 C20.0843895,6.66245306 20.0843895,3.45799094 18.108283,1.48188438" id="Fill-1"></path>
            </g>
        </g>
    </g>
</svg>