<svg width="76" height="76" viewBox="0 0 76 76" xmlns="http://www.w3.org/2000/svg" xmlns:xlink="http://www.w3.org/1999/xlink"><defs><linearGradient x1="50%" y1="0%" x2="50%" y2="100%" id="b"><stop stop-color="#FFF" offset="0%"/><stop stop-color="#D6E9FF" offset="100%"/></linearGradient><path d="M62.422 7.595H11.43c-1.743 0-2.615 2.106-1.383 3.338L32.02 32.906c2.452 2.453 2.452 6.43 0 8.883L10.046 63.76c-1.232 1.234-.36 3.34 1.383 3.34h50.992c1.743 0 2.615-2.106 1.383-3.34L41.832 41.79c-2.453-2.454-2.453-6.43 0-8.884l9.54-9.54c2.222-2.222 4.422-4.422 6.09-6.088l6.343-6.345c1.232-1.232.36-3.338-1.383-3.338z" id="a"/><mask id="c" x="-2" y="-2" width="58.912" height="63.506"><path fill="#fff" d="M7.47 5.595h58.912V69.1H7.47z"/><use xlink:href="#a"/></mask></defs><g transform="translate(1 1)" fill="none" fill-rule="evenodd"><path d="M62.422 7.595H11.43c-1.743 0-2.615 2.106-1.383 3.338L32.02 32.906c2.452 2.453 2.452 6.43 0 8.883L10.046 63.76c-1.232 1.234-.36 3.34 1.383 3.34h50.992c1.743 0 2.615-2.106 1.383-3.34L41.832 41.79c-2.453-2.454-2.453-6.43 0-8.884l21.973-21.973c1.232-1.232.36-3.338-1.383-3.338" fill="url(#b)"/><use stroke="#2A86E1" mask="url(#c)" stroke-width="4" xlink:href="#a"/><path d="M10.037 10.934L32.01 32.906c2.453 2.453 2.453 6.43 0 8.883L10.037 63.76c-1.232 1.232-.36 3.338 1.384 3.338h1.29c-1.744 0-2.617-2.106-1.385-3.338L33.298 41.79c2.453-2.454 2.453-6.43 0-8.884L11.325 10.934c-1.232-1.232-.36-3.34 1.384-3.34h-1.29c-1.742 0-2.615 2.108-1.383 3.34M63.615 63.762L41.642 41.79c-2.452-2.454-2.452-6.43 0-8.884l21.973-21.972c1.232-1.232.36-3.34-1.383-3.34h-1.288c1.742 0 2.615 2.108 1.383 3.34L40.354 32.906c-2.452 2.453-2.452 6.43 0 8.883L62.327 63.76c1.232 1.232.36 3.338-1.383 3.338h1.288c1.742 0 2.615-2.106 1.383-3.338" fill="#8DBDFF" opacity=".45"/><path d="M69.577 9.903H4.252C1.904 9.903 0 7.87 0 5.363S1.904.823 4.252.823h65.325c2.348 0 4.252 2.033 4.252 4.54s-1.905 4.54-4.253 4.54" fill="#FFF"/><path d="M69.577 3.765H4.252c-1.865 0-3.446 1.285-4.02 3.07C.086 6.37 0 5.878 0 5.362 0 2.856 1.904.823 4.252.823h65.325c2.348 0 4.252 2.033 4.252 4.54 0 .516-.085 1.01-.234 1.47-.573-1.783-2.154-3.068-4.02-3.068" fill="#2A86E1" opacity=".1"/><path d="M22 9.903H4.252C1.904 9.903 0 7.87 0 5.363S1.904.823 4.252.823h65.325c2.348 0 4.252 2.033 4.252 4.54s-1.905 4.54-4.253 4.54H30.5" stroke="#2A86E1" stroke-width="2" stroke-linecap="round" stroke-linejoin="round"/><path d="M69.577 64.786H4.252C1.904 64.786 0 66.82 0 69.326s1.904 4.54 4.252 4.54h65.325c2.348 0 4.252-2.033 4.252-4.54s-1.905-4.54-4.253-4.54" fill="#FFF"/><path d="M69.577 70.924H4.252c-1.865 0-3.446-1.285-4.02-3.07-.147.463-.232.956-.232 1.472 0 2.507 1.904 4.54 4.252 4.54h65.325c2.348 0 4.252-2.033 4.252-4.54 0-.516-.085-1.01-.234-1.47-.573 1.783-2.154 3.068-4.02 3.068" fill="#2A86E1" opacity=".1"/><path d="M50.5 73.866h19.077c2.348 0 4.252-2.033 4.252-4.54s-1.905-4.54-4.253-4.54H4.252C1.904 64.786 0 66.82 0 69.326s1.904 4.54 4.252 4.54H43" stroke="#2A86E1" stroke-width="2" stroke-linecap="round" stroke-linejoin="round"/><path d="M24.675 64.69l7.905-8.2c2.22-2.3 5.886-2.366 8.187-.145l8.643 8.344H24.675z" fill="#2A86E1"/><path d="M42.158 52.934c0 .567-.46 1.026-1.026 1.026-.567 0-1.027-.46-1.027-1.026 0-.566.46-1.026 1.027-1.026.566 0 1.026.46 1.026 1.026M38.364 46.576c0 .697-.565 1.263-1.263 1.263-.697 0-1.262-.567-1.262-1.264 0-.697.565-1.263 1.263-1.263.7 0 1.264.566 1.264 1.263" fill="#0063FF" opacity=".67"/></g></svg>