<?xml version="1.0" encoding="UTF-8"?>
<svg width="76px" height="76px" viewBox="0 0 76 76" version="1.1" xmlns="http://www.w3.org/2000/svg" xmlns:xlink="http://www.w3.org/1999/xlink">
    <!-- Generator: sketchtool 42 (36781) - http://www.bohemiancoding.com/sketch -->
    <title>09E53EEA-BD46-4A47-B4F9-5862CD5F59A9</title>
    <desc>Created with sketchtool.</desc>
    <defs>
        <linearGradient x1="50%" y1="0%" x2="50%" y2="100%" id="linearGradient-1">
            <stop stop-color="#FFFFFF" offset="0%"></stop>
            <stop stop-color="#D6E9FF" offset="100%"></stop>
        </linearGradient>
        <path d="M62.422,7.5948 L11.43,7.5948 C9.68733333,7.5948 8.81466667,9.70146667 10.0466667,10.9334667 L32.0193333,32.9061333 C34.472,35.3594667 34.472,39.3361333 32.0193333,41.7888 L10.0466667,63.7614667 C8.81466667,64.9941333 9.68733333,67.1008 11.43,67.1008 L62.422,67.1008 C64.1646667,67.1008 65.0373333,64.9941333 63.8053333,63.7614667 L41.832,41.7888 C39.3793333,39.3361333 39.3793333,35.3594667 41.832,32.9061333 C41.832,32.9061333 46.6508968,28.0873827 51.3728853,23.3655375 C53.5942483,21.1442419 55.7941651,18.9443918 57.4608614,17.2777461 C59.5756854,15.1629863 63.8053333,10.9334667 63.8053333,10.9334667 C65.0373333,9.70146667 64.1646667,7.5948 62.422,7.5948 Z" id="path-2"></path>
        <mask id="mask-3" maskContentUnits="userSpaceOnUse" maskUnits="objectBoundingBox" x="-2" y="-2" width="58.9120296" height="63.506">
            <rect x="7.46998522" y="5.5948" width="58.9120296" height="63.506" fill="white"></rect>
            <use xlink:href="#path-2" fill="black"></use>
        </mask>
    </defs>
    <g id="Orders" stroke="none" stroke-width="1" fill="none" fill-rule="evenodd">
        <g id="Too-late-notification" transform="translate(-150.000000, -163.000000)">
            <g id="Too_late_ill" transform="translate(151.000000, 164.000000)">
                <path d="M62.422,7.5948 L11.43,7.5948 C9.68733333,7.5948 8.81466667,9.70146667 10.0466667,10.9334667 L32.0193333,32.9061333 C34.472,35.3594667 34.472,39.3361333 32.0193333,41.7888 L10.0466667,63.7614667 C8.81466667,64.9941333 9.68733333,67.1008 11.43,67.1008 L62.422,67.1008 C64.1646667,67.1008 65.0373333,64.9941333 63.8053333,63.7614667 L41.832,41.7888 C39.3793333,39.3361333 39.3793333,35.3594667 41.832,32.9061333 L63.8053333,10.9334667 C65.0373333,9.70146667 64.1646667,7.5948 62.422,7.5948" id="Fill-1" fill="url(#linearGradient-1)"></path>
                <use id="Stroke-3" stroke="#2A86E1" mask="url(#mask-3)" stroke-width="4" xlink:href="#path-2"></use>
                <path d="M10.0372667,10.9337333 L32.0099333,32.9064 C34.4626,35.3590667 34.4626,39.3364 32.0099333,41.7890667 L10.0372667,63.7617333 C8.80526667,64.9937333 9.67793333,67.1004 11.4206,67.1004 L12.7086,67.1004 C10.9659333,67.1004 10.0932667,64.9937333 11.3252667,63.7617333 L33.2979333,41.7890667 C35.7506,39.3364 35.7506,35.3590667 33.2979333,32.9064 L11.3252667,10.9337333 C10.0932667,9.70173333 10.9659333,7.59506667 12.7086,7.59506667 L11.4206,7.59506667 C9.67793333,7.59506667 8.80526667,9.70173333 10.0372667,10.9337333" id="Fill-5" fill="#8DBDFF" opacity="0.449999988"></path>
                <path d="M63.6151333,63.7616667 L41.6424667,41.789 C39.1898,39.3363333 39.1898,35.359 41.6424667,32.9063333 L63.6151333,10.9336667 C64.8471333,9.70166667 63.9744667,7.595 62.2318,7.595 L60.9438,7.595 C62.6864667,7.595 63.5591333,9.70166667 62.3271333,10.9336667 L40.3544667,32.9063333 C37.9018,35.359 37.9018,39.3363333 40.3544667,41.789 L62.3271333,63.7616667 C63.5591333,64.9936667 62.6864667,67.1003333 60.9438,67.1003333 L62.2318,67.1003333 C63.9744667,67.1003333 64.8471333,64.9936667 63.6151333,63.7616667" id="Fill-7" fill="#8DBDFF" opacity="0.449999988"></path>
                <g id="Group-9">
                    <path d="M69.5768042,9.90263374 L4.2517625,9.90263374 C1.90380417,9.90263374 -0.000154166666,7.86971193 -0.000154166666,5.36271605 L-0.000154166666,5.36271605 C-0.000154166666,2.85572016 1.90380417,0.822798354 4.2517625,0.822798354 L69.5768042,0.822798354 C71.9247625,0.822798354 73.8287208,2.85572016 73.8287208,5.36271605 L73.8287208,5.36271605 C73.8287208,7.86971193 71.9247625,9.90263374 69.5768042,9.90263374" id="Fill-17" fill="#FFFFFF"></path>
                    <path d="M69.5769583,3.89193416 L4.25191667,3.89193416 C2.3865,3.89193416 0.805520833,2.60716049 0.232791667,0.822798354 C0.0847916667,1.28534979 0,1.77835391 0,2.29440329 C0,4.80139918 1.90395833,6.83432099 4.25191667,6.83432099 L69.5769583,6.83432099 C71.9249167,6.83432099 73.828875,4.80139918 73.828875,2.29440329 C73.828875,1.77835391 73.7448542,1.28534979 73.5960833,0.822798354 C73.0233542,2.60716049 71.442375,3.89193416 69.5769583,3.89193416" id="Fill-13-Copy" fill="#2A86E1" opacity="0.100000001" transform="translate(36.914438, 3.828560) scale(1, -1) translate(-36.914438, -3.828560) "></path>
                    <path d="M22,9.90263374 L4.2517625,9.90263374 C1.90380417,9.90263374 -0.000154166666,7.86971193 -0.000154166666,5.36271605 C-0.000154166666,2.85572016 1.90380417,0.822798354 4.2517625,0.822798354 L69.5768042,0.822798354 C71.9247625,0.822798354 73.8287208,2.85572016 73.8287208,5.36271605 C73.8287208,7.86971193 71.9247625,9.90263374 69.5768042,9.90263374 L69.5768042,9.90263374 L30.5,9.90263374" id="Stroke-19" stroke="#2A86E1" stroke-width="2" stroke-linecap="round" stroke-linejoin="round"></path>
                </g>
                <g id="Group-9-Copy" transform="translate(37.000000, 69.688933) scale(1, -1) translate(-37.000000, -69.688933) translate(0.000000, 64.688933)">
                    <path d="M69.5768042,9.90263374 L4.2517625,9.90263374 C1.90380417,9.90263374 -0.000154166666,7.86971193 -0.000154166666,5.36271605 L-0.000154166666,5.36271605 C-0.000154166666,2.85572016 1.90380417,0.822798354 4.2517625,0.822798354 L69.5768042,0.822798354 C71.9247625,0.822798354 73.8287208,2.85572016 73.8287208,5.36271605 L73.8287208,5.36271605 C73.8287208,7.86971193 71.9247625,9.90263374 69.5768042,9.90263374" id="Fill-17" fill="#FFFFFF"></path>
                    <path d="M69.5769583,3.89193416 L4.25191667,3.89193416 C2.3865,3.89193416 0.805520833,2.60716049 0.232791667,0.822798354 C0.0847916667,1.28534979 0,1.77835391 0,2.29440329 C0,4.80139918 1.90395833,6.83432099 4.25191667,6.83432099 L69.5769583,6.83432099 C71.9249167,6.83432099 73.828875,4.80139918 73.828875,2.29440329 C73.828875,1.77835391 73.7448542,1.28534979 73.5960833,0.822798354 C73.0233542,2.60716049 71.442375,3.89193416 69.5769583,3.89193416" id="Fill-13-Copy" fill="#2A86E1" opacity="0.100000001" transform="translate(36.914438, 3.828560) scale(1, -1) translate(-36.914438, -3.828560) "></path>
                    <path d="M50.5,0.822798354 L69.5768042,0.822798354 C71.9247625,0.822798354 73.8287208,2.85572016 73.8287208,5.36271605 C73.8287208,7.86971193 71.9247625,9.90263374 69.5768042,9.90263374 L69.5768042,9.90263374 L4.2517625,9.90263374 C1.90380417,9.90263374 -0.000154166666,7.86971193 -0.000154166666,5.36271605 C-0.000154166666,2.85572016 1.90380417,0.822798354 4.2517625,0.822798354 L43,0.822798354" id="Stroke-19" stroke="#2A86E1" stroke-width="2" stroke-linecap="round" stroke-linejoin="round"></path>
                </g>
                <path d="M24.6751333,64.6889333 L32.5804667,56.4909333 C34.8004667,54.1889333 38.4664667,54.1236 40.7671333,56.3449333 L49.4098,64.6889333 L24.6751333,64.6889333 Z" id="Fill-21" fill="#2A86E1"></path>
                <path d="M42.1577333,52.9344 C42.1577333,53.5010667 41.6984,53.9604 41.1317333,53.9604 C40.5650667,53.9604 40.1050667,53.5010667 40.1050667,52.9344 C40.1050667,52.3677333 40.5650667,51.9084 41.1317333,51.9084 C41.6984,51.9084 42.1577333,52.3677333 42.1577333,52.9344" id="Fill-23" fill="#0063FF" opacity="0.669999957"></path>
                <path d="M38.3640667,46.5759333 C38.3640667,47.2732667 37.7987333,47.8386 37.1014,47.8386 C36.4034,47.8386 35.8380667,47.2732667 35.8380667,46.5759333 C35.8380667,45.8786 36.4034,45.3132667 37.1014,45.3132667 C37.7987333,45.3132667 38.3640667,45.8786 38.3640667,46.5759333" id="Fill-25" fill="#0063FF" opacity="0.669999957"></path>
            </g>
        </g>
    </g>
</svg>