<?xml version="1.0" encoding="UTF-8"?>
<svg width="23px" height="27px" viewBox="0 0 23 27" version="1.1" xmlns="http://www.w3.org/2000/svg" xmlns:xlink="http://www.w3.org/1999/xlink">
    <!-- Generator: sketchtool 42 (36781) - http://www.bohemiancoding.com/sketch -->
    <title>EABDC4D8-7204-43B5-936C-4F480C596EA6</title>
    <desc>Created with sketchtool.</desc>
    <defs></defs>
    <g id="Symbols" stroke="none" stroke-width="1" fill="none" fill-rule="evenodd">
        <g id="More_passive" transform="translate(-1.000000, 1.000000)" stroke="#637280" stroke-width="1.3">
            <g id="More_unselected" transform="translate(2.000000, 0.000000)">
                <path d="M15.9448148,5.93259259 C15.9448148,8.87703704 13.5577778,11.2631481 10.6142593,11.2631481 C7.66981481,11.2631481 5.2837037,8.87703704 5.2837037,5.93259259 C5.2837037,2.98814815 7.66981481,0.602037037 10.6142593,0.602037037 C13.5577778,0.602037037 15.9448148,2.98814815 15.9448148,5.93259259 Z" id="Stroke-1"></path>
                <path d="M19.8324074,24.8022222 L1.39537037,24.8022222 C0.957407407,24.8022222 0.601851852,24.4466667 0.601851852,24.0087037 L0.601851852,23.6207407 C0.601851852,18.4512963 4.79259259,14.2605556 9.96203704,14.2605556 L11.2666667,14.2605556 C16.4361111,14.2605556 20.6259259,18.4512963 20.6259259,23.6207407 L20.6259259,24.0087037 C20.6259259,24.4466667 20.2712963,24.8022222 19.8324074,24.8022222 Z" id="Stroke-3"></path>
            </g>
        </g>
    </g>
</svg>