<?xml version="1.0" encoding="UTF-8"?>
<svg width="24px" height="28px" viewBox="0 0 24 28" version="1.1" xmlns="http://www.w3.org/2000/svg" xmlns:xlink="http://www.w3.org/1999/xlink">
    <!-- Generator: sketchtool 42 (36781) - http://www.bohemiancoding.com/sketch -->
    <title>4721064D-4FF9-4E87-A668-15AC96DF8382</title>
    <desc>Created with sketchtool.</desc>
    <defs></defs>
    <g id="Symbols" stroke="none" stroke-width="1" fill="none" fill-rule="evenodd">
        <g id="Recommended_passive" transform="translate(-24.000000, 1.000000)">
            <g id="Recommended_unselected" transform="translate(25.000000, 0.000000)">
                <path d="M10.84902,0.563333333 C10.48242,0.563333333 10.1842867,0.861466667 10.1842867,1.22806667 C10.1842867,1.274 10.18862,1.31906667 10.1972867,1.3624 C9.83068667,1.49933333 9.35402,1.68306667 8.74128667,1.92833333 C4.65928667,3.5568 2.83495333,5.61253333 2.90602,12.5103333 C2.94588667,16.3470667 1.79322,18.7858667 0.762753333,20.1950667 C0.27742,20.8589333 0.731553333,21.788 1.55402,21.788 L10.8446867,21.788 L10.8732867,21.788 L20.9023533,21.788 C21.74042,21.788 22.18762,20.8286 21.67282,20.1673333 C20.5721533,18.7538 19.3518867,16.3219333 19.3943533,12.5103333 C19.47062,5.61253333 17.5119533,3.55766667 13.1309533,1.92833333 C12.4367533,1.67006667 11.9063533,1.4794 11.5050867,1.339 C11.51202,1.30346667 11.5154867,1.2662 11.5154867,1.22806667 C11.5154867,0.861466667 11.2173533,0.563333333 10.84902,0.563333333 Z" id="Stroke-1" stroke="#637280" stroke-width="1.3"></path>
                <path d="M13.7371467,23.7999992 L8.71000671,23.7999992 C8.71000671,25.0453992 9.83563003,26.0541992 11.2230936,26.0541992 C12.6115234,26.0541992 13.7371467,25.0453992 13.7371467,23.7999992" id="Fill-3" fill="#637280"></path>
            </g>
        </g>
    </g>
</svg>